<?xml version="1.0" encoding="UTF-8"?>
<svg version="1.1" xmlns="http://www.w3.org/2000/svg" width="120" height="120">
<path d="M0 0 C39.6 0 79.2 0 120 0 C120 39.6 120 79.2 120 120 C80.4 120 40.8 120 0 120 C0 80.4 0 40.8 0 0 Z " fill="#FEFEFE" transform="translate(0,0)"/>
<path d="M0 0 C2.26003559 1.90123432 4.07658914 3.74686157 6 6 C5.67 6.66 5.34 7.32 5 8 C2.525 6.02 2.525 6.02 0 4 C-0.66 4.33 -1.32 4.66 -2 5 C-1.113125 5.639375 -0.22625 6.27875 0.6875 6.9375 C6.25520525 11.55526502 9.54197073 18.29956844 10.23828125 25.4453125 C10.47475955 33.98342387 8.50840197 40.20156273 3.8125 47.3125 C0.22258512 50.74286311 -3.56364506 52.83492807 -8 55 C-8.804375 55.433125 -9.60875 55.86625 -10.4375 56.3125 C-14.57479704 57.42250652 -18.74310372 57.14878472 -23 57 C-23 57.66 -23 58.32 -23 59 C-22.01 59.495 -22.01 59.495 -21 60 C-30.1491565 60.6653932 -37.02481475 57.40562496 -44.1484375 51.7578125 C-51.47660536 44.80069111 -55.07145882 35.97891642 -55.375 26 C-55.09373443 16.76511377 -52.32643627 9.76749501 -46 3 C-32.43743385 -9.74523637 -15.33186079 -10.84924047 0 0 Z " fill="#F6F8F9" transform="translate(82,28)"/>
<path d="M0 0 C6.71393813 0.29191035 11.74717807 2.84620342 17 7 C23.03955912 13.94487291 25.50317823 20.96926675 25.31640625 30.12109375 C24.50967798 37.46132506 21.33355559 43.90349133 16 49 C7.1310004 54.75624665 -0.56350648 55.77428531 -11 55 C-14.12033794 54.15339668 -16.41428474 52.91862434 -19 51 C-19.64710937 50.52949219 -20.29421875 50.05898437 -20.9609375 49.57421875 C-24.50612534 46.77424386 -26.80693775 44.50712405 -28 40 C-27.01 40.66 -26.02 41.32 -25 42 C-25 42.66 -25 43.32 -25 44 C-24.360625 44.309375 -23.72125 44.61875 -23.0625 44.9375 C-21 46 -21 46 -20 47 C-19.34 43.37 -18.68 39.74 -18 36 C-18.99 36 -19.98 36 -21 36 C-21 32.7 -21 29.4 -21 26 C-19.35 25.67 -17.7 25.34 -16 25 C-17.21044132 20.39257135 -17.21044132 20.39257135 -19 16 C-19.57270975 8.89839909 -19.57270975 8.89839909 -17.578125 5.76953125 C-13.67150275 3.0881678 -10.06375367 3.45491271 -5.4375 3.5625 C-4.57447266 3.55541016 -3.71144531 3.54832031 -2.82226562 3.54101562 C3.49762172 3.60485287 3.49762172 3.60485287 5.74658203 5.3737793 C8.40454548 8.8222979 7.35051992 13.86846188 7 18 C6.50656732 20.45872866 5.84268245 22.6299556 5 25 C6.65 25.33 8.3 25.66 10 26 C10 29.63 10 33.26 10 37 C9.01 37 8.02 37 7 37 C7.66 39.97 8.32 42.94 9 46 C12.06607289 45.34448238 12.06607289 45.34448238 13.05859375 43.1875 C13.36925781 42.465625 13.67992187 41.74375 14 41 C14.34160156 40.34 14.68320313 39.68 15.03515625 39 C15.37417969 38.34 15.71320313 37.68 16.0625 37 C16.40410156 36.34 16.74570313 35.68 17.09765625 35 C19.63778523 29.36993056 20.09761504 23.27315694 18.12890625 17.40234375 C14.77878401 10.11994688 10.42733608 5.35362511 3.0625 2.125 C2.051875 1.75375 1.04125 1.3825 0 1 C0 0.67 0 0.34 0 0 Z " fill="#11171D" transform="translate(67,29)"/>
<path d="M0 0 C2.26003559 1.90123432 4.07658914 3.74686157 6 6 C5.67 6.66 5.34 7.32 5 8 C4.5153125 7.60167969 4.030625 7.20335937 3.53125 6.79296875 C-5.61783569 -0.43832783 -13.24072253 -2.18807855 -25 -1 C-32.69493597 0.92660096 -38.85944936 5.87612161 -43.609375 12.11328125 C-48.43771189 20.18311397 -48.43240308 30.07228939 -46.265625 39.0390625 C-42.75850881 48.55427117 -37.87698987 52.45646283 -28.9375 56.80078125 C-26.26107645 57.89341693 -23.84702299 58.55515266 -21 59 C-21 59.33 -21 59.66 -21 60 C-30.1491565 60.6653932 -37.02481475 57.40562496 -44.1484375 51.7578125 C-51.47660536 44.80069111 -55.07145882 35.97891642 -55.375 26 C-55.09373443 16.76511377 -52.32643627 9.76749501 -46 3 C-32.43743385 -9.74523637 -15.33186079 -10.84924047 0 0 Z " fill="#1E5680" transform="translate(82,28)"/>
<path d="M0 0 C6.71393813 0.29191035 11.74717807 2.84620342 17 7 C23.03955912 13.94487291 25.50317823 20.96926675 25.31640625 30.12109375 C24.50967798 37.46132506 21.33355559 43.90349133 16 49 C7.1310004 54.75624665 -0.56350648 55.77428531 -11 55 C-14.12033794 54.15339668 -16.41428474 52.91862434 -19 51 C-19.64710937 50.52949219 -20.29421875 50.05898437 -20.9609375 49.57421875 C-24.50612534 46.77424386 -26.80693775 44.50712405 -28 40 C-27.01 40.66 -26.02 41.32 -25 42 C-25 42.66 -25 43.32 -25 44 C-24.360625 44.309375 -23.72125 44.61875 -23.0625 44.9375 C-21 46 -21 46 -20 47 C-19.34 43.37 -18.68 39.74 -18 36 C-16.68 36 -15.36 36 -14 36 C-12.62086639 39.83092668 -13.21351666 43.0675833 -14 47 C-14.66 47.99 -15.32 48.98 -16 50 C-13.22890693 50.05392397 -10.45886182 50.09363455 -7.6875 50.125 C-6.90181641 50.14175781 -6.11613281 50.15851563 -5.30664062 50.17578125 C-4.54931641 50.18222656 -3.79199219 50.18867187 -3.01171875 50.1953125 C-1.96697388 50.21102295 -1.96697388 50.21102295 -0.90112305 50.22705078 C1.331173 50.10574595 1.331173 50.10574595 4 48 C3.649375 47.319375 3.29875 46.63875 2.9375 45.9375 C1.77379397 42.2912211 2.27154898 39.71510022 3 36 C5.31 36 7.62 36 10 36 C9.01 36.33 8.02 36.66 7 37 C7.66 39.97 8.32 42.94 9 46 C12.06607289 45.34448238 12.06607289 45.34448238 13.05859375 43.1875 C13.36925781 42.465625 13.67992187 41.74375 14 41 C14.34160156 40.34 14.68320313 39.68 15.03515625 39 C15.37417969 38.34 15.71320313 37.68 16.0625 37 C16.40410156 36.34 16.74570313 35.68 17.09765625 35 C19.63778523 29.36993056 20.09761504 23.27315694 18.12890625 17.40234375 C14.77878401 10.11994688 10.42733608 5.35362511 3.0625 2.125 C2.051875 1.75375 1.04125 1.3825 0 1 C0 0.67 0 0.34 0 0 Z " fill="#3CB2DA" transform="translate(67,29)"/>
<path d="M0 0 C0.84175781 -0.00257812 1.68351562 -0.00515625 2.55078125 -0.0078125 C3.87142578 0.00378906 3.87142578 0.00378906 5.21875 0.015625 C6.09917969 0.00789063 6.97960938 0.00015625 7.88671875 -0.0078125 C8.72847656 -0.00523438 9.57023437 -0.00265625 10.4375 0 C11.59668945 0.00338379 11.59668945 0.00338379 12.77929688 0.00683594 C14.71875 0.265625 14.71875 0.265625 16.71875 2.265625 C17.18251812 9.56997283 17.18251812 9.56997283 14.71875 13.265625 C12.77929688 13.63793945 12.77929688 13.63793945 10.4375 13.62890625 C9.59574219 13.62826172 8.75398438 13.62761719 7.88671875 13.62695312 C7.00628906 13.61083984 6.12585937 13.59472656 5.21875 13.578125 C3.89810547 13.58295898 3.89810547 13.58295898 2.55078125 13.58789062 C-4.01427968 13.53259532 -4.01427968 13.53259532 -6.28125 11.265625 C-6.546875 9.171875 -6.546875 9.171875 -6.53125 6.765625 C-6.53640625 5.9715625 -6.5415625 5.1775 -6.546875 4.359375 C-6.01649621 0.17874217 -3.65054982 0.01065632 0 0 Z " fill="#FAFAFA" transform="translate(56.28125,34.734375)"/>
<path d="M0 0 C6.71393813 0.29191035 11.74717807 2.84620342 17 7 C23.03955912 13.94487291 25.50317823 20.96926675 25.31640625 30.12109375 C24.50290369 37.52296269 21.29418864 43.83493791 16 49 C13.1875 50.375 13.1875 50.375 11 51 C11 49.68 11 48.36 11 47 C11.61359375 46.39542969 12.2271875 45.79085937 12.859375 45.16796875 C17.74324944 40.22170906 19.1361666 31.0591535 19.5625 24.25 C19.17843292 17.37519924 15.65068782 11.14574578 10.625 6.5625 C7.31204073 3.9922261 3.92391886 2.44143958 0 1 C0 0.67 0 0.34 0 0 Z " fill="#2AB4E1" transform="translate(67,29)"/>
<path d="M0 0 C4.95 0 9.9 0 15 0 C17 10.625 17 10.625 17 14 C13.42306178 15.19231274 10.15817447 15.1461202 6.4375 15.125 C5.75236328 15.12886719 5.06722656 15.13273437 4.36132812 15.13671875 C-0.7466133 15.12669335 -0.7466133 15.12669335 -3 14 C-2.01 9.38 -1.02 4.76 0 0 Z " fill="#F4F6F6" transform="translate(54,65)"/>
<path d="M0 0 C0.86302734 -0.00708984 1.72605469 -0.01417969 2.61523438 -0.02148438 C8.93576195 0.04235934 8.93576195 0.04235934 11.18188477 1.8112793 C13.85969511 5.27946804 12.88703394 10.29371924 12.4375 14.4375 C11.66790211 17.01609522 10.71157348 19.04861223 9.4375 21.4375 C8.4475 21.1075 7.4575 20.7775 6.4375 20.4375 C6.4375 19.1175 6.4375 17.7975 6.4375 16.4375 C7.0975 16.4375 7.7575 16.4375 8.4375 16.4375 C11.04335556 12.52871666 10.66071871 8.97628034 10.4375 4.4375 C8.88143249 2.88143249 7.37792629 3.30779231 5.21875 3.3046875 C4.36925781 3.30339844 3.51976563 3.30210938 2.64453125 3.30078125 C1.75121094 3.30464844 0.85789062 3.30851562 -0.0625 3.3125 C-1.40248047 3.30669922 -1.40248047 3.30669922 -2.76953125 3.30078125 C-4.04376953 3.30271484 -4.04376953 3.30271484 -5.34375 3.3046875 C-6.5203418 3.30637939 -6.5203418 3.30637939 -7.72070312 3.30810547 C-9.58002988 3.23642558 -9.58002988 3.23642558 -10.5625 4.4375 C-10.76215405 6.47131744 -10.76215405 6.47131744 -10.75 8.8125 C-10.76417969 9.60398437 -10.77835938 10.39546875 -10.79296875 11.2109375 C-10.70757509 13.72481333 -10.70757509 13.72481333 -8.5625 16.4375 C-5.20746524 16.80308117 -5.20746524 16.80308117 -1.4375 16.625 C-0.15617187 16.59792969 1.12515625 16.57085937 2.4453125 16.54296875 C3.43273437 16.50816406 4.42015625 16.47335938 5.4375 16.4375 C5.4375 18.0875 5.4375 19.7375 5.4375 21.4375 C0.4875 21.4375 -4.4625 21.4375 -9.5625 21.4375 C-12.56912246 15.42425508 -14.47666284 11.17945091 -13.5625 4.4375 C-10.16889425 -0.77774154 -5.63440405 -0.13103265 0 0 Z " fill="#464B50" transform="translate(61.5625,32.5625)"/>
<path d="M0 0 C4.29161047 -0.05783842 8.58312145 -0.0935412 12.875 -0.125 C14.09832031 -0.14175781 15.32164063 -0.15851562 16.58203125 -0.17578125 C17.74863281 -0.18222656 18.91523437 -0.18867187 20.1171875 -0.1953125 C21.19597168 -0.20578613 22.27475586 -0.21625977 23.38623047 -0.22705078 C26 0 26 0 28 2 C28 2.99 28 3.98 28 5 C18.43 5 8.86 5 -1 5 C-0.67 3.35 -0.34 1.7 0 0 Z " fill="#EAEBEB" transform="translate(48,55)"/>
<path d="M0 0 C1.32 0 2.64 0 4 0 C5.37913361 3.83092668 4.78648334 7.0675833 4 11 C3.01 12.485 3.01 12.485 2 14 C6.95 14.33 11.9 14.66 17 15 C17 15.33 17 15.66 17 16 C13.37 16 9.74 16 6 16 C6 16.66 6 17.32 6 18 C-0.56813963 15.94745637 -6.09578486 11.60169999 -10 6 C-9.67 5.34 -9.34 4.68 -9 4 C-8.7525 4.61875 -8.505 5.2375 -8.25 5.875 C-6.78226892 8.37014283 -5.62003145 8.90127713 -3 10 C-2.67 10.33 -2.34 10.66 -2 11 C-1.34 7.37 -0.68 3.74 0 0 Z " fill="#82C7DF" transform="translate(49,65)"/>
<path d="M0 0 C9.57 0 19.14 0 29 0 C29 0.99 29 1.98 29 3 C19.43 3 9.86 3 0 3 C0 2.01 0 1.02 0 0 Z " fill="#F4F4F4" transform="translate(47,61)"/>
<path d="M0 0 C3 1 3 1 4.6875 3.25 C8.91353576 8.27555603 14.55434509 11.65243083 21.13671875 12.31640625 C22.30847656 12.39761719 23.48023438 12.47882813 24.6875 12.5625 C25.86699219 12.64628906 27.04648438 12.73007813 28.26171875 12.81640625 C29.16535156 12.87699219 30.06898437 12.93757813 31 13 C31 13.33 31 13.66 31 14 C27.7 14 24.4 14 21 14 C21 14.66 21 15.32 21 16 C14.20689992 15.64246842 8.15875814 11.92659997 3.24609375 7.375 C0.97685128 4.78896869 0 3.50750543 0 0 Z " fill="#E9EFF3" transform="translate(38,71)"/>
<path d="M0 0 C6.27 0 12.54 0 19 0 C18.67 0.99 18.34 1.98 18 3 C18 2.34 18 1.68 18 1 C17.34 1 16.68 1 16 1 C16.33 2.32 16.66 3.64 17 5 C19.31 5.33 21.62 5.66 24 6 C24 6.99 24 7.98 24 9 C23.34 8.67 22.68 8.34 22 8 C19.89471067 7.91456105 17.78668843 7.89285275 15.6796875 7.90234375 C13.79443359 7.90717773 13.79443359 7.90717773 11.87109375 7.91210938 C10.55238281 7.92048828 9.23367187 7.92886719 7.875 7.9375 C6.53515789 7.94251511 5.195314 7.94707799 3.85546875 7.95117188 C0.57026794 7.96298914 -2.71484397 7.97946383 -6 8 C-5.67 7.34 -5.34 6.68 -5 6 C-3.68 6 -2.36 6 -1 6 C-0.67 5.01 -0.34 4.02 0 3 C0 3.99 0 4.98 0 6 C0.99 5.67 1.98 5.34 3 5 C5.06587115 5.08573227 7.12946525 5.23833535 9.1875 5.4375 C10.81751953 5.59025391 10.81751953 5.59025391 12.48046875 5.74609375 C13.31191406 5.82988281 14.14335938 5.91367187 15 6 C15 4.35 15 2.7 15 1 C11.37 1 7.74 1 4 1 C3.67 1.66 3.34 2.32 3 3 C3 2.34 3 1.68 3 1 C2.01 1.33 1.02 1.66 0 2 C0 1.34 0 0.68 0 0 Z " fill="#1C2227" transform="translate(52,48)"/>
<path d="M0 0 C-0.66 1.65 -1.32 3.3 -2 5 C-6.95 5 -11.9 5 -17 5 C-17.33 4.01 -17.66 3.02 -18 2 C-17.22914062 1.93941406 -16.45828125 1.87882812 -15.6640625 1.81640625 C-14.15972656 1.69072266 -14.15972656 1.69072266 -12.625 1.5625 C-11.62726562 1.48128906 -10.62953125 1.40007812 -9.6015625 1.31640625 C-6.12454261 0.89352545 -3.63101996 -0.09555316 0 0 Z " fill="#27B2E1" transform="translate(73,79)"/>
<path d="M0 0 C1.32 0 2.64 0 4 0 C5.37432457 3.81756824 4.67975039 7.07255329 4 11 C2.0625 11.5625 2.0625 11.5625 0 12 C-0.33 11.67 -0.66 11.34 -1 11 C-0.91015699 9.14227838 -0.75388139 7.28752015 -0.5625 5.4375 C-0.46066406 4.42558594 -0.35882813 3.41367188 -0.25390625 2.37109375 C-0.17011719 1.58863281 -0.08632813 0.80617188 0 0 Z " fill="#717478" transform="translate(49,65)"/>
<path d="M0 0 C2.31 0 4.62 0 7 0 C6.01 0.33 5.02 0.66 4 1 C4 4.63 4 8.26 4 12 C2.68 11.67 1.36 11.34 0 11 C-1.125 3.375 -1.125 3.375 0 0 Z " fill="#76797D" transform="translate(70,65)"/>
<path d="M0 0 C8.92981438 -0.46321804 15.97331823 -0.1428035 24 4 C23.01 4.99 22.02 5.98 21 7 C20.154375 6.505 19.30875 6.01 18.4375 5.5 C14.66203168 3.85252292 12.07182452 3.75569053 8 4 C7.67 3.34 7.34 2.68 7 2 C4.67843403 1.59270772 2.3431213 1.25561323 0 1 C0 0.67 0 0.34 0 0 Z " fill="#D9E4EA" transform="translate(57,26)"/>
<path d="M0 0 C6.62842427 0.28819236 11.78452788 2.92868996 17 7 C18.29296875 9.19921875 18.29296875 9.19921875 19 11 C18.01 11.66 17.02 12.32 16 13 C15.59910156 12.46890625 15.19820312 11.9378125 14.78515625 11.390625 C10.46059795 6.01679746 6.51165043 3.24437838 0 1 C0 0.67 0 0.34 0 0 Z " fill="#4BBBDF" transform="translate(67,29)"/>
<path d="M0 0 C3.63 0 7.26 0 11 0 C11 1.32 11 2.64 11 4 C7.37 4 3.74 4 0 4 C0 2.68 0 1.36 0 0 Z " fill="#E7E8E8" transform="translate(56,49)"/>
<path d="M0 0 C1.32 0 2.64 0 4 0 C4.33 1.32 4.66 2.64 5 4 C8.63 4 12.26 4 16 4 C16 4.33 16 4.66 16 5 C11.05 5 6.1 5 1 5 C0.67 3.35 0.34 1.7 0 0 Z " fill="#838689" transform="translate(51,49)"/>
<path d="M0 0 C0.88751953 0.30744141 0.88751953 0.30744141 1.79296875 0.62109375 C5.83660816 1.9997571 9.76855249 3.31750847 14 4 C14 4.33 14 4.66 14 5 C7.79029227 5.33266291 3.71735105 4.45029331 -2 2 C-1.34 1.34 -0.68 0.68 0 0 Z " fill="#5F819B" transform="translate(47,83)"/>
<path d="M0 0 C5.61 0.33 11.22 0.66 17 1 C17 1.33 17 1.66 17 2 C13.37 2 9.74 2 6 2 C6 2.66 6 3.32 6 4 C1.125 2.25 1.125 2.25 0 0 Z " fill="#55BEE0" transform="translate(49,79)"/>
<path d="M0 0 C5.75 0.75 5.75 0.75 8 3 C7.01 3.66 6.02 4.32 5 5 C3.02 4.01 1.04 3.02 -1 2 C-0.67 1.34 -0.34 0.68 0 0 Z " fill="#E4EEF2" transform="translate(73,28)"/>
<path d="M0 0 C0.66 0.66 1.32 1.32 2 2 C1.01 4.31 0.02 6.62 -1 9 C-1.99 8.67 -2.98 8.34 -4 8 C-4 6.68 -4 5.36 -4 4 C-3.34 4 -2.68 4 -2 4 C-1.34 2.68 -0.68 1.36 0 0 Z " fill="#7B7E81" transform="translate(72,45)"/>
<path d="M0 0 C2.125 -0.375 2.125 -0.375 5 0 C7.23913252 1.79340357 9.12454539 3.83452663 11 6 C10.67 6.66 10.34 7.32 10 8 C8.70684939 7.04367001 7.41553147 6.08486149 6.125 5.125 C5.40570313 4.59132813 4.68640625 4.05765625 3.9453125 3.5078125 C2 2 2 2 0 0 Z " fill="#416B8C" transform="translate(77,28)"/>
<path d="M0 0 C4.62 0 9.24 0 14 0 C14 0.33 14 0.66 14 1 C10.7 1 7.4 1 4 1 C4 1.66 4 2.32 4 3 C2.68 2.67 1.36 2.34 0 2 C0 1.34 0 0.68 0 0 Z " fill="#CEE7F0" transform="translate(55,84)"/>
<path d="M0 0 C2.31 0.33 4.62 0.66 7 1 C7.33 1.99 7.66 2.98 8 4 C4.31245243 3.50168276 2.39509338 2.89932357 0 0 Z " fill="#295D83" transform="translate(39,80)"/>
</svg>
