<?xml version="1.0" encoding="UTF-8"?>
<svg version="1.1" xmlns="http://www.w3.org/2000/svg" width="120" height="120">
<path d="M0 0 C39.6 0 79.2 0 120 0 C120 39.6 120 79.2 120 120 C80.4 120 40.8 120 0 120 C0 80.4 0 40.8 0 0 Z " fill="#FEFEFE" transform="translate(0,0)"/>
<path d="M0 0 C2.26003559 1.90123432 4.07658914 3.74686157 6 6 C5.67 6.66 5.34 7.32 5 8 C4.5153125 7.60167969 4.030625 7.20335937 3.53125 6.79296875 C-5.61783569 -0.43832783 -13.24072253 -2.18807855 -25 -1 C-32.6556774 0.91677169 -39.38933981 5.88757654 -43.609375 12.53515625 C-45.78234942 16.67967768 -47 19.24684071 -47 24 C-46.51644043 23.72212646 -46.03288086 23.44425293 -45.53466797 23.15795898 C-43.3241244 21.90049104 -41.10010924 20.66899549 -38.875 19.4375 C-37.73417969 18.78104492 -37.73417969 18.78104492 -36.5703125 18.11132812 C-35.82265625 17.70205078 -35.075 17.29277344 -34.3046875 16.87109375 C-33.62390137 16.48880615 -32.94311523 16.10651855 -32.24169922 15.71264648 C-27.17841824 14.10300619 -22.07273644 16.55162303 -17.2890625 18.28515625 C-16.67606293 18.50570175 -16.06306335 18.72624725 -15.43148804 18.95347595 C-13.49422327 19.65169956 -11.55961294 20.35696647 -9.625 21.0625 C-8.30355515 21.54018336 -6.98194204 22.0174015 -5.66015625 22.49414062 C-2.43842071 23.65819836 0.78152576 24.8269617 4 26 C0.57590495 29.48465384 -2.82735519 32.47968622 -6.8125 35.3125 C-7.78832031 36.00988281 -8.76414063 36.70726562 -9.76953125 37.42578125 C-10.87361328 38.20501953 -10.87361328 38.20501953 -12 39 C-12.99 38.01 -13.98 37.02 -15 36 C-15 36.99 -15 37.98 -15 39 C-16.32 39 -17.64 39 -19 39 C-19 39.66 -19 40.32 -19 41 C-17.02 40.505 -17.02 40.505 -15 40 C-15.66 40.99 -16.32 41.98 -17 43 C-21.11866766 41.74665624 -24.61400003 40.22497788 -28.29296875 37.99609375 C-29.25267578 37.42052734 -30.21238281 36.84496094 -31.20117188 36.25195312 C-32.18666016 35.65318359 -33.17214844 35.05441406 -34.1875 34.4375 C-36.158625 33.24616071 -38.13121612 32.05724283 -40.10546875 30.87109375 C-40.97324951 30.34443115 -41.84103027 29.81776855 -42.73510742 29.27514648 C-45.048295 27.87842219 -45.048295 27.87842219 -48 27 C-46.74658065 36.89541594 -44.77866013 44.48787228 -38 52 C-35.17657525 53.82705785 -35.17657525 53.82705785 -32.0625 55.25 C-31.04285156 55.75015625 -30.02320312 56.2503125 -28.97265625 56.765625 C-26.27844149 57.88437909 -23.87261372 58.55561777 -21 59 C-21 59.33 -21 59.66 -21 60 C-30.1491565 60.6653932 -37.02481475 57.40562496 -44.1484375 51.7578125 C-51.47660536 44.80069111 -55.07145882 35.97891642 -55.375 26 C-55.09373443 16.76511377 -52.32643627 9.76749501 -46 3 C-32.43743385 -9.74523637 -15.33186079 -10.84924047 0 0 Z " fill="#1F5680" transform="translate(82,28)"/>
<path d="M0 0 C6.71393813 0.29191035 11.74717807 2.84620342 17 7 C23.03955912 13.94487291 25.50317823 20.96926675 25.31640625 30.12109375 C24.50967798 37.46132506 21.33355559 43.90349133 16 49 C13.09972456 50.89653713 10.11187306 52.48131425 7 54 C6.195625 54.433125 5.39125 54.86625 4.5625 55.3125 C0.42520296 56.42250652 -3.74310372 56.14878472 -8 56 C-8 56.66 -8 57.32 -8 58 C-14.90637369 57.63650665 -21.07841027 53.95818584 -25.87109375 49.10546875 C-31.5975014 41.86534736 -33.57239076 35.15825208 -33 26 C-29.98034786 26.63333686 -27.60134434 27.63158086 -24.91796875 29.14453125 C-24.15033203 29.57443359 -23.38269531 30.00433594 -22.59179688 30.44726562 C-21.79837891 30.89779297 -21.00496094 31.34832031 -20.1875 31.8125 C-19.40568359 32.25142578 -18.62386719 32.69035156 -17.81835938 33.14257812 C-11.54136298 36.67174987 -11.54136298 36.67174987 -8.93603516 38.25146484 C-7.32273205 39.22295661 -5.6647877 40.11964491 -4 41 C-3.01 40.505 -3.01 40.505 -2 40 C-2.66 40 -3.32 40 -4 40 C-4 39.34 -4 38.68 -4 38 C-2.68 38 -1.36 38 0 38 C0 37.01 0 36.02 0 35 C0.99 35.33 1.98 35.66 3 36 C7.36148991 34.33934903 11.01212446 31.18406382 14.7578125 28.4609375 C17 27 17 27 19 27 C19.7250206 20.32981044 17.64621946 15.56576573 14 10 C10.02583437 5.48776444 5.5882472 3.0528255 0 1 C0 0.67 0 0.34 0 0 Z " fill="#F7F8F8" transform="translate(67,29)"/>
<path d="M0 0 C-0.99 0.99 -1.98 1.98 -3 3 C-3.94875 2.505 -4.8975 2.01 -5.875 1.5 C-8.72278166 -0.14424369 -8.72278166 -0.14424369 -11 0 C-10.49210937 0.27972656 -9.98421875 0.55945313 -9.4609375 0.84765625 C-1.91322572 5.24342098 3.3553406 10.47831971 6 19 C6.21747017 22.02041903 6.18496204 24.97895333 6 28 C5.47075928 27.39389893 4.94151855 26.78779785 4.39624023 26.16333008 C0.30163998 22.46671746 -4.84483715 21.16836545 -9.98999023 19.37084961 C-11.93435571 18.68860328 -13.86834043 17.98144158 -15.80273438 17.27148438 C-17.64641602 16.61696289 -17.64641602 16.61696289 -19.52734375 15.94921875 C-20.64874756 15.55049561 -21.77015137 15.15177246 -22.92553711 14.7409668 C-27.61442038 13.61091353 -30.7965919 14.70069341 -34.98828125 16.84765625 C-35.69404297 17.20537109 -36.39980469 17.56308594 -37.12695312 17.93164062 C-37.84818359 18.30482422 -38.56941406 18.67800781 -39.3125 19.0625 C-40.05306641 19.43955078 -40.79363281 19.81660156 -41.55664062 20.20507812 C-43.37387522 21.13128157 -45.18732404 22.06490629 -47 23 C-46.20921484 14.26458258 -43.18772326 8.70285812 -36.6875 2.6875 C-25.53102466 -6.0194014 -12.52395818 -6.46397842 0 0 Z " fill="#F7F9F9" transform="translate(81,30)"/>
<path d="M0 0 C1.29434475 0.43213309 2.59149688 0.85590492 3.890625 1.2734375 C7.60943782 2.47246339 11.30655629 3.72505632 15 5 C15 5.66 15 6.32 15 7 C12.62842562 9.13820913 9.93580936 10.8724165 7.3125 12.6875 C6.2306543 13.47350586 6.2306543 13.47350586 5.12695312 14.27539062 C-0.1768533 17.961415 -0.1768533 17.961415 -3.5 18.1171875 C-7.24085913 16.44549107 -10.77525169 14.50168512 -14.3125 12.4375 C-15.05306641 12.01275391 -15.79363281 11.58800781 -16.55664062 11.15039062 C-18.37468118 10.10648347 -20.18783748 9.05407808 -22 8 C-20.39440181 3.18320544 -16.47094627 1.72716814 -12.17578125 -0.66015625 C-7.29118013 -2.72094123 -4.76806614 -1.89277777 0 0 Z " fill="#F9F9F8" transform="translate(63,48)"/>
<path d="M0 0 C6.71393813 0.29191035 11.74717807 2.84620342 17 7 C23.03955912 13.94487291 25.50317823 20.96926675 25.31640625 30.12109375 C24.50967798 37.46132506 21.33355559 43.90349133 16 49 C7.13987691 54.75048553 -0.57038143 55.79391257 -11 55 C-14.0668794 54.10722817 -16.42307576 52.86604859 -19 51 C-20.485 49.948125 -20.485 49.948125 -22 48.875 C-22.66 48.25625 -23.32 47.6375 -24 47 C-24 46.34 -24 45.68 -24 45 C-21.7240913 46.13795435 -19.49327125 47.28903925 -17.28125 48.55078125 C-10.66810519 51.47158687 -2.14829689 51.12042517 4.625 48.625 C5.73875 48.08875 6.8525 47.5525 8 47 C8.78375 46.690625 9.5675 46.38125 10.375 46.0625 C12.49087936 44.67904042 12.92919952 43.27595995 14 41 C14.34160156 40.34 14.68320313 39.68 15.03515625 39 C15.37417969 38.34 15.71320313 37.68 16.0625 37 C16.40410156 36.34 16.74570313 35.68 17.09765625 35 C19.63778523 29.36993056 20.09761504 23.27315694 18.12890625 17.40234375 C14.77878401 10.11994688 10.42733608 5.35362511 3.0625 2.125 C2.051875 1.75375 1.04125 1.3825 0 1 C0 0.67 0 0.34 0 0 Z " fill="#2CB4E1" transform="translate(67,29)"/>
<path d="M0 0 C0.91949936 0.33081825 0.91949936 0.33081825 1.85757446 0.6683197 C3.79483923 1.36654331 5.72944956 2.07181022 7.6640625 2.77734375 C8.98550735 3.25502711 10.30712046 3.73224525 11.62890625 4.20898438 C14.85064179 5.37304211 18.07058826 6.54180545 21.2890625 7.71484375 C17.86496745 11.19949759 14.46170731 14.19452997 10.4765625 17.02734375 C9.50074219 17.72472656 8.52492187 18.42210938 7.51953125 19.140625 C6.41544922 19.91986328 6.41544922 19.91986328 5.2890625 20.71484375 C4.2990625 19.72484375 3.3090625 18.73484375 2.2890625 17.71484375 C2.2890625 18.70484375 2.2890625 19.69484375 2.2890625 20.71484375 C0.9690625 20.71484375 -0.3509375 20.71484375 -1.7109375 20.71484375 C-1.7109375 21.37484375 -1.7109375 22.03484375 -1.7109375 22.71484375 C-0.3909375 22.38484375 0.9290625 22.05484375 2.2890625 21.71484375 C1.6290625 22.70484375 0.9690625 23.69484375 0.2890625 24.71484375 C-6.41032169 22.67349906 -12.06191732 19.28603395 -18.0859375 15.77734375 C-19.20355469 15.14376953 -20.32117188 14.51019531 -21.47265625 13.85742188 C-22.52839844 13.24447266 -23.58414063 12.63152344 -24.671875 12 C-25.63915527 11.4419165 -26.60643555 10.88383301 -27.60302734 10.30883789 C-28.2986377 9.78281982 -28.99424805 9.25680176 -29.7109375 8.71484375 C-29.7109375 7.72484375 -29.7109375 6.73484375 -29.7109375 5.71484375 C-27.01724514 4.16693556 -24.30413413 2.6567404 -21.5859375 1.15234375 C-20.82539062 0.71470703 -20.06484375 0.27707031 -19.28125 -0.17382812 C-18.53359375 -0.58310547 -17.7859375 -0.99238281 -17.015625 -1.4140625 C-16.33483887 -1.7963501 -15.65405273 -2.1786377 -14.95263672 -2.57250977 C-9.88935574 -4.18215006 -4.78367394 -1.73353322 0 0 Z M-17.3984375 3.58984375 C-18.00494141 3.95464844 -18.61144531 4.31945313 -19.23632812 4.6953125 C-20.76652924 5.6420061 -22.24404565 6.67274369 -23.7109375 7.71484375 C-23.7109375 8.37484375 -23.7109375 9.03484375 -23.7109375 9.71484375 C-20.82850327 11.42605141 -17.92819885 13.10436247 -15.0234375 14.77734375 C-13.79850586 15.5053418 -13.79850586 15.5053418 -12.54882812 16.24804688 C-11.75283203 16.70244141 -10.95683594 17.15683594 -10.13671875 17.625 C-9.40880127 18.04918213 -8.68088379 18.47336426 -7.9309082 18.91040039 C-5.08743199 19.94078136 -3.57284776 19.61490538 -0.7109375 18.71484375 C1.16275167 17.75402951 1.16275167 17.75402951 2.83984375 16.5 C3.45537109 16.06107422 4.07089844 15.62214844 4.70507812 15.16992188 C5.33091797 14.71037109 5.95675781 14.25082031 6.6015625 13.77734375 C7.24673828 13.32166016 7.89191406 12.86597656 8.55664062 12.39648438 C10.17647249 11.22574875 11.73848425 9.97586883 13.2890625 8.71484375 C13.2890625 8.05484375 13.2890625 7.39484375 13.2890625 6.71484375 C9.85402478 5.54083787 6.41565536 4.37691166 2.9765625 3.21484375 C2.00009766 2.88097656 1.02363281 2.54710937 0.01757812 2.203125 C-0.92021484 1.88730469 -1.85800781 1.57148437 -2.82421875 1.24609375 C-3.68829346 0.95283203 -4.55236816 0.65957031 -5.44262695 0.35742188 C-10.47467284 -1.06808074 -13.25315522 0.99398984 -17.3984375 3.58984375 Z " fill="#2B2A25" transform="translate(64.7109375,46.28515625)"/>
<path d="M0 0 C0.66 0.99 1.32 1.98 2 3 C1.01 3 0.02 3 -1 3 C-1 3.66 -1 4.32 -1 5 C-2.32 5 -3.64 5 -5 5 C-4.34 6.65 -3.68 8.3 -3 10 C-3.99 10.33 -4.98 10.66 -6 11 C-6 10.34 -6 9.68 -6 9 C-6.66 8.67 -7.32 8.34 -8 8 C-8 8.99 -8 9.98 -8 11 C-9.32 11 -10.64 11 -12 11 C-12 11.66 -12 12.32 -12 13 C-10.68 12.67 -9.36 12.34 -8 12 C-8.99 13.485 -8.99 13.485 -10 15 C-15.46479849 13.46602148 -19.9781808 10.88493047 -24.8125 8 C-25.58787109 7.54882812 -26.36324219 7.09765625 -27.16210938 6.6328125 C-32.87211762 3.25576475 -32.87211762 3.25576475 -34 1 C-28.30318755 1.7439867 -24.02600446 4.72294596 -19.15625 7.6015625 C-16.18777466 9.1796578 -16.18777466 9.1796578 -13.45703125 8.96484375 C-10.29247391 7.72216384 -7.89323825 5.99125313 -5.1875 3.9375 C-4.21167969 3.20402344 -3.23585938 2.47054687 -2.23046875 1.71484375 C-1.12638672 0.86599609 -1.12638672 0.86599609 0 0 Z " fill="#1F1E19" transform="translate(75,56)"/>
<path d="M0 0 C1.485 0.99 1.485 0.99 3 2 C3 2.66 3 3.32 3 4 C3.66 4.33 4.32 4.66 5 5 C5.33 5.99 5.66 6.98 6 8 C7.75376928 9.41693801 7.75376928 9.41693801 9.875 10.625 C10.57367188 11.05039063 11.27234375 11.47578125 11.9921875 11.9140625 C15.85839037 14.00512164 19.36003746 14.26257685 23.6875 14.5625 C24.86699219 14.64628906 26.04648438 14.73007813 27.26171875 14.81640625 C28.16535156 14.87699219 29.06898437 14.93757813 30 15 C30 15.33 30 15.66 30 16 C26.7 16 23.4 16 20 16 C20 16.66 20 17.32 20 18 C12.67873264 17.61467014 5.7333619 13.24323378 0.8125 7.9375 C-1 5 -1 5 -0.8125 2.125 C-0.544375 1.42375 -0.27625 0.7225 0 0 Z " fill="#DBE9EF" transform="translate(39,69)"/>
<path d="M0 0 C2.31 0 4.62 0 7 0 C2.85989729 4.54075781 -1.82390176 7.71842138 -7 11 C-7.66 9.68 -8.32 8.36 -9 7 C-7.68 7 -6.36 7 -5 7 C-5 6.34 -5 5.68 -5 5 C-4.34 4.67 -3.68 4.34 -3 4 C-2.67 3.01 -2.34 2.02 -2 1 C-1.34 1.33 -0.68 1.66 0 2 C0 1.34 0 0.68 0 0 Z " fill="#514F49" transform="translate(79,54)"/>
<path d="M0 0 C8.92981438 -0.46321804 15.97331823 -0.1428035 24 4 C23.01 4.99 22.02 5.98 21 7 C20.154375 6.505 19.30875 6.01 18.4375 5.5 C14.66203168 3.85252292 12.07182452 3.75569053 8 4 C7.67 3.34 7.34 2.68 7 2 C4.67843403 1.59270772 2.3431213 1.25561323 0 1 C0 0.67 0 0.34 0 0 Z " fill="#D9E4EA" transform="translate(57,26)"/>
<path d="M0 0 C6.62842427 0.28819236 11.78452788 2.92868996 17 7 C18.29296875 9.19921875 18.29296875 9.19921875 19 11 C18.01 11.66 17.02 12.32 16 13 C15.59910156 12.46890625 15.19820312 11.9378125 14.78515625 11.390625 C10.46059795 6.01679746 6.51165043 3.24437838 0 1 C0 0.67 0 0.34 0 0 Z " fill="#4BBBDF" transform="translate(67,29)"/>
<path d="M0 0 C0.66 0.99 1.32 1.98 2 3 C1.01 3 0.02 3 -1 3 C-1 3.66 -1 4.32 -1 5 C-2.32 5 -3.64 5 -5 5 C-4.34 6.65 -3.68 8.3 -3 10 C-3.99 10.33 -4.98 10.66 -6 11 C-6 10.34 -6 9.68 -6 9 C-6.66 8.67 -7.32 8.34 -8 8 C-8 8.99 -8 9.98 -8 11 C-9.32 10.67 -10.64 10.34 -12 10 C-8.29909479 6.0747975 -4.45040344 3.05419844 0 0 Z " fill="#161613" transform="translate(75,56)"/>
<path d="M0 0 C2.22677693 1.11338847 4.33680545 2.21590093 6.4375 3.5625 C11.80544989 5.72851487 17.25946458 5.75300367 23 6 C23 6.33 23 6.66 23 7 C19.37 7 15.74 7 12 7 C12 7.66 12 8.32 12 9 C7.50985376 7.50328459 3.52151236 5.16631659 0 2 C0 1.34 0 0.68 0 0 Z " fill="#59BFE0" transform="translate(43,74)"/>
<path d="M0 0 C0.66 0.66 1.32 1.32 2 2 C1.01 2.495 1.01 2.495 0 3 C0 4.32 0 5.64 0 7 C0.66 7.33 1.32 7.66 2 8 C1.01 8.33 0.02 8.66 -1 9 C-4.1875 7.0625 -4.1875 7.0625 -7 5 C-4.87219421 2.65941363 -2.88437779 1.29299694 0 0 Z " fill="#3C3A34" transform="translate(41,49)"/>
<path d="M0 0 C0.88751953 0.30744141 0.88751953 0.30744141 1.79296875 0.62109375 C5.83660816 1.9997571 9.76855249 3.31750847 14 4 C14 4.33 14 4.66 14 5 C7.79029227 5.33266291 3.71735105 4.45029331 -2 2 C-1.34 1.34 -0.68 0.68 0 0 Z " fill="#5F819B" transform="translate(47,83)"/>
<path d="M0 0 C0.66 0.66 1.32 1.32 2 2 C1.67 2.66 1.34 3.32 1 4 C2.32 3.67 3.64 3.34 5 3 C4.01 4.485 4.01 4.485 3 6 C-2.75 4.125 -2.75 4.125 -5 3 C-5 2.34 -5 1.68 -5 1 C-2.625 0.375 -2.625 0.375 0 0 Z " fill="#272621" transform="translate(62,65)"/>
<path d="M0 0 C5.75 0.75 5.75 0.75 8 3 C7.01 3.66 6.02 4.32 5 5 C3.02 4.01 1.04 3.02 -1 2 C-0.67 1.34 -0.34 0.68 0 0 Z " fill="#E4EEF2" transform="translate(73,28)"/>
<path d="M0 0 C2.125 -0.375 2.125 -0.375 5 0 C7.23913252 1.79340357 9.12454539 3.83452663 11 6 C10.67 6.66 10.34 7.32 10 8 C8.70684939 7.04367001 7.41553147 6.08486149 6.125 5.125 C5.40570313 4.59132813 4.68640625 4.05765625 3.9453125 3.5078125 C2 2 2 2 0 0 Z " fill="#416B8C" transform="translate(77,28)"/>
<path d="M0 0 C4.62 0 9.24 0 14 0 C14 0.33 14 0.66 14 1 C10.7 1 7.4 1 4 1 C4 1.66 4 2.32 4 3 C2.68 2.67 1.36 2.34 0 2 C0 1.34 0 0.68 0 0 Z " fill="#CEE7F0" transform="translate(55,84)"/>
<path d="M0 0 C0.99 0.33 1.98 0.66 3 1 C2 4 2 4 -0.0625 5.1875 C-0.701875 5.455625 -1.34125 5.72375 -2 6 C-2.66 4.68 -3.32 3.36 -4 2 C-2.68 2 -1.36 2 0 2 C0 1.34 0 0.68 0 0 Z " fill="#75736D" transform="translate(74,59)"/>
<path d="M0 0 C-2.39509338 2.89932357 -4.31245243 3.50168276 -8 4 C-8.33 3.34 -8.66 2.68 -9 2 C-3.375 -1.125 -3.375 -1.125 0 0 Z " fill="#5C5951" transform="translate(53,45)"/>
<path d="M0 0 C2.31 0.66 4.62 1.32 7 2 C6.67 2.99 6.34 3.98 6 5 C4.02 4.34 2.04 3.68 0 3 C0 2.01 0 1.02 0 0 Z " fill="#EDF2F5" transform="translate(49,81)"/>
<path d="M0 0 C2.31 0.33 4.62 0.66 7 1 C7.33 1.99 7.66 2.98 8 4 C4.31245243 3.50168276 2.39509338 2.89932357 0 0 Z " fill="#295D83" transform="translate(39,80)"/>
</svg>
