<?xml version="1.0" encoding="UTF-8"?>
<svg version="1.1" xmlns="http://www.w3.org/2000/svg" width="120" height="120">
<path d="M0 0 C39.6 0 79.2 0 120 0 C120 39.6 120 79.2 120 120 C80.4 120 40.8 120 0 120 C0 80.4 0 40.8 0 0 Z " fill="#FEFEFE" transform="translate(0,0)"/>
<path d="M0 0 C2.26003559 1.90123432 4.07658914 3.74686157 6 6 C5.67 6.66 5.34 7.32 5 8 C2.525 6.02 2.525 6.02 0 4 C-0.66 4.33 -1.32 4.66 -2 5 C-1.113125 5.639375 -0.22625 6.27875 0.6875 6.9375 C6.25520525 11.55526502 9.54197073 18.29956844 10.23828125 25.4453125 C10.47475955 33.98342387 8.50840197 40.20156273 3.8125 47.3125 C0.22258512 50.74286311 -3.56364506 52.83492807 -8 55 C-8.804375 55.433125 -9.60875 55.86625 -10.4375 56.3125 C-14.57479704 57.42250652 -18.74310372 57.14878472 -23 57 C-23 57.66 -23 58.32 -23 59 C-22.01 59.495 -22.01 59.495 -21 60 C-30.1491565 60.6653932 -37.02481475 57.40562496 -44.1484375 51.7578125 C-51.47660536 44.80069111 -55.07145882 35.97891642 -55.375 26 C-55.09373443 16.76511377 -52.32643627 9.76749501 -46 3 C-32.43743385 -9.74523637 -15.33186079 -10.84924047 0 0 Z " fill="#F7F9FA" transform="translate(82,28)"/>
<path d="M0 0 C1.30904297 -0.01740234 1.30904297 -0.01740234 2.64453125 -0.03515625 C8.22767662 -0.00996913 12.19151665 0.7209926 17.125 3.375 C20.93377644 7.56465409 21.00656169 12.93529764 21.125 18.375 C20.7334453 24.7665547 20.7334453 24.7665547 19.125 26.375 C17.45882885 26.41563832 15.79111905 26.417721 14.125 26.375 C13.63 24.89 13.63 24.89 13.125 23.375 C10.815 23.375 8.505 23.375 6.125 23.375 C5.63 24.86 5.63 24.86 5.125 26.375 C2.485 26.375 -0.155 26.375 -2.875 26.375 C-2.545 25.055 -2.215 23.735 -1.875 22.375 C-9.465 22.375 -17.055 22.375 -24.875 22.375 C-25.205 23.365 -25.535 24.355 -25.875 25.375 C-26.79850727 22.60447819 -27.03829585 20.80811242 -27.0625 17.9375 C-27.07667969 17.17566406 -27.09085938 16.41382812 -27.10546875 15.62890625 C-26.85112666 13.14152685 -26.11517196 11.52691894 -24.875 9.375 C-22.875 10.375 -22.875 10.375 -20.875 12.375 C-17.98276497 12.83896693 -17.98276497 12.83896693 -14.75 13 C-13.10644531 13.11214844 -13.10644531 13.11214844 -11.4296875 13.2265625 C-10.58664063 13.27554688 -9.74359375 13.32453125 -8.875 13.375 C-8.875 12.715 -8.875 12.055 -8.875 11.375 C-7.740625 11.230625 -6.60625 11.08625 -5.4375 10.9375 C-2.06722799 10.76328522 -2.06722799 10.76328522 -0.875 9.375 C-5.825 9.045 -10.775 8.715 -15.875 8.375 C-15.875 8.045 -15.875 7.715 -15.875 7.375 C-9.275 7.375 -2.675 7.375 4.125 7.375 C4.455 5.725 4.785 4.075 5.125 2.375 C4.361875 2.54 3.59875 2.705 2.8125 2.875 C-2.09897648 3.54096291 -6.92736287 3.44490382 -11.875 3.375 C-12.865 3.375 -13.855 3.375 -14.875 3.375 C-10.14720858 -0.33268705 -5.7373521 -0.075602 0 0 Z " fill="#E4E4E4" transform="translate(62.875,41.625)"/>
<path d="M0 0 C2.26003559 1.90123432 4.07658914 3.74686157 6 6 C5.67 6.66 5.34 7.32 5 8 C4.5153125 7.60167969 4.030625 7.20335937 3.53125 6.79296875 C-5.61783569 -0.43832783 -13.24072253 -2.18807855 -25 -1 C-32.69493597 0.92660096 -38.85944936 5.87612161 -43.609375 12.11328125 C-48.43771189 20.18311397 -48.43240308 30.07228939 -46.265625 39.0390625 C-42.75850881 48.55427117 -37.87698987 52.45646283 -28.9375 56.80078125 C-26.26107645 57.89341693 -23.84702299 58.55515266 -21 59 C-21 59.33 -21 59.66 -21 60 C-30.1491565 60.6653932 -37.02481475 57.40562496 -44.1484375 51.7578125 C-51.47660536 44.80069111 -55.07145882 35.97891642 -55.375 26 C-55.09373443 16.76511377 -52.32643627 9.76749501 -46 3 C-32.43743385 -9.74523637 -15.33186079 -10.84924047 0 0 Z " fill="#1E5680" transform="translate(82,28)"/>
<path d="M0 0 C7.59 0 15.18 0 23 0 C23 0.99 23 1.98 23 3 C25.31 3 27.62 3 30 3 C30.33 2.34 30.66 1.68 31 1 C33.31 1 35.62 1 38 1 C38.495 1.99 38.495 1.99 39 3 C40.98 3 42.96 3 45 3 C42.67246829 8.71303238 38.08088973 12.69975146 32.57421875 15.26953125 C25.98763515 17.1385618 17.14651389 17.67353863 10.9375 14.375 C7.66639727 11.73027864 4.80091921 9.14249473 2 6 C2 5.34 2 4.68 2 4 C1.34 3.67 0.68 3.34 0 3 C0 2.01 0 1.02 0 0 Z " fill="#FBFCFD" transform="translate(38,64)"/>
<path d="M0 0 C6.71393813 0.29191035 11.74717807 2.84620342 17 7 C23.03955912 13.94487291 25.50317823 20.96926675 25.31640625 30.12109375 C24.50967798 37.46132506 21.33355559 43.90349133 16 49 C7.13987691 54.75048553 -0.57038143 55.79391257 -11 55 C-14.0668794 54.10722817 -16.42307576 52.86604859 -19 51 C-20.485 49.948125 -20.485 49.948125 -22 48.875 C-22.66 48.25625 -23.32 47.6375 -24 47 C-24 46.34 -24 45.68 -24 45 C-21.73156035 46.13421982 -19.51253373 47.28057652 -17.3125 48.546875 C-11.00512541 51.31378932 -2.89810279 51.27636994 3.6484375 49.1328125 C5.989785 47.98197081 5.989785 47.98197081 9 46 C9.99 45.67 10.98 45.34 12 45 C13.12047942 43.16610178 13.12047942 43.16610178 14 41 C14.34160156 40.34 14.68320313 39.68 15.03515625 39 C15.37417969 38.34 15.71320313 37.68 16.0625 37 C16.40410156 36.34 16.74570313 35.68 17.09765625 35 C19.63778523 29.36993056 20.09761504 23.27315694 18.12890625 17.40234375 C14.77878401 10.11994688 10.42733608 5.35362511 3.0625 2.125 C2.051875 1.75375 1.04125 1.3825 0 1 C0 0.67 0 0.34 0 0 Z " fill="#2BB4E1" transform="translate(67,29)"/>
<path d="M0 0 C2 1 2 1 4 3 C6.89223503 3.46396693 6.89223503 3.46396693 10.125 3.625 C11.76855469 3.73714844 11.76855469 3.73714844 13.4453125 3.8515625 C14.70988281 3.92503906 14.70988281 3.92503906 16 4 C16.33 3.34 16.66 2.68 17 2 C19.31 2.33 21.62 2.66 24 3 C24 3.33 24 3.66 24 4 C22.35 4.33 20.7 4.66 19 5 C21.31 5 23.62 5 26 5 C25.34 6.98 24.68 8.96 24 11 C17.07 11 10.14 11 3 11 C3 10.34 3 9.68 3 9 C7.29 9 11.58 9 16 9 C15.67 7.68 15.34 6.36 15 5 C11.04 5 7.08 5 3 5 C2.67 5.66 2.34 6.32 2 7 C2 6.34 2 5.68 2 5 C1.34 5.66 0.68 6.32 0 7 C0 8.32 0 9.64 0 11 C7.92 11.33 15.84 11.66 24 12 C24 13.32 24 14.64 24 16 C24.61875 15.79375 25.2375 15.5875 25.875 15.375 C26.926875 15.189375 26.926875 15.189375 28 15 C28.66 15.66 29.32 16.32 30 17 C27.36 17 24.72 17 22 17 C22.33 15.68 22.66 14.36 23 13 C15.41 13 7.82 13 0 13 C-0.33 13.99 -0.66 14.98 -1 16 C-1.92350727 13.22947819 -2.16329585 11.43311242 -2.1875 8.5625 C-2.20167969 7.80066406 -2.21585938 7.03882813 -2.23046875 6.25390625 C-1.97612666 3.76652685 -1.24017196 2.15191894 0 0 Z " fill="#F3F3F3" transform="translate(38,51)"/>
<path d="M0 0 C1.30904297 -0.01740234 1.30904297 -0.01740234 2.64453125 -0.03515625 C9.01545813 -0.00641523 14.41940812 0.66940812 19.125 5.375 C18.795 6.365 18.465 7.355 18.125 8.375 C18.125 7.715 18.125 7.055 18.125 6.375 C16.805 6.375 15.485 6.375 14.125 6.375 C14.125 5.385 14.125 4.395 14.125 3.375 C13.135 3.375 12.145 3.375 11.125 3.375 C10.795 4.035 10.465 4.695 10.125 5.375 C10.125 4.715 10.125 4.055 10.125 3.375 C9.135 3.375 8.145 3.375 7.125 3.375 C7.00125 4.674375 6.8775 5.97375 6.75 7.3125 C6.5390625 9.52734375 6.5390625 9.52734375 6.125 11.375 C5.135 11.87 5.135 11.87 4.125 12.375 C3.465 11.715 2.805 11.055 2.125 10.375 C3.115 10.375 4.105 10.375 5.125 10.375 C5.125 9.715 5.125 9.055 5.125 8.375 C4.47144531 8.54902344 3.81789063 8.72304688 3.14453125 8.90234375 C-0.68719707 9.50213563 -4.3446844 9.23627119 -8.1875 8.9375 C-8.92806641 8.88529297 -9.66863281 8.83308594 -10.43164062 8.77929688 C-12.24652709 8.65049848 -14.06083325 8.51356738 -15.875 8.375 C-15.875 8.045 -15.875 7.715 -15.875 7.375 C-9.275 7.375 -2.675 7.375 4.125 7.375 C4.455 5.725 4.785 4.075 5.125 2.375 C4.361875 2.54 3.59875 2.705 2.8125 2.875 C-2.09897648 3.54096291 -6.92736287 3.44490382 -11.875 3.375 C-12.865 3.375 -13.855 3.375 -14.875 3.375 C-10.14720858 -0.33268705 -5.7373521 -0.075602 0 0 Z " fill="#B0B0B0" transform="translate(62.875,41.625)"/>
<path d="M0 0 C0.33 0.99 0.66 1.98 1 3 C3.97 3 6.94 3 10 3 C10 3.33 10 3.66 10 4 C8.02 4 6.04 4 4 4 C4.639375 4.928125 5.27875 5.85625 5.9375 6.8125 C8 10 8 10 9 13 C10.75376928 14.41693801 10.75376928 14.41693801 12.875 15.625 C13.57367188 16.05039063 14.27234375 16.47578125 14.9921875 16.9140625 C18.85839037 19.00512164 22.36003746 19.26257685 26.6875 19.5625 C27.86699219 19.64628906 29.04648438 19.73007813 30.26171875 19.81640625 C31.61716797 19.90728516 31.61716797 19.90728516 33 20 C33 20.33 33 20.66 33 21 C29.7 21 26.4 21 23 21 C23 21.66 23 22.32 23 23 C16.0863993 22.63612628 9.77174578 18.95917941 5.09375 13.96484375 C2.69730384 10.82244498 0.57186023 7.63773367 -1 4 C-0.625 1.75 -0.625 1.75 0 0 Z " fill="#E8EFF3" transform="translate(36,64)"/>
<path d="M0 0 C4.95 0 9.9 0 15 0 C15.33 1.32 15.66 2.64 16 4 C11.71 4 7.42 4 3 4 C3 4.66 3 5.32 3 6 C9.93 6 16.86 6 24 6 C24 6.33 24 6.66 24 7 C16.08 7 8.16 7 0 7 C-1 2 -1 2 0 0 Z " fill="#FDFDFD" transform="translate(38,56)"/>
<path d="M0 0 C1.16885742 0.0918457 1.16885742 0.0918457 2.36132812 0.18554688 C4.26303159 0.33721648 6.1630186 0.51015809 8.0625 0.6875 C7.0725 2.1725 7.0725 2.1725 6.0625 3.6875 C2.4375 3.875 2.4375 3.875 -0.9375 3.6875 C-0.9375 4.3475 -0.9375 5.0075 -0.9375 5.6875 C-2.87431161 5.76857583 -4.8120934 5.82672475 -6.75 5.875 C-7.82894531 5.90980469 -8.90789063 5.94460937 -10.01953125 5.98046875 C-12.9375 5.6875 -12.9375 5.6875 -14.82421875 4.17578125 C-15.37529297 3.43908203 -15.37529297 3.43908203 -15.9375 2.6875 C-10.28405646 -0.23307043 -6.27579097 -0.60768156 0 0 Z " fill="#F1F1F1" transform="translate(54.9375,49.3125)"/>
<path d="M0 0 C2 1 2 1 4 3 C6.89223503 3.46396693 6.89223503 3.46396693 10.125 3.625 C11.76855469 3.73714844 11.76855469 3.73714844 13.4453125 3.8515625 C14.70988281 3.92503906 14.70988281 3.92503906 16 4 C15.67 4.99 15.34 5.98 15 7 C15 6.34 15 5.68 15 5 C11.04 5 7.08 5 3 5 C2.67 5.66 2.34 6.32 2 7 C2 6.34 2 5.68 2 5 C1.34 5.66 0.68 6.32 0 7 C0 8.32 0 9.64 0 11 C7.92 11.33 15.84 11.66 24 12 C24 13.32 24 14.64 24 16 C24.61875 15.79375 25.2375 15.5875 25.875 15.375 C26.926875 15.189375 26.926875 15.189375 28 15 C28.66 15.66 29.32 16.32 30 17 C27.36 17 24.72 17 22 17 C22.33 15.68 22.66 14.36 23 13 C15.41 13 7.82 13 0 13 C-0.33 13.99 -0.66 14.98 -1 16 C-1.92350727 13.22947819 -2.16329585 11.43311242 -2.1875 8.5625 C-2.20167969 7.80066406 -2.21585938 7.03882813 -2.23046875 6.25390625 C-1.97612666 3.76652685 -1.24017196 2.15191894 0 0 Z " fill="#999999" transform="translate(38,51)"/>
<path d="M0 0 C0.75732422 0.00644531 1.51464844 0.01289062 2.29492188 0.01953125 C3.08060547 0.03628906 3.86628906 0.05304687 4.67578125 0.0703125 C5.47306641 0.07933594 6.27035156 0.08835938 7.09179688 0.09765625 C9.05742025 0.12119665 11.022889 0.15706703 12.98828125 0.1953125 C12.65828125 1.8453125 12.32828125 3.4953125 11.98828125 5.1953125 C5.38828125 5.1953125 -1.21171875 5.1953125 -8.01171875 5.1953125 C-6.54204778 0.78629959 -4.36399395 -0.06562397 0 0 Z " fill="#FEFEFE" transform="translate(55.01171875,43.8046875)"/>
<path d="M0 0 C8.92981438 -0.46321804 15.97331823 -0.1428035 24 4 C23.01 4.99 22.02 5.98 21 7 C20.195625 6.505 19.39125 6.01 18.5625 5.5 C14.17997546 3.65472651 10.67684769 3.71938914 6 4 C5.67 3.34 5.34 2.68 5 2 C2.47266765 1.34444881 2.47266765 1.34444881 0 1 C0 0.67 0 0.34 0 0 Z " fill="#DAE5EA" transform="translate(57,26)"/>
<path d="M0 0 C2.14699969 3.44175522 2.09856795 5.7720292 1.625 9.75 C1.45871094 11.22726563 1.45871094 11.22726563 1.2890625 12.734375 C1.14597656 13.85585937 1.14597656 13.85585937 1 15 C0.67 15 0.34 15 0 15 C-0.33 13.02 -0.66 11.04 -1 9 C-1.99 10.32 -2.98 11.64 -4 13 C-5.65 12.67 -7.3 12.34 -9 12 C-7.68 11.67 -6.36 11.34 -5 11 C-4.7834375 9.576875 -4.7834375 9.576875 -4.5625 8.125 C-4 5 -4 5 -3 3 C-2.01 3 -1.02 3 0 3 C0 2.01 0 1.02 0 0 Z " fill="#9E9E9E" transform="translate(82,51)"/>
<path d="M0 0 C6.62842427 0.28819236 11.78452788 2.92868996 17 7 C18.29296875 9.19921875 18.29296875 9.19921875 19 11 C18.01 11.66 17.02 12.32 16 13 C15.59910156 12.46890625 15.19820312 11.9378125 14.78515625 11.390625 C10.46059795 6.01679746 6.51165043 3.24437838 0 1 C0 0.67 0 0.34 0 0 Z " fill="#4BBBDF" transform="translate(67,29)"/>
<path d="M0 0 C3.02138567 -0.08149592 6.04053905 -0.14073421 9.0625 -0.1875 C9.91005859 -0.21263672 10.75761719 -0.23777344 11.63085938 -0.26367188 C17.2276725 -0.32849983 21.04873947 0.34087048 26 3 C26.66 3.66 27.32 4.32 28 5 C27.67 5.99 27.34 6.98 27 8 C27 7.34 27 6.68 27 6 C25.68 6 24.36 6 23 6 C23 5.01 23 4.02 23 3 C22.01 3 21.02 3 20 3 C19.67 3.66 19.34 4.32 19 5 C19 4.34 19 3.68 19 3 C15.28720531 1.76240177 11.68693654 1.64391103 7.8125 1.4375 C7.06291016 1.39431641 6.31332031 1.35113281 5.54101562 1.30664062 C3.69421625 1.20077315 1.84713166 1.0999024 0 1 C0 0.67 0 0.34 0 0 Z " fill="#999999" transform="translate(54,42)"/>
<path d="M0 0 C1.65 0.33 3.3 0.66 5 1 C5 1.66 5 2.32 5 3 C5.66 3 6.32 3 7 3 C7 3.66 7 4.32 7 5 C7.66 5.33 8.32 5.66 9 6 C8.01 6 7.02 6 6 6 C6 6.66 6 7.32 6 8 C4.68 7.34 3.36 6.68 2 6 C1.67 7.32 1.34 8.64 1 10 C0.63720544 8.71073008 0.28503302 7.41846728 -0.0625 6.125 C-0.35833984 5.04605469 -0.35833984 5.04605469 -0.66015625 3.9453125 C-1 2 -1 2 0 0 Z " fill="#D6D6D6" transform="translate(74,45)"/>
<path d="M0 0 C0.33 0.99 0.66 1.98 1 3 C3.97 3 6.94 3 10 3 C10 3.33 10 3.66 10 4 C8.02 4 6.04 4 4 4 C5.98 6.97 5.98 6.97 8 10 C6 10 4 10 2 10 C-1.07692308 4.58461538 -1.07692308 4.58461538 -0.6875 1.625 C-0.460625 1.08875 -0.23375 0.5525 0 0 Z " fill="#CAD7DC" transform="translate(36,64)"/>
<path d="M0 0 C0.33 0.66 0.66 1.32 1 2 C1.66 2 2.32 2 3 2 C3 1.34 3 0.68 3 0 C3.99 0 4.98 0 6 0 C6 0.99 6 1.98 6 3 C2.23699626 4.25433458 -1.27210909 4.10695422 -5.1875 4.0625 C-5.93708984 4.05798828 -6.68667969 4.05347656 -7.45898438 4.04882812 C-9.30602383 4.03706354 -11.15302213 4.01912865 -13 4 C-13 3.34 -13 2.68 -13 2 C-8.71 2 -4.42 2 0 2 C0 1.34 0 0.68 0 0 Z " fill="#A6A6A6" transform="translate(54,58)"/>
<path d="M0 0 C2.22677693 1.11338847 4.33680545 2.21590093 6.4375 3.5625 C11.80544989 5.72851487 17.25946458 5.75300367 23 6 C23 6.33 23 6.66 23 7 C19.37 7 15.74 7 12 7 C12 7.66 12 8.32 12 9 C7.50985376 7.50328459 3.52151236 5.16631659 0 2 C0 1.34 0 0.68 0 0 Z " fill="#59BFE0" transform="translate(43,74)"/>
<path d="M0 0 C0.99 0.33 1.98 0.66 3 1 C3.33 2.98 3.66 4.96 4 7 C3.01 7 2.02 7 1 7 C1.99 8.485 1.99 8.485 3 10 C1.02 10 -0.96 10 -3 10 C-2.39009109 6.44219804 -1.4216319 3.3171411 0 0 Z " fill="#E5E5E5" transform="translate(65,57)"/>
<path d="M0 0 C3.96 0 7.92 0 12 0 C12.33 1.32 12.66 2.64 13 4 C8.38 4 3.76 4 -1 4 C0.32 3.34 1.64 2.68 3 2 C2.01 1.34 1.02 0.68 0 0 Z " fill="#FEFEFE" transform="translate(41,56)"/>
<path d="M0 0 C0.83595703 0.06123047 1.67191406 0.12246094 2.53320312 0.18554688 C4.58579176 0.33802489 6.63685823 0.51075725 8.6875 0.6875 C6.6875 2.6875 6.6875 2.6875 4.85571289 2.91455078 C3.76891235 2.89884033 3.76891235 2.89884033 2.66015625 2.8828125 C1.47196289 2.87314453 1.47196289 2.87314453 0.25976562 2.86328125 C-0.56845703 2.84652344 -1.39667969 2.82976563 -2.25 2.8125 C-3.07435547 2.80347656 -3.89871094 2.79445312 -4.74804688 2.78515625 C-6.28252878 2.76770479 -7.81697327 2.74615363 -9.35131836 2.71923828 C-11.0048629 2.69247857 -12.65873895 2.6875 -14.3125 2.6875 C-9.61013026 -1.03800271 -5.65272709 -0.50415009 0 0 Z " fill="#D1D1D1" transform="translate(62.3125,42.3125)"/>
<path d="M0 0 C0.99 0.33 1.98 0.66 3 1 C3.33 0.67 3.66 0.34 4 0 C4.66 0 5.32 0 6 0 C6 0.99 6 1.98 6 3 C5.01 3 4.02 3 3 3 C2.34 5.64 1.68 8.28 1 11 C0.34 11 -0.32 11 -1 11 C-0.67 7.37 -0.34 3.74 0 0 Z " fill="#FBFBFB" transform="translate(76,51)"/>
<path d="M0 0 C3.3 0 6.6 0 10 0 C9.67 0.99 9.34 1.98 9 3 C6.03 3 3.06 3 0 3 C0 2.01 0 1.02 0 0 Z " fill="#EFEFEF" transform="translate(38,64)"/>
<path d="M0 0 C2.77867692 2.77867692 2.65193902 5.1713292 3 9 C2 10 2 10 -0.5625 10.0625 C-1.366875 10.041875 -2.17125 10.02125 -3 10 C-2.34 9.67 -1.68 9.34 -1 9 C-1.020625 7.88625 -1.04125 6.7725 -1.0625 5.625 C-1 2 -1 2 0 0 Z " fill="#CDCDCD" transform="translate(80,58)"/>
<path d="M0 0 C0.88751953 0.30744141 0.88751953 0.30744141 1.79296875 0.62109375 C5.83660816 1.9997571 9.76855249 3.31750847 14 4 C14 4.33 14 4.66 14 5 C7.79029227 5.33266291 3.71735105 4.45029331 -2 2 C-1.34 1.34 -0.68 0.68 0 0 Z " fill="#5F819B" transform="translate(47,83)"/>
<path d="M0 0 C0.99 0.33 1.98 0.66 3 1 C4.72795352 1.06802967 6.45835365 1.08495645 8.1875 1.0625 C9.08855469 1.05347656 9.98960938 1.04445312 10.91796875 1.03515625 C11.94857422 1.01775391 11.94857422 1.01775391 13 1 C13 1.33 13 1.66 13 2 C11.98679687 2.19916016 11.98679687 2.19916016 10.953125 2.40234375 C9.61507812 2.66724609 9.61507812 2.66724609 8.25 2.9375 C7.36828125 3.11152344 6.4865625 3.28554688 5.578125 3.46484375 C3.36764947 3.92368488 1.18487932 4.43336074 -1 5 C-0.67 3.35 -0.34 1.7 0 0 Z " fill="#DBDBDB" transform="translate(38,56)"/>
<path d="M0 0 C0.99 0.495 0.99 0.495 2 1 C2 2.65 2 4.3 2 6 C4.64 6.33 7.28 6.66 10 7 C10 7.33 10 7.66 10 8 C7.36 8 4.72 8 2 8 C1.67 8.99 1.34 9.98 1 11 C-0.28317892 7.15046324 -0.06643637 4.05261865 0 0 Z " fill="#898989" transform="translate(36,56)"/>
<path d="M0 0 C0.33 0 0.66 0 1 0 C1.22151549 1.79008467 1.42682213 3.58218162 1.625 5.375 C1.74101563 6.37273438 1.85703125 7.37046875 1.9765625 8.3984375 C1.98429687 9.25695313 1.99203125 10.11546875 2 11 C1.34 11.66 0.68 12.32 0 13 C-1.32 12.01 -2.64 11.02 -4 10 C-2.68 9.67 -1.36 9.34 0 9 C0 7.35 0 5.7 0 4 C-0.66 3.67 -1.32 3.34 -2 3 C-1.34 3 -0.68 3 0 3 C0 2.01 0 1.02 0 0 Z " fill="#B2B2B2" transform="translate(68,54)"/>
<path d="M0 0 C0.99 0 1.98 0 3 0 C3.33 1.98 3.66 3.96 4 6 C2.35 5.67 0.7 5.34 -1 5 C-0.67 3.35 -0.34 1.7 0 0 Z " fill="#FAFAFA" transform="translate(70,45)"/>
<path d="M0 0 C5.75 0.75 5.75 0.75 8 3 C7.01 3.66 6.02 4.32 5 5 C3.02 4.01 1.04 3.02 -1 2 C-0.67 1.34 -0.34 0.68 0 0 Z " fill="#E4EEF2" transform="translate(73,28)"/>
<path d="M0 0 C2.125 -0.375 2.125 -0.375 5 0 C7.23913252 1.79340357 9.12454539 3.83452663 11 6 C10.67 6.66 10.34 7.32 10 8 C8.70684939 7.04367001 7.41553147 6.08486149 6.125 5.125 C5.40570313 4.59132813 4.68640625 4.05765625 3.9453125 3.5078125 C2 2 2 2 0 0 Z " fill="#416B8C" transform="translate(77,28)"/>
<path d="M0 0 C4.62 0 9.24 0 14 0 C14 0.33 14 0.66 14 1 C10.7 1 7.4 1 4 1 C4 1.66 4 2.32 4 3 C2.68 2.67 1.36 2.34 0 2 C0 1.34 0 0.68 0 0 Z " fill="#CEE7F0" transform="translate(55,84)"/>
<path d="M0 0 C0.99 0.66 1.98 1.32 3 2 C2.34 3.98 1.68 5.96 1 8 C-1.97 7.505 -1.97 7.505 -5 7 C-3.68 6.67 -2.36 6.34 -1 6 C-0.67 4.02 -0.34 2.04 0 0 Z " fill="#949494" transform="translate(78,56)"/>
<path d="M0 0 C2.31 0.33 4.62 0.66 7 1 C7.33 1.99 7.66 2.98 8 4 C4.31245243 3.50168276 2.39509338 2.89932357 0 0 Z " fill="#295D83" transform="translate(39,80)"/>
</svg>
