<?xml version="1.0" encoding="UTF-8"?>
<svg version="1.1" xmlns="http://www.w3.org/2000/svg" width="120" height="120">
<path d="M0 0 C39.6 0 79.2 0 120 0 C120 39.6 120 79.2 120 120 C80.4 120 40.8 120 0 120 C0 80.4 0 40.8 0 0 Z " fill="#FEFEFE" transform="translate(0,0)"/>
<path d="M0 0 C2.26003559 1.90123432 4.07658914 3.74686157 6 6 C5.67 6.66 5.34 7.32 5 8 C4.5153125 7.60167969 4.030625 7.20335937 3.53125 6.79296875 C-5.61783569 -0.43832783 -13.24072253 -2.18807855 -25 -1 C-33.42044946 1.10824964 -40.46377736 6.93597811 -45 14.25 C-48.53833165 21.84735424 -47.37732683 30.83297037 -47 39 C-46.34 39 -45.68 39 -45 39 C-44.78601562 38.28714844 -44.57203125 37.57429688 -44.3515625 36.83984375 C-42.66753723 33.30144384 -40.27183742 31.09901432 -37.375 28.5625 C-36.83810547 28.08240479 -36.30121094 27.60230957 -35.74804688 27.10766602 C-22.06984478 15 -22.06984478 15 -16 15 C-17.41688163 18.25909781 -19.10974322 20.30126054 -21.703125 22.71484375 C-22.80333984 23.74448242 -22.80333984 23.74448242 -23.92578125 24.79492188 C-24.69277344 25.50197266 -25.45976563 26.20902344 -26.25 26.9375 C-27.00152344 27.64068359 -27.75304687 28.34386719 -28.52734375 29.06835938 C-32.58454776 32.84587829 -36.7001491 36.50123597 -41 40 C-40.1028125 39.7525 -40.1028125 39.7525 -39.1875 39.5 C-37 39 -37 39 -34 39 C-35.32 40.32 -36.64 41.64 -38 43 C-37.34 43.33 -36.68 43.66 -36 44 C-36 44.66 -36 45.32 -36 46 C-30.93793398 43.35973622 -27.50025612 40.7825377 -23.6875 36.4375 C-22.74743291 35.37887332 -21.8073278 34.32028041 -20.8671875 33.26171875 C-20.39635742 32.72466309 -19.92552734 32.18760742 -19.44042969 31.63427734 C-17.09753173 28.97608091 -14.7023841 26.3658901 -12.3125 23.75 C-10.87474198 22.16690096 -9.4371402 20.58365992 -8 19 C-8.495 18.01 -8.495 18.01 -9 17 C-8.01 17 -7.02 17 -6 17 C-5.34 15.68 -4.68 14.36 -4 13 C-3.34 13 -2.68 13 -2 13 C-5.12914082 9.7286255 -7.13467446 8.88653255 -11.625 8.4375 C-12.44226563 8.35371094 -13.25953125 8.26992188 -14.1015625 8.18359375 C-14.72804687 8.12300781 -15.35453125 8.06242187 -16 8 C-16 7.67 -16 7.34 -16 7 C-12.37 7 -8.74 7 -5 7 C-8.3 5.35 -11.6 3.7 -15 2 C-15 1.67 -15 1.34 -15 1 C-8.28606187 1.29191035 -3.25282193 3.84620342 2 8 C8.03955912 14.94487291 10.50317823 21.96926675 10.31640625 31.12109375 C9.50967798 38.46132506 6.33355559 44.90349133 1 50 C-1.90027544 51.89653713 -4.88812694 53.48131425 -8 55 C-8.804375 55.433125 -9.60875 55.86625 -10.4375 56.3125 C-14.57479704 57.42250652 -18.74310372 57.14878472 -23 57 C-23 57.66 -23 58.32 -23 59 C-22.01 59.495 -22.01 59.495 -21 60 C-30.1491565 60.6653932 -37.02481475 57.40562496 -44.1484375 51.7578125 C-51.47660536 44.80069111 -55.07145882 35.97891642 -55.375 26 C-55.09373443 16.76511377 -52.32643627 9.76749501 -46 3 C-32.43743385 -9.74523637 -15.33186079 -10.84924047 0 0 Z " fill="#DFDFDF" transform="translate(82,28)"/>
<path d="M0 0 C0.55945313 0.28875 1.11890625 0.5775 1.6953125 0.875 C0.7053125 1.865 -0.2846875 2.855 -1.3046875 3.875 C-2.2534375 3.38 -3.2021875 2.885 -4.1796875 2.375 C-7.02746916 0.73075631 -7.02746916 0.73075631 -9.3046875 0.875 C-6.6646875 2.525 -4.0246875 4.175 -1.3046875 5.875 C-2.2946875 6.205 -3.2846875 6.535 -4.3046875 6.875 C-3.4796875 7.32875 -2.6546875 7.7825 -1.8046875 8.25 C-0.9796875 8.78625 -0.1546875 9.3225 0.6953125 9.875 C0.6953125 10.535 0.6953125 11.195 0.6953125 11.875 C-0.4727027 13.0430152 -1.64566458 14.20640469 -2.83984375 15.34765625 C-4.37778036 16.95121149 -5.59282604 18.61860427 -6.8671875 20.4375 C-10.1390025 24.9309065 -14.00964776 28.71816931 -17.99047852 32.57446289 C-21.0153303 35.51712559 -23.70497358 38.55474453 -26.3046875 41.875 C-29.7184806 44.875 -29.7184806 44.875 -33.3046875 44.875 C-33.3046875 44.215 -33.3046875 43.555 -33.3046875 42.875 C-34.2946875 42.545 -35.2846875 42.215 -36.3046875 41.875 C-35.3146875 40.555 -34.3246875 39.235 -33.3046875 37.875 C-33.9646875 38.535 -34.6246875 39.195 -35.3046875 39.875 C-37.4296875 39.5 -37.4296875 39.5 -39.3046875 38.875 C-36.80686177 36.51851776 -34.30601935 34.16525984 -31.8046875 31.8125 C-31.10859375 31.15572266 -30.4125 30.49894531 -29.6953125 29.82226562 C-25.5341288 25.91152354 -21.31243564 22.10722739 -16.95117188 18.42016602 C-15.0752508 16.77690253 -15.0752508 16.77690253 -13.3046875 13.875 C-20.66569676 16.9088216 -26.02688639 20.97501046 -31.76171875 26.47265625 C-34.3046875 28.875 -34.3046875 28.875 -37.0234375 31.01171875 C-39.52008845 33.05093536 -40.69570039 35.11673639 -42.3046875 37.875 C-42.9646875 37.875 -43.6246875 37.875 -44.3046875 37.875 C-46.77492455 30.46428885 -46.58299866 20.41035453 -43.2421875 13.3125 C-33.92594096 -2.25819296 -16.67524936 -7.72101578 0 0 Z " fill="#FBFCFC" transform="translate(79.3046875,29.125)"/>
<path d="M0 0 C3.28161516 2.83412218 4.67948924 5.62726362 5.26171875 9.9375 C5.65625795 17.55618807 3.18217799 24.4149933 -0.75 30.875 C-8.20690462 37.91763214 -15.21694198 39.4476511 -25.30078125 39.30078125 C-30.00013933 38.91867927 -32.3336361 37.86155231 -36 35 C-36 34.67 -36 34.34 -36 34 C-35.175 33.814375 -34.35 33.62875 -33.5 33.4375 C-21.81187065 28.6370183 -11.15555737 14.72258381 -5 4 C-3.36590757 2.19951174 -2.18225346 1.09112673 0 0 Z " fill="#FBFDFD" transform="translate(82,41)"/>
<path d="M0 0 C2.26003559 1.90123432 4.07658914 3.74686157 6 6 C5.67 6.66 5.34 7.32 5 8 C4.5153125 7.60167969 4.030625 7.20335937 3.53125 6.79296875 C-5.61783569 -0.43832783 -13.24072253 -2.18807855 -25 -1 C-32.69493597 0.92660096 -38.85944936 5.87612161 -43.609375 12.11328125 C-48.43771189 20.18311397 -48.43240308 30.07228939 -46.265625 39.0390625 C-42.75850881 48.55427117 -37.87698987 52.45646283 -28.9375 56.80078125 C-26.26107645 57.89341693 -23.84702299 58.55515266 -21 59 C-21 59.33 -21 59.66 -21 60 C-30.1491565 60.6653932 -37.02481475 57.40562496 -44.1484375 51.7578125 C-51.47660536 44.80069111 -55.07145882 35.97891642 -55.375 26 C-55.09373443 16.76511377 -52.32643627 9.76749501 -46 3 C-32.43743385 -9.74523637 -15.33186079 -10.84924047 0 0 Z " fill="#1E5680" transform="translate(82,28)"/>
<path d="M0 0 C10.88028169 -0.57042254 10.88028169 -0.57042254 15 3 C15 3.66 15 4.32 15 5 C13.8319848 6.1680152 12.65902292 7.33140469 11.46484375 8.47265625 C9.92690714 10.07621149 8.71186146 11.74360427 7.4375 13.5625 C4.165685 18.0559065 0.29503974 21.84316931 -3.68579102 25.69946289 C-6.7106428 28.64212559 -9.40028608 31.67974453 -12 35 C-15.4137931 38 -15.4137931 38 -19 38 C-19 37.34 -19 36.68 -19 36 C-19.99 35.67 -20.98 35.34 -22 35 C-21.01 33.68 -20.02 32.36 -19 31 C-19.66 31.66 -20.32 32.32 -21 33 C-23.125 32.625 -23.125 32.625 -25 32 C-22.50217427 29.64351776 -20.00133185 27.29025984 -17.5 24.9375 C-16.80390625 24.28072266 -16.1078125 23.62394531 -15.390625 22.94726562 C-11.2294413 19.03652354 -7.00774814 15.23222739 -2.64648438 11.54516602 C-0.7705633 9.90190253 -0.7705633 9.90190253 1 7 C-0.98 7.66 -2.96 8.32 -5 9 C-4.54625 8.443125 -4.0925 7.88625 -3.625 7.3125 C-1.96266232 4.94686561 -0.97855457 2.70984342 0 0 Z " fill="#C0C0C0" transform="translate(65,36)"/>
<path d="M0 0 C6.71393813 0.29191035 11.74717807 2.84620342 17 7 C23.03955912 13.94487291 25.50317823 20.96926675 25.31640625 30.12109375 C24.50967798 37.46132506 21.33355559 43.90349133 16 49 C7.13987691 54.75048553 -0.57038143 55.79391257 -11 55 C-16.10307841 53.51448849 -20.02491852 50.47819629 -24 47 C-23.67 46.34 -23.34 45.68 -23 45 C-22.52433594 45.3609375 -22.04867187 45.721875 -21.55859375 46.09375 C-14.39042874 50.84612459 -7.40429786 51.03779643 1 50 C4.0852946 48.97613927 6.22601414 47.7604141 9 46 C9.99 45.67 10.98 45.34 12 45 C13.12047942 43.16610178 13.12047942 43.16610178 14 41 C14.34160156 40.34 14.68320313 39.68 15.03515625 39 C15.37417969 38.34 15.71320313 37.68 16.0625 37 C16.40410156 36.34 16.74570313 35.68 17.09765625 35 C19.63778523 29.36993056 20.09761504 23.27315694 18.12890625 17.40234375 C14.77878401 10.11994688 10.42733608 5.35362511 3.0625 2.125 C2.051875 1.75375 1.04125 1.3825 0 1 C0 0.67 0 0.34 0 0 Z " fill="#2BB4E1" transform="translate(67,29)"/>
<path d="M0 0 C0.99 0.33 1.98 0.66 3 1 C0.69 3.31 -1.62 5.62 -4 8 C-2.906875 7.01 -1.81375 6.02 -0.6875 5 C2.625 2 2.625 2 6 2 C-2.58 10.58 -11.16 19.16 -20 28 C-20.99 27.67 -21.98 27.34 -23 27 C-22.01 25.68 -21.02 24.36 -20 23 C-20.66 23.66 -21.32 24.32 -22 25 C-24.125 24.625 -24.125 24.625 -26 24 C-23.50217427 21.64351776 -21.00133185 19.29025984 -18.5 16.9375 C-17.80390625 16.28072266 -17.1078125 15.62394531 -16.390625 14.94726562 C-12.21638333 11.02425146 -7.98234348 7.19137407 -3.64648438 3.44750977 C-2.39021653 2.34305958 -1.18279734 1.18279734 0 0 Z " fill="#E9E9E9" transform="translate(66,44)"/>
<path d="M0 0 C10.77493398 -0.56489945 10.77493398 -0.56489945 15 3 C15.66 3.99 16.32 4.98 17 6 C15.66666667 7.33333333 14.33333333 8.66666667 13 10 C12.12287073 11.20678859 11.24830887 12.41544386 10.375 13.625 C7.75507382 17.1390776 4.93037432 20.18012127 1.78125 23.21875 C-0.06816304 25.06816304 -1.74840333 27.00379484 -3.4375 29 C-12.62298176 39.47431327 -12.62298176 39.47431327 -17.4375 40.5390625 C-19.80478875 40.6225246 -21.72068421 40.65258419 -24 40 C-26 37 -26 37 -26 34 C-23.09399739 32.74335022 -21.20395416 32 -18 32 C-19.32 33.32 -20.64 34.64 -22 36 C-21.34 36.33 -20.68 36.66 -20 37 C-20 37.66 -20 38.32 -20 39 C-14.93793398 36.35973622 -11.50025612 33.7825377 -7.6875 29.4375 C-6.74743291 28.37887332 -5.8073278 27.32028041 -4.8671875 26.26171875 C-4.39635742 25.72466309 -3.92552734 25.18760742 -3.44042969 24.63427734 C-1.09753173 21.97608091 1.2976159 19.3658901 3.6875 16.75 C5.12525802 15.16690096 6.5628598 13.58365992 8 12 C7.505 11.01 7.505 11.01 7 10 C7.99 10 8.98 10 10 10 C10.66 8.68 11.32 7.36 12 6 C12.66 6 13.32 6 14 6 C10.87085918 2.7286255 8.86532554 1.88653255 4.375 1.4375 C3.55773437 1.35371094 2.74046875 1.26992188 1.8984375 1.18359375 C1.27195312 1.12300781 0.64546875 1.06242187 0 1 C0 0.67 0 0.34 0 0 Z " fill="#BCBCBC" transform="translate(66,35)"/>
<path d="M0 0 C9.73995772 -0.57293869 9.73995772 -0.57293869 14 3 C14 5 14 5 12.375 7.1875 C10 9 10 9 7.0625 8.875 C4.27345911 8.07813118 1.65251936 7.17022913 -1 6 C-0.67 4.02 -0.34 2.04 0 0 Z " fill="#FEFEFE" transform="translate(66,36)"/>
<path d="M0 0 C3 1 3 1 4.6875 3.25 C8.91353576 8.27555603 14.55434509 11.65243083 21.13671875 12.31640625 C22.30847656 12.39761719 23.48023438 12.47882813 24.6875 12.5625 C25.86699219 12.64628906 27.04648438 12.73007813 28.26171875 12.81640625 C29.16535156 12.87699219 30.06898437 12.93757813 31 13 C31 13.33 31 13.66 31 14 C27.7 14 24.4 14 21 14 C21 14.66 21 15.32 21 16 C14.20689992 15.64246842 8.15875814 11.92659997 3.24609375 7.375 C0.97685128 4.78896869 0 3.50750543 0 0 Z " fill="#E9EFF3" transform="translate(38,71)"/>
<path d="M0 0 C0.66 0.33 1.32 0.66 2 1 C1.37339478 1.66418945 1.37339478 1.66418945 0.73413086 2.34179688 C-1.19955151 4.39314917 -3.13103149 6.44656317 -5.0625 8.5 C-5.71927734 9.19609375 -6.37605469 9.8921875 -7.05273438 10.609375 C-10.93235182 14.73744085 -14.70660967 18.92319547 -18.35717773 23.25585938 C-20.12171902 25.12922584 -21.83209028 26.61074519 -24 28 C-24.99 28 -25.98 28 -27 28 C-27 27.34 -27 26.68 -27 26 C-25.6015625 24.62280273 -25.6015625 24.62280273 -23.625 22.99609375 C-18.47566603 18.61757057 -13.75318068 13.86313947 -9 9.0625 C-8.12988281 8.18787109 -7.25976562 7.31324219 -6.36328125 6.41210938 C-4.23986451 4.27702551 -2.11883622 2.13962795 0 0 Z " fill="#FBFBFB" transform="translate(73,46)"/>
<path d="M0 0 C0.66 0.33 1.32 0.66 2 1 C-6.58 9.58 -15.16 18.16 -24 27 C-24.99 26.67 -25.98 26.34 -27 26 C-24.17097124 23.14153993 -21.33599221 20.28905016 -18.5 17.4375 C-17.70851563 16.63763672 -16.91703125 15.83777344 -16.1015625 15.01367188 C-11.23414515 10.12630609 -6.23658226 5.48741316 -1 1 C-0.67 0.67 -0.34 0.34 0 0 Z " fill="#FEFEFE" transform="translate(70,45)"/>
<path d="M0 0 C8.92981438 -0.46321804 15.97331823 -0.1428035 24 4 C23.01 4.99 22.02 5.98 21 7 C20.195625 6.505 19.39125 6.01 18.5625 5.5 C14.17997546 3.65472651 10.67684769 3.71938914 6 4 C5.67 3.34 5.34 2.68 5 2 C2.47266765 1.34444881 2.47266765 1.34444881 0 1 C0 0.67 0 0.34 0 0 Z " fill="#DAE5EA" transform="translate(57,26)"/>
<path d="M0 0 C6.62842427 0.28819236 11.78452788 2.92868996 17 7 C18.29296875 9.19921875 18.29296875 9.19921875 19 11 C18.01 11.66 17.02 12.32 16 13 C15.59910156 12.46890625 15.19820312 11.9378125 14.78515625 11.390625 C10.46059795 6.01679746 6.51165043 3.24437838 0 1 C0 0.67 0 0.34 0 0 Z " fill="#4BBBDF" transform="translate(67,29)"/>
<path d="M0 0 C10.77493398 -0.56489945 10.77493398 -0.56489945 15 3 C15.99 4.485 15.99 4.485 17 6 C14 9 11 12 8 15 C7.67 13.35 7.34 11.7 7 10 C7.99 10 8.98 10 10 10 C10.66 8.68 11.32 7.36 12 6 C12.66 6 13.32 6 14 6 C10.87085918 2.7286255 8.86532554 1.88653255 4.375 1.4375 C3.55773437 1.35371094 2.74046875 1.26992188 1.8984375 1.18359375 C1.27195312 1.12300781 0.64546875 1.06242187 0 1 C0 0.67 0 0.34 0 0 Z " fill="#B6B8B9" transform="translate(66,35)"/>
<path d="M0 0 C0.57105469 0.34933594 1.14210937 0.69867188 1.73046875 1.05859375 C8.78349797 5.01681206 14.97303018 5.86160397 23 6 C23 6.33 23 6.66 23 7 C19.37 7 15.74 7 12 7 C12 7.66 12 8.32 12 9 C7.50985376 7.50328459 3.52151236 5.16631659 0 2 C0 1.34 0 0.68 0 0 Z " fill="#5CC0E1" transform="translate(43,74)"/>
<path d="M0 0 C0.66 0.33 1.32 0.66 2 1 C0.68 2.32 -0.64 3.64 -2 5 C-1.34 5.33 -0.68 5.66 0 6 C0 6.99 0 7.98 0 9 C-1.65 8.67 -3.3 8.34 -5 8 C-5.33 6.35 -5.66 4.7 -6 3 C-5.195625 2.690625 -4.39125 2.38125 -3.5625 2.0625 C-1.10919595 1.23664655 -1.10919595 1.23664655 0 0 Z " fill="#BDCCD1" transform="translate(46,66)"/>
<path d="M0 0 C-0.57344937 2.86724686 -0.8614515 3.8614515 -3 6 C-5.125 5.625 -5.125 5.625 -7 5 C-2.25 0 -2.25 0 0 0 Z " fill="#FBFBFB" transform="translate(47,63)"/>
<path d="M0 0 C0.88751953 0.30744141 0.88751953 0.30744141 1.79296875 0.62109375 C5.83660816 1.9997571 9.76855249 3.31750847 14 4 C14 4.33 14 4.66 14 5 C7.79029227 5.33266291 3.71735105 4.45029331 -2 2 C-1.34 1.34 -0.68 0.68 0 0 Z " fill="#5F819B" transform="translate(47,83)"/>
<path d="M0 0 C0.66 0.33 1.32 0.66 2 1 C0.50468364 4.80625982 -1.58980056 6.77940501 -5 9 C-7.8125 9.25 -7.8125 9.25 -10 9 C-9.278125 8.443125 -8.55625 7.88625 -7.8125 7.3125 C-5.02542701 5.02090666 -2.51358472 2.58540143 0 0 Z " fill="#B6B6B6" transform="translate(56,66)"/>
<path d="M0 0 C0.99 0.33 1.98 0.66 3 1 C1.02 3.31 -0.96 5.62 -3 8 C-3.66 7.67 -4.32 7.34 -5 7 C-3.70700306 4.11562221 -2.34058637 2.12780579 0 0 Z " fill="#C4C4C4" transform="translate(62,60)"/>
<path d="M0 0 C1.32 0.99 2.64 1.98 4 3 C3.1875 4.9375 3.1875 4.9375 2 7 C1.01 7.33 0.02 7.66 -1 8 C-1.66 6.35 -2.32 4.7 -3 3 C-2.34 3 -1.68 3 -1 3 C-0.67 2.01 -0.34 1.02 0 0 Z " fill="#D6D9DB" transform="translate(38,64)"/>
<path d="M0 0 C5.75 0.75 5.75 0.75 8 3 C7.01 3.66 6.02 4.32 5 5 C3.02 4.01 1.04 3.02 -1 2 C-0.67 1.34 -0.34 0.68 0 0 Z " fill="#E4EEF2" transform="translate(73,28)"/>
<path d="M0 0 C2.125 -0.375 2.125 -0.375 5 0 C7.23913252 1.79340357 9.12454539 3.83452663 11 6 C10.67 6.66 10.34 7.32 10 8 C8.70684939 7.04367001 7.41553147 6.08486149 6.125 5.125 C5.40570313 4.59132813 4.68640625 4.05765625 3.9453125 3.5078125 C2 2 2 2 0 0 Z " fill="#416B8C" transform="translate(77,28)"/>
<path d="M0 0 C4.62 0 9.24 0 14 0 C14 0.33 14 0.66 14 1 C10.7 1 7.4 1 4 1 C4 1.66 4 2.32 4 3 C2.68 2.67 1.36 2.34 0 2 C0 1.34 0 0.68 0 0 Z " fill="#CEE7F0" transform="translate(55,84)"/>
<path d="M0 0 C3.3 1.65 6.6 3.3 10 5 C9.01 5.66 8.02 6.32 7 7 C5.82780457 6.21654285 4.66236332 5.42297164 3.5 4.625 C2.8503125 4.18414062 2.200625 3.74328125 1.53125 3.2890625 C1.0259375 2.86367187 0.520625 2.43828125 0 2 C0 1.34 0 0.68 0 0 Z " fill="#51BCDF" transform="translate(43,74)"/>
<path d="M0 0 C0.66 0.33 1.32 0.66 2 1 C1.67 1.66 1.34 2.32 1 3 C0.34 3 -0.32 3 -1 3 C-0.67 2.01 -0.34 1.02 0 0 Z M-3 1 C-2.34 1.99 -1.68 2.98 -1 4 C-1.99 4.495 -1.99 4.495 -3 5 C-3.66 4.34 -4.32 3.68 -5 3 C-4.34 2.34 -3.68 1.68 -3 1 Z M-5 5 C-4.34 5.33 -3.68 5.66 -3 6 C-3.99 6.66 -4.98 7.32 -6 8 C-5.67 7.01 -5.34 6.02 -5 5 Z " fill="#F0F2F3" transform="translate(82,41)"/>
<path d="M0 0 C2.31 0.33 4.62 0.66 7 1 C7.33 1.99 7.66 2.98 8 4 C4.31245243 3.50168276 2.39509338 2.89932357 0 0 Z " fill="#295D83" transform="translate(39,80)"/>
</svg>
