<?xml version="1.0" encoding="UTF-8"?>
<svg version="1.1" xmlns="http://www.w3.org/2000/svg" width="120" height="120">
<path d="M0 0 C39.6 0 79.2 0 120 0 C120 39.6 120 79.2 120 120 C80.4 120 40.8 120 0 120 C0 80.4 0 40.8 0 0 Z " fill="#FEFEFE" transform="translate(0,0)"/>
<path d="M0 0 C2.26003559 1.90123432 4.07658914 3.74686157 6 6 C5.67 6.66 5.34 7.32 5 8 C4.5153125 7.60167969 4.030625 7.20335937 3.53125 6.79296875 C-5.61783569 -0.43832783 -13.24072253 -2.18807855 -25 -1 C-31.81586451 0.70650557 -37.29740582 4.86688663 -42 10 C-43.98958527 13.21628365 -43.98958527 13.21628365 -45 16 C-44.360625 15.38125 -43.72125 14.7625 -43.0625 14.125 C-39.18436924 11.43405212 -35.59564421 10.76093455 -31 10 C-30.896875 9.21625 -30.79375 8.4325 -30.6875 7.625 C-30 5 -30 5 -27 3 C-23.54303006 3.09097289 -22.18362466 3.83991696 -19.5625 6.125 C-17.09799559 8.89005373 -14.68721438 11.68834138 -12.33203125 14.546875 C-9.96976409 17.12389373 -7.72498956 17.22750104 -4.375 17.5625 C-3.14910156 17.68818359 -3.14910156 17.68818359 -1.8984375 17.81640625 C-0.95871094 17.90728516 -0.95871094 17.90728516 0 18 C0.495 19.485 0.495 19.485 1 21 C1.66 21 2.32 21 3 21 C1.3668892 13.49789728 -1.62938558 9.28970205 -8 5 C-10.3196939 3.77474815 -12.51792206 2.87906927 -15 2 C-15 1.67 -15 1.34 -15 1 C-8.28606187 1.29191035 -3.25282193 3.84620342 2 8 C8.03955912 14.94487291 10.50317823 21.96926675 10.31640625 31.12109375 C9.50967798 38.46132506 6.33355559 44.90349133 1 50 C-1.90027544 51.89653713 -4.88812694 53.48131425 -8 55 C-8.804375 55.433125 -9.60875 55.86625 -10.4375 56.3125 C-14.57479704 57.42250652 -18.74310372 57.14878472 -23 57 C-23 57.66 -23 58.32 -23 59 C-22.01 59.495 -22.01 59.495 -21 60 C-30.1491565 60.6653932 -37.02481475 57.40562496 -44.1484375 51.7578125 C-51.47660536 44.80069111 -55.07145882 35.97891642 -55.375 26 C-55.09373443 16.76511377 -52.32643627 9.76749501 -46 3 C-32.43743385 -9.74523637 -15.33186079 -10.84924047 0 0 Z " fill="#FAFBFC" transform="translate(82,28)"/>
<path d="M0 0 C2.26003559 1.90123432 4.07658914 3.74686157 6 6 C5.67 6.66 5.34 7.32 5 8 C4.5153125 7.60167969 4.030625 7.20335937 3.53125 6.79296875 C-5.61783569 -0.43832783 -13.24072253 -2.18807855 -25 -1 C-32.69493597 0.92660096 -38.85944936 5.87612161 -43.609375 12.11328125 C-48.43771189 20.18311397 -48.43240308 30.07228939 -46.265625 39.0390625 C-42.75850881 48.55427117 -37.87698987 52.45646283 -28.9375 56.80078125 C-26.26107645 57.89341693 -23.84702299 58.55515266 -21 59 C-21 59.33 -21 59.66 -21 60 C-30.1491565 60.6653932 -37.02481475 57.40562496 -44.1484375 51.7578125 C-51.47660536 44.80069111 -55.07145882 35.97891642 -55.375 26 C-55.09373443 16.76511377 -52.32643627 9.76749501 -46 3 C-32.43743385 -9.74523637 -15.33186079 -10.84924047 0 0 Z " fill="#1E5680" transform="translate(82,28)"/>
<path d="M0 0 C1.65 0 3.3 0 5 0 C5.28875 0.598125 5.5775 1.19625 5.875 1.8125 C7.04742026 4.19327792 7.04742026 4.19327792 9 7 C9.99 7 10.98 7 12 7 C13.2397139 8.5007063 14.47684874 10.00390707 15.68359375 11.53125 C17.5776608 13.64451175 19.26231366 14.33227163 22 15 C25.20870233 15.16757757 25.20870233 15.16757757 28 15 C28 15.99 28 16.98 28 18 C28.495 20.475 28.495 20.475 29 23 C25.37 22.01 21.74 21.02 18 20 C18 20.66 18 21.32 18 22 C21.3 22.99 24.6 23.98 28 25 C25.55607477 29.76565421 25.55607477 29.76565421 23.18847656 30.76342773 C20.40189735 31.06465434 18.81523181 30.42301325 16.234375 29.34765625 C15.34492187 28.98349609 14.45546875 28.61933594 13.5390625 28.24414062 C12.61867188 27.85419922 11.69828125 27.46425781 10.75 27.0625 C9.34621094 26.48338867 9.34621094 26.48338867 7.9140625 25.89257812 C5.60502173 24.93833169 3.30081138 23.97388338 1 23 C1 23.66 1 24.32 1 25 C0.34 24.67 -0.32 24.34 -1 24 C-0.67 23.34 -0.34 22.68 0 22 C-1.7015625 21.566875 -1.7015625 21.566875 -3.4375 21.125 C-4.613125 20.75375 -5.78875 20.3825 -7 20 C-7.33 19.34 -7.66 18.68 -8 18 C-3.86152342 15.91543402 -0.57751667 14.64202506 4.046875 15.69140625 C6.75450498 16.69799926 9.38529344 17.7732872 12 19 C12 18.34 12 17.68 12 17 C11.30132812 16.87625 10.60265625 16.7525 9.8828125 16.625 C7.04427077 15.98170442 4.60426585 15.3086112 2 14 C0.48259441 11.40109806 0.26690263 8.95864401 0 6 C-0.29197266 4.94619141 -0.29197266 4.94619141 -0.58984375 3.87109375 C-1 2 -1 2 0 0 Z " fill="#F6F6F6" transform="translate(53,33)"/>
<path d="M0 0 C0.55945313 0.28875 1.11890625 0.5775 1.6953125 0.875 C0.7053125 1.865 -0.2846875 2.855 -1.3046875 3.875 C-2.2534375 3.38 -3.2021875 2.885 -4.1796875 2.375 C-7.02746916 0.73075631 -7.02746916 0.73075631 -9.3046875 0.875 C-8.79679687 1.15472656 -8.28890625 1.43445313 -7.765625 1.72265625 C-2.3684162 4.86597448 3.42806073 8.56970094 5.28515625 14.87890625 C5.5703125 16.8125 5.5703125 16.8125 5.6953125 19.875 C5.0353125 19.875 4.3753125 19.875 3.6953125 19.875 C3.2003125 18.885 3.2003125 18.885 2.6953125 17.875 C0.76576918 17.59710436 0.76576918 17.59710436 -1.4921875 17.5625 C-6.46713564 17.09733052 -8.79847189 15.54058905 -12.3046875 11.875 C-13.62944821 10.07379027 -14.89389771 8.23981692 -16.15625 6.39453125 C-17.67429997 4.38595493 -18.85282462 3.48796572 -21.3046875 2.875 C-23.9480649 2.78694854 -23.9480649 2.78694854 -26.3046875 3.875 C-26.56894531 4.68582031 -26.83320312 5.49664062 -27.10546875 6.33203125 C-28.3046875 8.875 -28.3046875 8.875 -30.87109375 9.9140625 C-32.35416016 10.20410156 -32.35416016 10.20410156 -33.8671875 10.5 C-36.80179175 11.03048005 -36.80179175 11.03048005 -39.3046875 11.875 C-39.6346875 12.865 -39.9646875 13.855 -40.3046875 14.875 C-41.2946875 15.205 -42.2846875 15.535 -43.3046875 15.875 C-41.29961546 8.74585498 -35.8525128 3.48195307 -29.5546875 -0.0625 C-20.05257317 -4.96306596 -9.60449157 -4.44709578 0 0 Z " fill="#F7F9FA" transform="translate(79.3046875,29.125)"/>
<path d="M0 0 C6.71393813 0.29191035 11.74717807 2.84620342 17 7 C23.03955912 13.94487291 25.50317823 20.96926675 25.31640625 30.12109375 C24.50967798 37.46132506 21.33355559 43.90349133 16 49 C7.13987691 54.75048553 -0.57038143 55.79391257 -11 55 C-14.0668794 54.10722817 -16.42307576 52.86604859 -19 51 C-20.485 49.948125 -20.485 49.948125 -22 48.875 C-22.66 48.25625 -23.32 47.6375 -24 47 C-24 46.34 -24 45.68 -24 45 C-21.73156035 46.13421982 -19.51253373 47.28057652 -17.3125 48.546875 C-11.00512541 51.31378932 -2.89810279 51.27636994 3.6484375 49.1328125 C5.989785 47.98197081 5.989785 47.98197081 9 46 C9.99 45.67 10.98 45.34 12 45 C13.12047942 43.16610178 13.12047942 43.16610178 14 41 C14.34160156 40.34 14.68320313 39.68 15.03515625 39 C15.37417969 38.34 15.71320313 37.68 16.0625 37 C16.40410156 36.34 16.74570313 35.68 17.09765625 35 C19.63778523 29.36993056 20.09761504 23.27315694 18.12890625 17.40234375 C14.77878401 10.11994688 10.42733608 5.35362511 3.0625 2.125 C2.051875 1.75375 1.04125 1.3825 0 1 C0 0.67 0 0.34 0 0 Z " fill="#2BB4E1" transform="translate(67,29)"/>
<path d="M0 0 C3.62050298 3.15633593 6.61969065 6.84711793 9.66796875 10.546875 C12.52644059 13.66520792 15.92654354 13.27793613 19.90625 13.5234375 C22 14 22 14 24 17 C24.35866019 26.51645035 23.25340215 33.39214767 16.75 40.4375 C15.88375 41.2109375 15.88375 41.2109375 15 42 C13.515 41.505 13.515 41.505 12 41 C12.66 41 13.32 41 14 41 C14.33 39.35 14.66 37.7 15 36 C13.02 35.67 11.04 35.34 9 35 C8.67 36.32 8.34 37.64 8 39 C8.66 39.33 9.32 39.66 10 40 C5.87248551 39.39301257 2.6678852 37.96189209 -1 36 C0.485 35.505 0.485 35.505 2 35 C2 33.35 2 31.7 2 30 C1.01 30 0.02 30 -1 30 C-1.66 31.32 -2.32 32.64 -3 34 C-7.75 33.25 -7.75 33.25 -10 31 C-9.34 31 -8.68 31 -8 31 C-8 29.35 -8 27.7 -8 26 C-7.34 26 -6.68 26 -6 26 C-6 25.34 -6 24.68 -6 24 C0.13236759 25.72228196 5.95948576 27.71468741 11.7734375 30.328125 C14.3529708 31.10651049 15.5386106 31.06834774 18 30 C18.66 29.01 19.32 28.02 20 27 C15.545 25.02 15.545 25.02 11 23 C11 22.34 11 21.68 11 21 C14.3 21.66 17.6 22.32 21 23 C20.34 21.02 19.68 19.04 19 17 C18.113125 16.896875 17.22625 16.79375 16.3125 16.6875 C11.51946086 15.69271829 8.9174089 14.16025243 5.875 10.3125 C5.25625 9.549375 4.6375 8.78625 4 8 C3.01 8 2.02 8 1 8 C-0.27554815 6.53311963 -1.54881117 5.06023134 -2.71875 3.5078125 C-4.11472845 1.72500021 -4.11472845 1.72500021 -7 0 C-4.19664415 -1.40167793 -2.9650644 -0.96536981 0 0 Z " fill="#9F9F9F" transform="translate(60,32)"/>
<path d="M0 0 C0.99 0.66 1.98 1.32 3 2 C2.01 2 1.02 2 0 2 C0.495 2.86625 0.99 3.7325 1.5 4.625 C3.0477761 8.10749623 3.26802896 10.24759458 3 14 C6.3 14.99 9.6 15.98 13 17 C13 17.66 13 18.32 13 19 C9.64807853 18.50947491 6.70272812 17.89383147 3.5 16.75 C-0.78184092 15.83246266 -2.37597082 16.70183515 -6 19 C-3.69 19.99 -1.38 20.98 1 22 C0.67 22.99 0.34 23.98 0 25 C-0.66 25 -1.32 25 -2 25 C-2.66 26.32 -3.32 27.64 -4 29 C-4.66 28.67 -5.32 28.34 -6 28 C-5.67 26.68 -5.34 25.36 -5 24 C-5.61875 23.690625 -6.2375 23.38125 -6.875 23.0625 C-8.25 22.375 -9.625 21.6875 -11 21 C-11.33 22.32 -11.66 23.64 -12 25 C-12 19.39 -12 13.78 -12 8 C-4.375 5 -4.375 5 -1 5 C-0.67 3.35 -0.34 1.7 0 0 Z " fill="#EDEDED" transform="translate(52,33)"/>
<path d="M0 0 C4.42093583 1.45855573 4.42093583 1.45855573 9 2 C9 2.66 9 3.32 9 4 C12.3 4.99 15.6 5.98 19 7 C16.55607477 11.76565421 16.55607477 11.76565421 14.18847656 12.76342773 C11.40189735 13.06465434 9.81523181 12.42301325 7.234375 11.34765625 C6.34492187 10.98349609 5.45546875 10.61933594 4.5390625 10.24414062 C3.61867188 9.85419922 2.69828125 9.46425781 1.75 9.0625 C0.34621094 8.48338867 0.34621094 8.48338867 -1.0859375 7.89257812 C-3.39497827 6.93833169 -5.69918862 5.97388338 -8 5 C-8 5.66 -8 6.32 -8 7 C-8.66 6.67 -9.32 6.34 -10 6 C-9.67 5.34 -9.34 4.68 -9 4 C-10.134375 3.71125 -11.26875 3.4225 -12.4375 3.125 C-13.613125 2.75375 -14.78875 2.3825 -16 2 C-16.33 1.34 -16.66 0.68 -17 0 C-10.49478032 -3.81828112 -6.83652145 -2.54178362 0 0 Z " fill="#FCFCFC" transform="translate(62,51)"/>
<path d="M0 0 C3.62050298 3.15633593 6.61969065 6.84711793 9.66796875 10.546875 C12.52644059 13.66520792 15.92654354 13.27793613 19.90625 13.5234375 C22 14 22 14 24 17 C23.9765625 20.13671875 23.9765625 20.13671875 23.625 23.6875 C23.45871094 25.45673828 23.45871094 25.45673828 23.2890625 27.26171875 C23.14597656 28.61716797 23.14597656 28.61716797 23 30 C22.01 29.67 21.02 29.34 20 29 C19.67 28.01 19.34 27.02 19 26 C17.1346755 24.98245132 17.1346755 24.98245132 14.9375 24.3125 C14.20402344 24.06113281 13.47054687 23.80976562 12.71484375 23.55078125 C12.14894531 23.36902344 11.58304688 23.18726562 11 23 C11 22.34 11 21.68 11 21 C14.3 21.66 17.6 22.32 21 23 C20.34 21.02 19.68 19.04 19 17 C18.113125 16.896875 17.22625 16.79375 16.3125 16.6875 C11.51946086 15.69271829 8.9174089 14.16025243 5.875 10.3125 C5.25625 9.549375 4.6375 8.78625 4 8 C3.01 8 2.02 8 1 8 C-0.27554815 6.53311963 -1.54881117 5.06023134 -2.71875 3.5078125 C-4.11472845 1.72500021 -4.11472845 1.72500021 -7 0 C-4.19664415 -1.40167793 -2.9650644 -0.96536981 0 0 Z " fill="#888888" transform="translate(60,32)"/>
<path d="M0 0 C2.31 0.66 4.62 1.32 7 2 C7 2.66 7 3.32 7 4 C7.61875 4.0825 8.2375 4.165 8.875 4.25 C11 5 11 5 12.25 6.75 C13.0957901 9.28737029 13.14764761 11.34234296 13 14 C10.36 13.34 7.72 12.68 5 12 C5.99 11.67 6.98 11.34 8 11 C8 9.35 8 7.7 8 6 C7.01 6 6.02 6 5 6 C4.34 7.32 3.68 8.64 3 10 C-1.75 9.25 -1.75 9.25 -4 7 C-3.34 7 -2.68 7 -2 7 C-2 5.35 -2 3.7 -2 2 C-1.34 2 -0.68 2 0 2 C0 1.34 0 0.68 0 0 Z " fill="#A2A2A2" transform="translate(54,56)"/>
<path d="M0 0 C4.875 4.625 4.875 4.625 6 8 C7.75376928 9.41693801 7.75376928 9.41693801 9.875 10.625 C10.57367188 11.05039063 11.27234375 11.47578125 11.9921875 11.9140625 C15.85839037 14.00512164 19.36003746 14.26257685 23.6875 14.5625 C24.86699219 14.64628906 26.04648438 14.73007813 27.26171875 14.81640625 C28.16535156 14.87699219 29.06898437 14.93757813 30 15 C30 15.33 30 15.66 30 16 C26.7 16 23.4 16 20 16 C20 16.66 20 17.32 20 18 C12.67873264 17.61467014 5.7333619 13.24323378 0.8125 7.9375 C-1 5 -1 5 -0.8125 2.125 C-0.544375 1.42375 -0.27625 0.7225 0 0 Z " fill="#DBE9EF" transform="translate(39,69)"/>
<path d="M0 0 C0 1.32 0 2.64 0 4 C-0.66 4 -1.32 4 -2 4 C-1.25675659 6.39489543 -0.52942646 7.70777616 1.69140625 8.93359375 C3.44073501 9.67219923 5.21934149 10.34049685 7 11 C6.67 11.99 6.34 12.98 6 14 C5.34 14 4.68 14 4 14 C3.34 15.32 2.68 16.64 2 18 C1.34 17.67 0.68 17.34 0 17 C0.33 15.68 0.66 14.36 1 13 C0.38125 12.690625 -0.2375 12.38125 -0.875 12.0625 C-2.25 11.375 -3.625 10.6875 -5 10 C-5.33 11.32 -5.66 12.64 -6 14 C-5.88655624 11.8535247 -5.75893655 9.70779408 -5.625 7.5625 C-5.52058594 5.77005859 -5.52058594 5.77005859 -5.4140625 3.94140625 C-5.27742188 2.97074219 -5.14078125 2.00007813 -5 1 C-3 0 -3 0 0 0 Z " fill="#808080" transform="translate(46,44)"/>
<path d="M0 0 C0.99 0.66 1.98 1.32 3 2 C2.01 2 1.02 2 0 2 C0.495 2.86625 0.99 3.7325 1.5 4.625 C3.0477761 8.10749623 3.26802896 10.24759458 3 14 C6.3 14.99 9.6 15.98 13 17 C13 17.66 13 18.32 13 19 C8.15340923 18.40895235 4.39251833 17.02055843 0 15 C0.66 14.67 1.32 14.34 2 14 C0.07608351 8.68588506 0.07608351 8.68588506 -4 5 C-3.01 5 -2.02 5 -1 5 C-0.67 3.35 -0.34 1.7 0 0 Z " fill="#8A8A8A" transform="translate(52,33)"/>
<path d="M0 0 C8.92981438 -0.46321804 15.97331823 -0.1428035 24 4 C23.01 4.99 22.02 5.98 21 7 C20.154375 6.505 19.30875 6.01 18.4375 5.5 C14.66203168 3.85252292 12.07182452 3.75569053 8 4 C7.67 3.34 7.34 2.68 7 2 C4.67843403 1.59270772 2.3431213 1.25561323 0 1 C0 0.67 0 0.34 0 0 Z " fill="#D9E4EA" transform="translate(57,26)"/>
<path d="M0 0 C6.62842427 0.28819236 11.78452788 2.92868996 17 7 C18.29296875 9.19921875 18.29296875 9.19921875 19 11 C18.01 11.66 17.02 12.32 16 13 C15.59910156 12.46890625 15.19820312 11.9378125 14.78515625 11.390625 C10.46059795 6.01679746 6.51165043 3.24437838 0 1 C0 0.67 0 0.34 0 0 Z " fill="#4BBBDF" transform="translate(67,29)"/>
<path d="M0 0 C2.69734626 4.04601939 2.43218852 7.25423764 2 12 C1 15.0625 1 15.0625 0 17 C-0.66 17 -1.32 17 -2 17 C-1.85899143 14.72886197 -1.71203245 12.45809275 -1.5625 10.1875 C-1.48128906 8.92292969 -1.40007812 7.65835938 -1.31640625 6.35546875 C-1 3 -1 3 0 0 Z " fill="#E3F1F5" transform="translate(85,46)"/>
<path d="M0 0 C0.33 0 0.66 0 1 0 C0.67 3.96 0.34 7.92 0 12 C-0.99 11.67 -1.98 11.34 -3 11 C-3.33 10.01 -3.66 9.02 -4 8 C-5.8653245 6.98245132 -5.8653245 6.98245132 -8.0625 6.3125 C-8.79597656 6.06113281 -9.52945313 5.80976562 -10.28515625 5.55078125 C-10.85105469 5.36902344 -11.41695313 5.18726563 -12 5 C-12 4.34 -12 3.68 -12 3 C-8.37 3.66 -4.74 4.32 -1 5 C-0.67 3.35 -0.34 1.7 0 0 Z " fill="#6F6F6F" transform="translate(83,50)"/>
<path d="M0 0 C2.22677693 1.11338847 4.33680545 2.21590093 6.4375 3.5625 C11.80544989 5.72851487 17.25946458 5.75300367 23 6 C23 6.33 23 6.66 23 7 C19.37 7 15.74 7 12 7 C12 7.66 12 8.32 12 9 C7.50985376 7.50328459 3.52151236 5.16631659 0 2 C0 1.34 0 0.68 0 0 Z " fill="#59BFE0" transform="translate(43,74)"/>
<path d="M0 0 C2.375 1.75 2.375 1.75 4 4 C3.75 6.75 3.75 6.75 3 9 C1.8944811 8.06409496 0.79064547 7.12620142 -0.3125 6.1875 C-0.92738281 5.66542969 -1.54226562 5.14335938 -2.17578125 4.60546875 C-3.85424679 3.12827531 -5.43882034 1.59960869 -7 0 C-4.23382717 -1.38308641 -2.92591209 -0.90563946 0 0 Z " fill="#9D9D9D" transform="translate(60,32)"/>
<path d="M0 0 C-0.66 0.66 -1.32 1.32 -2 2 C-3.95413515 5.21857554 -4.49447997 8.29285308 -5 12 C-5.33 12 -5.66 12 -6 12 C-6 9.69 -6 7.38 -6 5 C-6.66 5 -7.32 5 -8 5 C-8 3.68 -8 2.36 -8 1 C-3.375 -1.125 -3.375 -1.125 0 0 Z " fill="#BBBBBB" transform="translate(48,40)"/>
<path d="M0 0 C1.98 0.66 3.96 1.32 6 2 C5.67 3.65 5.34 5.3 5 7 C3.68 7 2.36 7 1 7 C1 6.34 1 5.68 1 5 C0.34 5 -0.32 5 -1 5 C-0.67 3.35 -0.34 1.7 0 0 Z " fill="#E8E8E8" transform="translate(69,66)"/>
<path d="M0 0 C2.64 0.99 5.28 1.98 8 3 C7.67 3.99 7.34 4.98 7 6 C6.34 6 5.68 6 5 6 C4.34 7.32 3.68 8.64 3 10 C2.34 9.67 1.68 9.34 1 9 C1.20625 8.443125 1.4125 7.88625 1.625 7.3125 C2.10695211 4.340462 1.26565028 2.68020059 0 0 Z " fill="#888888" transform="translate(45,52)"/>
<path d="M0 0 C0.88751953 0.30744141 0.88751953 0.30744141 1.79296875 0.62109375 C5.83660816 1.9997571 9.76855249 3.31750847 14 4 C14 4.33 14 4.66 14 5 C7.79029227 5.33266291 3.71735105 4.45029331 -2 2 C-1.34 1.34 -0.68 0.68 0 0 Z " fill="#5F819B" transform="translate(47,83)"/>
<path d="M0 0 C3.63 1.32 7.26 2.64 11 4 C11 4.66 11 5.32 11 6 C6.15340923 5.40895235 2.39251833 4.02055843 -2 2 C-1.34 1.34 -0.68 0.68 0 0 Z " fill="#828282" transform="translate(54,46)"/>
<path d="M0 0 C1.98 0.495 1.98 0.495 4 1 C4 2.65 4 4.3 4 6 C2.35 6 0.7 6 -1 6 C-0.67 4.02 -0.34 2.04 0 0 Z " fill="#F1F1F1" transform="translate(58,61)"/>
<path d="M0 0 C5.75 0.75 5.75 0.75 8 3 C7.01 3.66 6.02 4.32 5 5 C3.02 4.01 1.04 3.02 -1 2 C-0.67 1.34 -0.34 0.68 0 0 Z " fill="#E4EEF2" transform="translate(73,28)"/>
<path d="M0 0 C1.65 0 3.3 0 5 0 C4.34 1.98 3.68 3.96 3 6 C1.68 5.67 0.36 5.34 -1 5 C-0.67 3.35 -0.34 1.7 0 0 Z " fill="#C7C7C7" transform="translate(41,54)"/>
<path d="M0 0 C2.125 -0.375 2.125 -0.375 5 0 C7.23913252 1.79340357 9.12454539 3.83452663 11 6 C10.67 6.66 10.34 7.32 10 8 C8.70684939 7.04367001 7.41553147 6.08486149 6.125 5.125 C5.40570313 4.59132813 4.68640625 4.05765625 3.9453125 3.5078125 C2 2 2 2 0 0 Z " fill="#416B8C" transform="translate(77,28)"/>
<path d="M0 0 C4.62 0 9.24 0 14 0 C14 0.33 14 0.66 14 1 C10.7 1 7.4 1 4 1 C4 1.66 4 2.32 4 3 C2.68 2.67 1.36 2.34 0 2 C0 1.34 0 0.68 0 0 Z " fill="#CEE7F0" transform="translate(55,84)"/>
<path d="M0 0 C1.98 0.99 1.98 0.99 4 2 C4 3.65 4 5.3 4 7 C2.68 6.67 1.36 6.34 0 6 C0 4.02 0 2.04 0 0 Z " fill="#FBFBFB" transform="translate(63,63)"/>
<path d="M0 0 C4.455 0.99 4.455 0.99 9 2 C8.67 2.99 8.34 3.98 8 5 C5.36 4.01 2.72 3.02 0 2 C0 1.34 0 0.68 0 0 Z " fill="#8F8F8F" transform="translate(71,53)"/>
<path d="M0 0 C2.31 0.66 4.62 1.32 7 2 C6.67 2.99 6.34 3.98 6 5 C4.02 4.34 2.04 3.68 0 3 C0 2.01 0 1.02 0 0 Z " fill="#EDF2F5" transform="translate(49,81)"/>
<path d="M0 0 C0 3 0 3 -2 5.1875 C-2.66 5.785625 -3.32 6.38375 -4 7 C-4.99 6.67 -5.98 6.34 -7 6 C-6.34 6 -5.68 6 -5 6 C-4.67 4.35 -4.34 2.7 -4 1 C-3.01 1 -2.02 1 -1 1 C-0.67 0.67 -0.34 0.34 0 0 Z " fill="#8A8A8A" transform="translate(79,67)"/>
<path d="M0 0 C1.32 0.33 2.64 0.66 4 1 C4 2.65 4 4.3 4 6 C2.68 5.67 1.36 5.34 0 5 C0 3.35 0 1.7 0 0 Z " fill="#FAFAFA" transform="translate(53,59)"/>
<path d="M0 0 C2.31 0.33 4.62 0.66 7 1 C7.33 1.99 7.66 2.98 8 4 C4.31245243 3.50168276 2.39509338 2.89932357 0 0 Z " fill="#295D83" transform="translate(39,80)"/>
<path d="M0 0 C0.99 0.33 1.98 0.66 3 1 C3 2.65 3 4.3 3 6 C1.68 6 0.36 6 -1 6 C-0.67 4.02 -0.34 2.04 0 0 Z " fill="#EBEBEB" transform="translate(49,57)"/>
<path d="M0 0 C0.99 0.33 1.98 0.66 3 1 C2.67 2.32 2.34 3.64 2 5 C1.01 5 0.02 5 -1 5 C-0.67 3.35 -0.34 1.7 0 0 Z " fill="#EBEBEB" transform="translate(45,56)"/>
</svg>
