<?xml version="1.0" encoding="UTF-8"?>
<svg version="1.1" viewBox="0 0 2000 2000" width="1280" height="1280" xmlns="http://www.w3.org/2000/svg">
<path transform="translate(758,664)" d="m0 0h478l15 1 19 6 13 7 13 11 10 12 8 16 4 13 1 5v49h12l14 2 13 5 11 7 6 5 10 13 5 11 2 10v21l-2 9-7 14-8 10-10 9-14 7-6 2-1 14-1 121-5 11-6 8-5 5-1 3v12l-3 8-6 7-7 4-4 1h-8l-9-4-7-8-2-4-1-18-1-3-4-2-11-14-4-1-17 1-3-3-1-4h-12l-2 1 9 11 8 10 8 13 7 15 6 18 4 20 1 8v17l-2 13-4 12-7 11-11 10-11 5-12 3-11 1-16-2-11-1-6 4-8 3h-123l-10-4-9-7-6-10-2-6-1-7v-25l4-35 6-25 8-24 7-16 6-13-11 1-4 5-2 1-294 1-10 13h-2l-2 5v13l-6 12-8 7-6 2h-10l-10-5-6-8-2-6-1-16-9-9-7-14-1-3v-134l-10-2-12-7-11-9-7-10-7-15-2-9v-16l2-11 5-12 8-11 8-8 11-7 13-5 12-2 13-1v-43l2-12 4-12 8-15 12-14 8-7 10-6 11-5 14-4zm16 11-21 1-17 5-13 7-12 11-7 9-8 16-3 10-1 8-1 44 9 4 11 6 4 3h2l1-42 4-15 6-11 8-10 8-7 13-8 10-4 16-2 16-1 15-4h22l13 4h140l1-23-1-1zm227 0-1 7v16l1 1 238 1 19 2 12 5 15 10 8 8 7 11 6 16 2 1v-17l-4-14-7-14-7-9-9-9-14-8-16-6-9-1zm322 120-15 3-12 6-12 11-7 11-3 8-2 11v195l7 14 6 5 8 3 14 1-4-4-5-4-5-8-2-7v-182l3-13 5-10 7-9 10-7 8-3 6-1h11l12 3 8 4 9 8 8 15h3v-7l-3-10-6-11-8-9-11-7-11-4-12-2zm-659 1-16 5-11 7-9 10-6 12-3 13v11l4 14 7 11 9 9 11 7 5 1-2-4-9-10-5-11-2-10v-9l2-11 7-14 8-8 10-6 11-3h11l11 2 10 5 8 7 7 11 4 12h2l-1-12-5-12-8-11-7-6-10-6-13-4zm262 88-8 6-4 5-3 7v7l1 3 3 1h11l3-2 4-10 3-3 3-1h91l5 1 2 6 2 1 1-8-4-7-5-4-7-2zm-258 16v137l2 9 4 6 8 7 11 4 3-1-7-7-3-7-1-16v-122l-1-4-12-6zm523 17-5 3-4 10-3 8v3l60 1 13 2 5 4 4-1-2-9-8-9-7-3-37-1-9-2-3-5zm-46 0-8 1-3 6-3 1-371 1-9 3-6 5-5 9-1 9 2 1 8-7 10-4 380-1 3-2 5-19-1-3zm-10 50-14 11-11 9-7 6-7 8-12 12-14 19-12 19-8 16-7 17-6 18-5 22-3 21-1 11v27l4 10 4 5 10 6 9 1 1-4-5-8-2-7v-25l3-25 5-25 8-25 11-25 12-20 10-14 8-10 12-13 8-8 10-8v-21zm60 104v14l10 22 1 4v15l-5 13-6 11v21l5 2h19l6-3 3-4 2-7v-21l-4-20-7-19-6-11-10-13-5-4zm107 2 4 2h4v-2zm-141 12-12 3-6 4-8 9-4 10v15l4 10 6 7 10 6 6 1-2-4-6-7-4-9v-11l3-8 7-7 6-3 10-2 10 3 9 6h2l1 3h2l-1-5-6-10-7-6-9-4z" fill="#0C4873"/>
<path transform="translate(986,348)" d="m0 0h46l28 2 33 4 32 6 31 7 27 8 30 11 25 11 22 10 23 13 20 12 22 14 17 12 18 14 14 12 15 13 10 9 10 10 7 8 9 10 10 11 9 11 12 15 13 19 10 15 10 16 6 10 7 14 10 19 11 23 11 26-1 3-8-16-12-21-12-19-12-17-14-19-11-13-9-11-35-35-8-7-11-10-17-13-16-12-16-10-14-9-18-10-19-10-35-15-26-10-29-9-28-7-31-6-25-3-27-2h-50l-30 2-31 4-29 6-37 10-38 13-28 12-21 10-18 10-23 14-19 13-18 13-15 12-8 7-4 2v2l-8 7-12 11-9 9-7 8-11 12-9 11-12 15-10 14-10 15-13 21-13 23-15 31-11 27-12 36-7 26-8 41-4 38-1 19v37l2 34 4 32 6 31 8 31 12 36 11 27 7 16 20 38 11 17 12 18 14 19 14 17 13 15 12 13 12 12 8 7 14 12 12 10 13 10 20 14 22 14 25 14 26 13 25 11 23 9 26 8 23 6 25 5 53 7 20 1 36 1v2l-48 3h-63l-40-4-36-6-25-5-26-7-40-14-18-7-20-9-17-8-21-12-26-15-20-13-14-10-21-16-15-13-17-16-29-29-9-11-11-13-13-17-10-14-10-15-15-25-12-21-12-24-12-29-9-24-10-33-7-28-6-31-5-42-2-27v-43l4-45 5-32 7-33 7-25 12-36 8-21 13-28 13-25 16-27 15-24 8-11 9-12 10-13 9-10 8-10 11-11 2-3h2l2-4 19-19 8-7 14-12 16-12 17-13 20-14 15-9 26-15 29-15 31-13 34-12 36-10 32-7 35-5 26-3z" fill="#0C4974"/>
<path transform="translate(1046,476)" d="m0 0h45l25 2 36 5 36 8 28 8 29 11 35 16 22 12 21 13 19 13 17 13 10 8 14 12 17 16 8 8 7 8 12 14 13 17 10 13 10 15 15 25 12 22 11 24 9 24 8 24 6 22 7 34 5 36 2 27v32l-2 26-5 37-5 25-8 30-7 22-8 21-9 20-8 16-12 23-12 19-9 14-12 16-11 14-12 14-11 12-9 10-10 9-11 9-11 10-13 10-10 8-23 15-26 15-27 14-21 9-31 11-18 5-32 8-24 4-23 3-33 3h-43l-39-4-32-6-25-6-22-7-17-6-24-10-28-13-23-13-12-8-16-11-18-13-16-12-13-12-8-7-12-12-7-8-14-15-9-11-14-18-11-16-12-19-17-32-8-18-7-15-3-10 3 3 9 17 13 21 13 18 10 13 11 13 10 11 7 8 17 16 14 12 13 11 20 15 19 12 25 14 17 9 21 9 30 11 24 7 36 7 29 4 10 1h47l28-2 24-3 24-5 25-6 21-6 32-13 20-9 16-8 15-8 19-12 14-10 19-14 12-11 8-7 12-11 15-16 8-9 9-11 16-21 14-22 15-28 8-16 10-23 9-25 8-28 6-29 4-27 2-19 1-20v-25l-2-26-4-33-3-15-7-28-10-32-12-29-14-28-14-24-10-15-13-18-8-10-12-14-7-7-6-7-8-7-13-13-8-7-13-11-15-11-23-15-24-14-15-8-30-13-21-8-24-7-29-7-50-6-32-3 4-2 6-1z" fill="#1CAFDF"/>
<path transform="translate(1153,932)" d="m0 0 1 3-4 27v23l4 16 7 14 10 13 14 15 30 30 10 15 7 15 4 11 4 19 1 9v11l-2 13-4 8-8 7-8 3-24 1-2 5v6l2 2 11 1h22l12-5 8-6 5-8 4-12 1-19v-14l-4-18-1-5-7-20v-3h-2l-3-8-3-3-2-5-4-5v-2h-2l-8-10-6-7v-2h-2l-2-4-2-1-3-9 1-2 6 5 7 8 6 4 8 9 6 8 8 13 7 15 6 18 4 20 1 8v17l-2 13-4 12-7 11-11 10-11 5-12 3-11 1-16-2-11-1-6 4-8 3h-123l-10-4-9-7-6-10-2-6-1-7v-25l4-35 6-25 8-24 7-16 6-13h-7l2-3-8 2-6-2h-289l-3-5 1-6 1-58-1-6 3-3-1-1-1-9 4-1 5-5 7-4 4-1 382-1 1 3 4 1 2-2 3-8h2zm-18 35-14 11-11 9-7 6-7 8-12 12-14 19-12 19-8 16-7 17-6 18-5 22-3 21-1 11v27l4 10 4 5 10 6 9 1 1-4-5-8-2-7v-25l3-25 5-25 8-25 11-25 12-20 10-14 8-10 12-13 8-8 10-8v-21zm60 104v14l10 22 1 4v15l-5 13-6 11v21l5 2h19l6-3 3-4 2-7v-21l-4-20-7-19-6-11-10-13-5-4zm-34 14-12 3-6 4-8 9-4 10v15l4 10 6 7 10 6 6 1-2-4-6-7-4-9v-11l3-8 7-7 6-3 10-2 10 3 9 6h2l1 3h2l-1-5-6-10-7-6-9-4z" fill="#0C4974"/>
<path transform="translate(758,664)" d="m0 0h478l15 1 19 6 13 7 13 11 10 12 8 16 4 13 1 5v49h12l14 2 13 5 11 7 6 5 10 13 5 11 2 10v21l-2 9-7 14-8 10-10 9-14 7-6 2-1 14-1 121-5 11-6 8-5 5-1 3v12l-3 8-6 7-7 4-4 1h-8l-9-4-7-8-2-4-1-18-1-3-4-2-11-14-4-1-17 1-3-3-1-5 13-3 1-1h5v-3l5-2 1-9-1-5v-15l1-10-1-19-4-4-10-1v-3l3 2-3-6-3-2 12-3 1-1v-9l2-1-2-9-7-8-7-3-37-1-9-2-2-5 19-3 27 1 7 1 6 2 5 1 3-1 1-14v-39l-1-24 1-10 1-5h2l1-5 3-9h2l1-4h2l2-4 5-6 15-10 11-3 3-2-1-25-3-14-2-15-6-16-9-14-10-10-14-8-16-6-9-1-241-1v23l1 1-1 56-1 20v14l-2 2-4-1 1-6-4 1-1-9 1-10v-23l1-3-2-1h3l-1-2h-2v-5l2-4-2-1h2l-2-13v-13l-1-4v-21h-215l-21 1-17 5-13 7-12 11-8 11-7 15-3 16-1 44 16 7 9 7 2 5 4 2 8 10 4 10 3 9 1 12-2 2v-4h-2l2 6h2l1 50v12l2 10 12-7h3v-2l8-1 133-1 1-5 3-14 7-11 6-5 8-4 7-2 19-1 9-2 4-3h2v-2h2v-2h2l2-5 10-6h2v-3h2l2-4 6-2 1-3 5-1 1 7 1 2-7 1-12 9-13 13v1h41l1-4 2-12 3-4-1-5-3-4 4-1 1 4 3 1-3 8 2 6-1 5h-2l2 6-1 2h4l3 4 4-2 5 1 5 3 7 9v4l-5 1-8-6-7-2h-98l-8 6-5 8-1 3v10l-2 1 17 1 6 1h65v2l9-1 31-1 6-2 1-5-1-11h2l1-2 2 1 2 7 3 8 3 2h12l1 1h53l9 1 4 3v5l-5 3-371 1-9 3-5 4-5 9-1 4 1 14 5 1v1h-6l-1 4 1 5-1 62v4l1 1h291l6 2 6-2 2 2-9 4-5 5-294 1-10 13h-2l-2 5v13l-6 12-8 7-6 2h-10l-10-5-6-8-2-6-1-16-9-9-7-14-1-3v-134l-10-2-12-7-11-9-7-10-7-15-2-9v-16l2-11 5-12 8-11 8-8 11-7 13-5 12-2 13-1v-43l2-12 4-12 8-15 12-14 8-7 10-6 11-5 14-4zm565 131-15 3-12 6-12 11-7 11-3 8-2 11v195l7 14 6 5 8 3 14 1-4-4-5-4-5-8-2-7v-182l3-13 5-10 7-9 10-7 8-3 6-1h11l12 3 8 4 9 8 8 15h3v-7l-3-10-6-11-8-9-11-7-11-4-12-2zm-659 1-16 5-11 7-9 10-6 12-3 13v11l4 14 7 11 9 9 11 7 5 1-2-4-9-10-5-11-2-10v-9l2-11 7-14 8-8 10-6 11-3h11l11 2 10 5 8 7 7 11 4 12h2l-1-12-5-12-8-11-7-6-10-6-13-4zm4 104v137l2 9 4 6 8 7 11 4 3-1-7-7-3-7-1-16v-122l-1-4-12-6zm634 173 4 2h4v-2z" fill="#0D3959"/>
<path transform="translate(1165,745)" d="m0 0h12l13 3 9 5 7 8 4 10 1 7v11l-4 20-8 24-13 28-8 16-10 22-10 24-3 9h-2v2l-2 1-2 8-3 2-5-2-1-2 6-21-1-2-9 1-4-3-15-1h-48l-1-1h-12l-3-3-3-9-2-4-4-1 2 12-2 5-6 2-40 1v-2l-6 1h-59l-10-1-14-1 1-2h16l2-1 4-10 4-4 3-1h91l5 2 3 6 1-7-2-5 5-1 2 1-2-5-5-6v-2l-4-1-3-2-4 1h-4l-2-4h-4l-1-8 2-1v-6l-2-1 1-5 2-6-2-1 1-2 2 1 2-6 8-10 11-13 14-14 8-7 15-12 20-13 23-12 27-9z" fill="#0C4873"/>
<path transform="translate(1492,1545)" d="m0 0h2v212l-2 2h-42l-1-124-10 5-17 12-19 14-18 13-4 2-11-7-15-11-17-12-18-13-5-4-3-1v23l-1 102-1 1h-40l-1-1-1-179v-18l1-15 4 2 16 12 11 8 12 9 30 23 28 21 9 7 5-1 11-8 13-10 16-12 18-14 32-24 14-11z" fill="#239EC5"/>
<path transform="translate(842,1544)" d="m0 0h13l16 2 17 5 16 8 13 9 12 11 8 9 8 13 7 14 4 13 3 18v14l-3 19-6 18-10 18-8 10-2 3h-2l-2 4-11 9-14 9-15 7-18 5-7 1h-25l-15-3-14-5-19-10-13-11-5-4-9-11-7-11-8-16-5-17-1-6v-29l3-16 6-16 9-16 11-13 5-5 9-8 14-9 15-7 19-5zm1 42-12 2-12 5-11 8-9 9-8 13-5 14-2 19 2 14 3 10 6 12 8 10 8 7 14 8 10 3 7 1h15l16-4 13-7 12-11 6-8 5-11 3-9 1-6v-23l-3-12-4-9-6-10-9-10-14-9-14-5-8-1z" fill="#0C4974"/>
<path transform="translate(547,1548)" d="m0 0h77l17 2 13 4 16 8 11 9 8 8 7 10 7 14 4 16v28l-5 19-8 16-7 9-9 9-10 7-7 3 6 8 10 10 7 8 14 15 6 8-49 1-9-1-14-15-16-17-3-3-23-1v36h-44v-210zm50 39-7 1v95l1 1h15l20-2 15-5 9-7 7-9 4-11 1-4v-24l-4-11-7-11-9-7-11-4-9-2z" fill="#0C4974"/>
<path transform="translate(346,1548)" d="m0 0h76l17 2 15 5 15 8 14 12 9 11 8 14 5 14 2 12v15l-2 14-5 17-9 17-8 10-9 9-12 8-17 7-20 4-18 1h-17v31h-43l-1-1zm47 39-3 1v100h26l14-2 14-7 9-9 7-14 2-11v-14l-4-16-6-10-7-8-10-6-9-3-7-1z" fill="#0C4974"/>
<path transform="translate(1546,1548)" d="m0 0h70l21 2 13 4 16 8 14 11 10 12 9 15 5 16 2 14-1 15-3 17-5 13-7 13-9 12-10 9-13 8-15 6-13 3-10 1-31 1v30l-2 1h-41l-1-4v-206zm46 39-3 1v99l1 1h30l12-3 11-6 9-9 6-12 3-13v-15l-3-12-6-12-9-10-11-6-12-3z" fill="#239EC5"/>
<path transform="translate(1136,985)" d="m0 0h1l4 13 5 13 7 12 11 14 17 16 3 4v21l-2 1-6-2-9-1h-9l-9 2-12 6-7 7-7 12-2 8v13l3 12 8 12 11 8 11 4h16l13-3 1 1v29l-4 8-7 7-8 3-17 1h-72l-21-1-1-5-5-10-1-4v-25l3-25 5-25 8-25 11-25 12-20 10-14 8-10 12-13 9-9 9-7z" fill="#1CAFDF"/>
<path transform="translate(675,809)" d="m0 0h11l11 2 10 5 9 8 7 11 3 9v3h2l2 12-1 66-1 13 2 1h-2l1 36v29l-1 23 2 17-4 7-4 1-1 4-3 3-10 5h-19l1-2h5l-7-7-3-7-1-16v-126l-6-2-6-3-1-2-5-1v2l-9-2-2-1-3-5-9-10-5-11-2-10v-9l2-11 7-14 9-9 10-6z" fill="#0C4974"/>
<path transform="translate(1330,814)" d="m0 0h11l12 3 8 4 10 9 7 14 3 1v-4h2l1 2v11l-4 8-2 5-4 8-1 3-3 1-3 6h-2v2h-2v2l-12 6-4 1-2 4-6 3-2 3v10l-1 7v16l-1 30v30l-1 32-2 14-3 7-5 3-4 4-6 1v3l-4 2h-7l-5-2 4-1h4l-8-6-6-9-2-7v-182l3-13 5-10 7-9 8-6 8-4z" fill="#0C4974"/>
<path transform="translate(1010,1549)" d="m0 0h44v171h19l66 1v36l-2 2h-126l-1-1z" fill="#239DC4"/>
<path transform="translate(1164,732)" d="m0 0h13l16 3 11 6 10 9 6 10 4 16v12l-4 23-8 24-11 24-14 29-9 21-13 40-2 20 1 17 4 14 7 11 9 11 13 13 14 11 7 7 7 8 10 14 5 9 4 8 6 15 4 17 2 17v14l-3 18-6 11-8 8-8 5-10 3h-15l-11-1-3-3 1-9 2-3 24-1 10-4 7-8 3-9 1-9v-11l-3-19-4-15-7-16-9-15-11-12-31-31-9-11-7-10-6-12-4-16v-23l4-27 6-17 13-30 12-26 8-16 9-21 6-20 3-16v-11l-2-10-5-10-7-6-9-4-10-2h-12l-18 3-27 9-25 13-19 13-16 13-15 14-8 8-9 11-7 10-2 4-4-2-8-5 2-5 13-16 7-8 11-12 16-15 19-14 16-10 21-11 19-7 14-4z" fill="#239EC5"/>
<path transform="translate(1174,1549)" d="m0 0h43l1 1v207l-2 2h-41l-1-2z" fill="#239EC5"/>
<path transform="translate(1128,957)" d="m0 0h6l1 3h2l1 12h3l1 7-1 5h-4l-1-16-5 3-11 9-10 8-6 5-7 8-12 12-14 19-12 19-8 16-7 17-6 18-5 22-3 21-1 11v27l4 10 5 5 8 5 8 1 1 2 9 2 63 1 40-1 1-2 5-2h5l3-9 4-3h4v6h2v3l8 1h14l9-1 16-6 6-4 5-5 4-6 4-12 1-19v-14l-4-18-1-5-7-20v-3h-2l-3-8-3-3-2-5-4-5v-2h-2l-8-10-6-7v-2h-2l-2-4-2-1-3-9 1-2 6 5 7 8 6 4 8 9 6 8 8 13 7 15 6 18 4 20 1 8v17l-2 13-4 12-7 11-11 10-11 5-12 3-11 1-16-2-11-1-6 4-8 3h-123l-10-4-9-7-6-10-2-6-1-7v-25l4-35 6-25 8-24 7-16 9-17 4-7h2l1-4 6-9 8-10 7-9h2l2-4 7-7 8-7 11-10 11-9 3-1v-2z" fill="#0D3958"/>
<path transform="translate(1186,1048)" d="m0 0 6 2 23 23 10 15 6 12 1 10 3 9 1 9 1 5-1 6 1 4v11l-3 3-1 9-5 10-9 4-20 1-6 4-5-1-2-6v-18l-2-4-5 1-6 2-7 1-14-1-10-4-3-5-9-7-3-3 1-3v-1l-3-9 1-6-1-14v-6l5-5 4-6 5-5h2v-2l9-5 5-1h18l7 2h4l1-18 2-4 1 3 5 2-3-9-4-4zm9 23v14l10 22 1 4v15l-5 13-6 11v21l5 2h19l6-3 3-4 2-7v-21l-4-20-7-19-6-11-10-13-5-4zm-34 14-12 3-6 4-8 9-4 10v15l4 10 6 7 10 6 6 1-2-4-6-7-4-9v-11l3-8 7-7 6-3 10-2 10 3 9 6h2l1 3h2l-1-5-6-10-7-6-9-4z" fill="#0D3858"/>
<path transform="translate(813,707)" d="m0 0h25l5 3 1 1v10l-7 12-4 5-2 5v6l5 9 9 11 7 13v15l-4 4-2 1h-11l-9-4-3-3-1-17-3-6-5-5-6-2h-18l-23 5-6 2h-7l-7-5-2-3v-6l4-5 12-5 13-5 8-6 5-6 7-12 7-7 8-4z" fill="#1CAFDF"/>
<path transform="translate(1046,476)" d="m0 0h45l25 2 36 5 36 8 28 8 29 11 35 16 22 12 21 13 19 13 17 13 10 8 14 12 17 16 8 8 7 8 12 14 13 17 10 13 10 15 15 25 12 22 11 24 9 24 8 24 6 22 7 34 4 28v10h-2l-1-6-1-16-2-5-5-28-4-16-2-5-1-9-3-7-2-7-2-5-2-7-3-11-3-6-2-7-4-9-12-25-6-11v-3l-3-1-9-16v-3h-2l-8-13-6-9-7-9v-2h-2l-6-9-7-8-3-6-16-16v-2l-4-2-11-11-7-6-5-6-7-6v-2l-8-4v-2l-6-2-6-7-8-5v-2l-5-2-13-9-18-11-9-5-11-7-10-6-6-4-16-6-16-7-10-4-5-1v-2l-10-2-15-5h-7l-1-2-12-3-7-2h-3l-17-5h-4v2l5 1 7 1-2 1v2l5 2 8 5 5 3 1 5 13 2 2 2 10 4 4 3v2l6 1 5 3 7 4 3 3 14 7 5 5 10 5 2 3 9 4 5 5 3 2 4 2 14 12 7 8v4l-4-2-7-7-17-13-11-8-20-13-24-14-15-8-30-13-21-8-24-7-29-7-50-6-32-3 4-2 6-1z" fill="#239FC7"/>
<path transform="translate(1533,914)" d="m0 0h1l1 12v32l-2 26-5 37-5 25-8 30-7 22-8 21-9 20-8 16-12 23-12 19-9 14-12 16-11 14-12 14-11 12-9 10-10 9-11 9-11 10-13 10-10 8-23 15-26 15-27 14-21 9-31 11-18 5-32 8-24 4-23 3-33 3h-43l-15-2-2-2h60l14-1 13-2h6l7-1 10-2h5l3-2h5v2l10-3h7l13-4 19-5 9-3 6-4 7-1 8-4 7 1 1-3 6-3h4l1-2 6-2 25-12 5-3 7-2 2-3h3v-2l6-2 3-3 7-4 6-4 5-3 2-2h3v-2l6-1 2-4 2-3 9-4h2l1-3 5-3h2v-2l8-6 2 1v-3h2l5-5 11-10 5-5 4-2v-3l7-6 2-3h2l2-4 3-4h2l2-4 3-4h3l2-4 7-11 3-1 2-5 3-1 2-6 4-7 1 2 4-9 4-6h2l1-7 3-8 5-5 1-2h2l1-5 3-1 2-7 5-4 3-8h2l2-8h2l-1-5 4-4 4-10 5-10 1-6h3l1-8 3-8h3v-6l4-5 2-9 5-21 2-10 3-11 1-9 2-7 2-20 1-9 3-8 2-14 1-23z" fill="#239FC6"/>
<path transform="translate(632,1108)" d="m0 0 3 3 9 17 13 21 13 18 10 13 11 13 10 11 7 8 17 16 14 12 13 11 20 15 19 12 25 14 17 9 21 9 30 11 24 7 36 7 29 4 28 2v2h-33l-10-1-6-2-11-2-12-3-14-2-11-3-5-1-36-12-18-8-10-3-17-8-16-8-14-9-7-4v-2l-4-1-9-5-9-6-3-3v-2h-3l-1-4h-3v-3l-5-2-4-2v-2l-5-1-8-8-8-7-7-7-8-7-9-9-4-5v-2h-2v-2h-2l-3-5v-3l-4 1-2-1 2 7 5 2 3 3 1 5-3-1 1 5 3-1 12 16 2 5 4 2 4 5 7 8 6 7 6 5 6 7 5 5 7 8 5 5 5 4 6 7 3 3 3 5 4 1 1 2 4 1 5 5 7 5 5 3 11 6 6 5 9 5 1 2 14 7 8 6 38 19 7 3 2 2 9 2 12 6 15 5 20 4 3 2v2l9-1 6 2 2 1v2l12-1 9 3v1l19 1 6 4v1l-15-1-32-6-25-6-22-7-17-6-24-10-28-13-23-13-12-8-16-11-18-13-16-12-13-12-8-7-12-12-7-8-14-15-9-11-14-18-11-16-12-19-17-32-8-18-7-15z" fill="#239EC6"/>
<path transform="translate(638,1226)" d="m0 0 4 2 10 15 14 19 14 17 13 15 12 13 12 12 8 7 14 12 12 10 13 10 20 14 22 14 25 14 26 13 25 11 23 9 26 8 23 6 25 5 53 7 20 1 36 1v2l-48 3h-63l-40-4-36-6-25-5-26-7-37-13v-3l8 2 7 1v2l11 2 9 4 15 5 17 3 27 6 9 1 17 3h10l9 1 5 1 4-2-3-3-5-2h-9v-3l-10-2-17-6-5-1-7-3-7-2-10-3-1-3-8-1v-2h-5l-20-10-4-1-15-8v-2l-9-3-5-2v-2l-6-1-10-7-10-6-4-2-6-4v-2h-3v-2l-5-1-4-4v-2l-6-2-6-4v-2h-2v-2h-2v-2l-6-2-10-8v-2h-2l-6-7-12-6-6-7-6-5-7-8v-2l-4-2-6-6v-2l-4-2v-2l-4-2-7-9v-3h-2l-1-4h-3l-3-6-4-4-2-6-5-4-5-6-3-3-5-9-3-3v-5l-3-1z" fill="#0E3D5D"/>
<path transform="translate(1349,509)" d="m0 0 7 1 7 5 8 4v2l4 2 3 2v2l4 1 7 7 11 7 13 11 5 4 1 4 4 2 3 1v3l4 1 6 4 6 7 4 2 6 7 4 3 2 4 9 6 3 5-1-4-6-9v-3h-2v-2h-2l-6-10-10-13-8-10-4-6v-2l-3-1-6-7-15-15-1-9 3 1 7 8 9 10 10 11 9 11 12 15 13 19 10 15 10 16 6 10 7 14 10 19 11 23 11 26-1 3-8-16-12-21-12-19-12-17-14-19-11-13-9-11-35-35-8-7-11-10-17-13-16-12-16-10-3-2z" fill="#0D3B5B"/>
<path transform="translate(1170,1098)" d="m0 0 11 3 11 7 3 3 1-2v13l-2 9-7 11-9 6-9 4-11 1-5-3 3-2-8-9-4-9v-11l3-8 8-8 6-3z" fill="#1CB0E0"/>
<path transform="translate(1146,1013)" d="m0 0 4 5 6 9 9 11 16 15 3 4v21l-2 1-6-2-9-1h-9l-9 2-12 6-7 7-7 12-2 8v13l3 12 8 12 11 8 11 4h16l13-3 1 1v29l-4 8-7 7-8 3-17 1h-72l-21-1-1-5-3-6 2-1 4 7 5-1 6 1h95l6-2v-2l3-2 3-7 2-3h2v-16l-2-3h-19l-16-4-12-9-6-8-3-5-3-11v-18l4-13 10-14 6-5 12-6 11-4 2-2h3l-1-3 2-8-2-9h-2l-5-9-8-11-2-6-2-4z" fill="#239EC5"/>
<path transform="translate(939,896)" d="m0 0h91l5 2 3 6 2-2 3 7-1 4-3 1h-105l-8-1 3-5 4-8 3-3z" fill="#239EC5"/>
<path transform="translate(988,961)" d="m0 0h3 3v2l9-1 13 1 1-2h5l4 2 1-2 2 1 8-1h14l19 1h17l2 1-1 3-9 2h-25l-18 1-12-1-23 1h-119l-94-1-19-2-1-3 9-1h103l49 1h19l12-1z" fill="#0C3655"/>
<path transform="translate(1409,1084)" d="m0 0 1 3-1 3h-2l-1 8-4 8h-2l-1 4-6 12h-2l-1 5-5 8-6 12-4 6v2h-3l1 3-6 5-1 4-2 1-1 3h-3l-1 4-4 5-4 7-3 1-2 4-3 3v2h-2v2h-2l-2 4h-2v3l-4 1-2 4h-2v3l-4 1-2 4-4 5h-2v2l-4 2-5 5-3 1-2 4-2 2h-3l-1 3-8 5-1 4-4 3-10 5-1 2-6 1-2 4h-2l-2 4h-5v4h-5v2l-9 2-2 5-8 5-18 9-9 5-7 3-8 1-1 2h-2l-2 2-10 3-1 1h-7v2l-11 3-6 3-9 1 3-3 15-5 27-11 20-9 16-8 15-8 19-12 14-10 19-14 12-11 8-7 12-11 15-16 8-9 9-11 16-21 14-22 15-28 8-16z" fill="#24A0C8"/>
<path transform="translate(814,694)" d="m0 0h22l13 4 3 5v9l-3 7h-2l-2 4h-1l-1-12-5-3h-25l-9 3-7 3-1-3 1-2-6 1-2 5h-2l-1 4h-2l-1 4-4 6-8 10-4-2-1-3 5-1 2-4 2-3h2l2-6 4-7 5-5v-5h-2l-1 2-3-1h-13v-3l14-2 16-1z" fill="#0D3757"/>
<path transform="translate(774,1302)" d="m0 0 2 2 4 1 5 5 7 5 5 3 11 6 6 5 9 5 1 2 14 7 8 6 38 19 7 3 2 2 9 2 12 6 15 5 20 4 3 2v2l9-1 6 2 2 1v2l12-1 9 3v1l19 1 6 4v1l-15-1-32-6-25-6-22-7-17-6-24-10-28-13-23-13-12-8-16-11-18-13-11-8v-2z" fill="#239FC7"/>
<path transform="translate(1128,754)" d="m0 0h5l-1 4-1 1 4 3-1 2-21 10-16 9-2 2h-4v2l-5 2v2h-2v2l-7 4-4 2v2h-3l-1 3-3 2-3-1v-4l-4-2 2-4 16-13 20-13 23-12z" fill="#0C3858"/>
<path transform="translate(992,848)" d="m0 0h8l8 5 4 4v7l-3 7-2 1h-39v-3l15-15z" fill="#249EC5"/>
<path transform="translate(1194,809)" d="m0 0 3 1v6l-2 6-6 17-3 5-10 20-6 13-4 7-3 8-4 9-4 10-1 6 2 4-1 11h-2v2l-2 1-2 8-3 2-5-2-1-2 6-20h2l2-4 4-9-2-1 10-25 12-26 15-30 4-11z" fill="#0C3655"/>
<path transform="translate(1169,722)" d="m0 0 15 1 8 1h6v2l6 1 3 2v2h5l1 5 2 1v2h2l1 3-5-1-1-2-2 1-2-2-2 2-1-2-5-2-6-1-9-1-8-1h-13l-23 4-9 1 1-2 11-4 5-3h4l1-3 13-3z" fill="#0C3858"/>
<path transform="translate(1289,1244)" d="m0 0m-3 1h3v2l-2 2-2 4-13 7-1 2-6 1-2 4h-2l-2 4h-5v4h-5v2l-9 2-2 5-8 5-18 9-9 5-7 3-8 1-1 2h-2l-2 2-10 3-1 1h-7v2l-11 3-6 3-9 1 3-3 15-5 27-11 20-9 16-8 15-8 19-12 14-10z" fill="#239FC7"/>
<path transform="translate(1060,775)" d="m0 0m-4 1h4l-1 4-10 9-12 11-13 14-10 13-6 7h-2l-1 3v-2h-3v-2h-7l2-4 5-3v2l3-2 2-6h2v-2h2l1-4 4-7 11-8 5-5h2l2-4h2v-2l9-6h5l1-3h2z" fill="#0C3758"/>
<path transform="translate(684,1359)" d="m0 0 5 3v2l10 3 6 3 1 2 10 5 5 3 4 2v2l7 2 4 3 7 3 2 1v2l5 2 8 5h3v2l8 2v2l8 2v2l9 3 11 4v2l5 1 5 5-8-1-25-11-19-9-21-12-26-15-20-13-6-4v-2z" fill="#0E3C5C"/>
<path transform="translate(1136,985)" d="m0 0h1l4 13 2 9-4-5-4-1-9 6-2-1v2l-5 3h-2l-2 4-3 1-1 3-2 1-1 3-5 1-1 4-8 9-4 8-3 4h-2l-2 5-8 16-5 11-3 7h-3l3-9 9-20 15-24 13-17 14-15 8-8 9-7z" fill="#249FC6"/>
<path transform="translate(780,804)" d="m0 0h7l5 9v12l-5 6-6 2-8-1-4-5-2-4v-7l5-7z" fill="#1DADDC"/>
<path transform="translate(1184,740)" d="m0 0 8 1 7 2 2 2 8 4v2h2v2h-2l3 6 1-4 1 4h2l2 6 1 6v6l3 3-1 5-1 2h-8l-2-15-7-14-7-6-3-3-9-4-1-2z" fill="#1CAFDE"/>
<path transform="translate(578,1263)" d="m0 0 3 1v2h2l7 8 2 4 7 4 2 4 6 4 6 7 5 5 5 4 5 6 8 7 10 8 6 5 7 8 5 5 6 3 5 5 2 4-4-2-19-14-10-9-8-7-15-14-29-29-9-11-5-6z" fill="#0E3C5C"/>
<path transform="translate(1170,1098)" d="m0 0 11 3 11 7-1 6-10-1-10-5h-7-3l-5 5-5 2-2 4v2h-2v9l1 3h-3l-1-3v-11l3-8 8-8 6-3z" fill="#249FC6"/>
<path transform="translate(894,1374)" d="m0 0 8 1 12 6 15 5 20 4 3 2v2l9-1 6 2 2 1v2l12-1 9 3v1l19 1 6 4v1l-15-1-32-6-25-6-22-7-17-6-10-4z" fill="#23A0C9"/>
<path transform="translate(1195,1109)" d="m0 0h1v13l-2 9-7 11-9 6-9 4-11 1-5-3 3-2-8-9-1-4h3l3 3 1 4 4 4 7-1 8-2 9-5h2l1-5 2-9 2-4 3-2 1-6h2z" fill="#249FC6"/>
<path transform="translate(688,1072)" d="m0 0h17l5 2v8l-3 6-7 4-6-1-5-4-2-4v-8z" fill="#249EC5"/>
<path transform="translate(1292,1072)" d="m0 0h19l3 2v8l-3 6-7 4h-6l-6-7-1-3v-9zm10 1 4 2h4v-2z" fill="#239EC5"/>
<path transform="translate(675,1728)" d="m0 0h2l7 8 14 15 6 8h-38l2-2h8l5-2v-7l-6-16z" fill="#0D3858"/>
<path transform="translate(852,1310)" d="m0 0 10 3 25 9 21 6 36 7 29 4 28 2v2h-33l-10-1-6-2-11-2-12-3-14-2-11-3-5-1-36-12-9-4-2-1z" fill="#239FC7"/>
<path transform="translate(850,371)" d="m0 0h4l-1 3-14 4-7 3-10 3-7 3-13 5-15 6-16 8-12 5-3-1v-2l27-13 33-13 30-10z" fill="#0E4262"/>
<path transform="translate(1341,459)" d="m0 0 5 2 14 11 14 12 15 13 10 9 5 5v5l2 5-9-9v-2h-3l-2-4-6-4-5-6-8-7-3-5-12-7-2-3-3-1-6-7-2-1v-2h-2v-2h-2z" fill="#0E3F60"/>
<path transform="translate(1444,876)" d="m0 0 3 2 1 13v8l1 9v23l-1 9v8l-2 10h-2l1 3-3 7h-1l1-17 2-30z" fill="#239FC7"/>
<path transform="translate(838,839)" d="m0 0 6 1 8 6 1 6-3 5-7 2-5-2-4-5-1-8z" fill="#239EC5"/>
<path transform="translate(1176,958)" d="m0 0 3 1 4 8 1 6v26l-3 1-5-13-1-6v-14z" fill="#249EC5"/>
<path transform="translate(981,863)" d="m0 0 12 2h12l4 2v4l-2 1h-39v-3l6-4h3z" fill="#1DACDB"/>
<path transform="translate(828,850)" d="m0 0h5l1 3 5 4 6 1 5-1h3l3 1-1 4-8 5h-13l-7-8-1-3z" fill="#0C3757"/>
<path transform="translate(868,1547)" d="m0 0h7l18 6 16 9 14 11 7 7 1 7h-2l-3-6-5-4-4-4v-2h-2v-2l-5-1-7-4v-2h-5l-4-3-16-6-10-4z" fill="#0D3C5C"/>
<path transform="translate(1153,911)" d="m0 0 2 3-1 3 2 4-1 11h-2v2l-2 1-2 8-3 2-5-2-1-2 6-20h2l2-4z" fill="#0D3958"/>
<path transform="translate(1291,1071)" d="m0 0h23l3 2v14l-5 5h-2v2h-13l-5-3h-4l-4-7 1-4 2-7zm1 1-1 1v9l3 6 4 4 9-1 5-4 2-5v-8l-3-2z" fill="#0C4974"/>
<path transform="translate(1270,468)" d="m0 0 15 5 10 5 6 2 20 10 5 2 2 2 5 2 8 7 5 2-1 3-23-13-21-11-30-13z" fill="#0E3E60"/>
<path transform="translate(939,1712)" d="m0 0 1 3-8 10-2 3h-2l-2 4-11 9-14 9-15 7h-3v-3l8-4 4-1 5-4 4-1 1-2h2v-2h3l1-3h3l1-2 4-4 7-3 8-11z" fill="#0D3A5A"/>
<path transform="translate(1366,661)" d="m0 0 5 1 5 5v2h-2l2 3h3l12 20 5 11 1 5h-2v-2l-4-2-11-20-12-18z" fill="#23A0C8"/>
<path transform="translate(648,1553)" d="m0 0 6 1 16 8 11 9 8 8 7 10 4 7v3l-4-2-7-9-4-8-3-3v-2l-3-1-1-2-6-3-8-6-12-6-3-1z" fill="#0E4061"/>
<path transform="translate(1196,1110)" d="m0 0 2 2v17l-4 12-3 3-2 5-5 5-2-2-2-1-11 1 3-2 11-6 5-5 5-8 2-9z" fill="#0C4974"/>
<path transform="translate(706,437)" d="m0 0h5l-5 6h-3v2l-8 4-3 4-6 3h-2l-1 3h-3v2l-6 4-6 3-2 3h-4l2-4 16-12 18-13z" fill="#0E4061"/>
<path transform="translate(687,1071)" d="m0 0h23l2 2 1 8-3 7-6 5-3 1h-8l-6-1v-2l-2-1-1-7-2-1 2-8h2zm1 1-1 3v8l4 6 5 3 7-1 5-5 2-4v-8l-5-2z" fill="#0C4974"/>
<path transform="translate(822,775)" d="m0 0 2 2 1 8v6l2 2 1 2 7-1 11 3 4-2v-12l-2-4 1-3 3 6v15l-4 4-2 1h-11l-9-4-3-3z" fill="#249EC5"/>
<path transform="translate(1150,998)" d="m0 0 5 5 6 12 10 13 13 14-1 3-10-8-7-8v-2l-4-2-1-4h-2l-8-16z" fill="#0C3A5C"/>
<path transform="translate(1170 1e3)" d="m0 0 4 1 1 4 4 2 4 5 2 1-2 5h3v2h2v2h2v2h2v2l4 2v2l4 2v2l4 2-1 2-8-5-15-15-10-14z" fill="#0C3C5F"/>
<path transform="translate(876,1754)" d="m0 0 4 2 2 2-14 4-7 1h-25l-2-2 5-2h18l10-2z" fill="#0E3D5D"/>
<path transform="translate(1141,996)" d="m0 0h2l8 18 9 13 6 7v2h2v3l-4-1-10-12-8-13-4-9z" fill="#0C395B"/>
<path transform="translate(1334,619)" d="m0 0 5 3 3 5 11 11 2 4v2l4 1-1 1 7 6-2 2 3 3v2l-4-1-10-14-11-13-7-8z" fill="#22A0C8"/>
<path transform="translate(1259,408)" d="m0 0 6 2 27 15 22 14 2 1-1 2-6-2-9-6-3-1v-2h-2v-2h-5l-3-2v-2l-5-2-6-3-8-5-5-2-1-2-3-1z" fill="#0E4162"/>
<path transform="translate(1100,748)" d="m0 0h6v2l-19 10-15 10-7 5-3-1 6-6 6-3 8-7 8-4h2l1-2 5-2z" fill="#0C3A5C"/>
<path transform="translate(665,629)" d="m0 0 1 2-13 18-11 16h-2l1-7 6-7 3-6 5-7 3-4 5-3z" fill="#0E4061"/>
<path transform="translate(1190,843)" d="m0 0 2 1-1 6-11 23-8 17-1 3h-2v-7l1-3h3l2-8 7-14v-2l2-1 2-7 3-3z" fill="#0C3B5D"/>
<path transform="translate(1131,1324)" d="m0 0h6l-2 3-11 2-10 4-6 1-4 1-11 2h-4l-2-1 2-2 35-8z" fill="#23A0C8"/>
<path transform="translate(748,754)" d="m0 0 1 2-1 2v6l1 2 5 2 1 2 10-2 13-3h3v-2h29l5 2 5 5v3l-5-5-7-3h-18l-23 5-6 2h-7l-7-5-2-3v-6z" fill="#249EC5"/>
<path transform="translate(1184,1305)" d="m0 0 2 1-3 5-10 3-1 1h-7v2l-11 3-6 3-9 1 3-3 15-5z" fill="#22A0C9"/>
<path transform="translate(1263,704)" d="m0 0 5 1 16 10 10 10 5 8-1 2-7-8v-2l-4-2v-2l-6-2-5-3-2-3-3-1v-2l-4-1-4-4z" fill="#0E4060"/>
<path transform="translate(485,716)" d="m0 0 1 3-4 13h-2v8l-2 3-1 5-2 7h-2l-1 2v-7l10-31h2z" fill="#0F4263"/>
<path transform="translate(1047,1339)" d="m0 0h10v2l-11 2h-44l2-2z" fill="#239FC7"/>
<path transform="translate(810,1551)" d="m0 0h3l-2 4-9 5-6 3h-2l-1 2-7 2-4 5-5 2 6-8 14-9z" fill="#0E3E5E"/>
<path transform="translate(773,801)" d="m0 0 5 1-1 5-5 3-4 6-1 6h-2l-2-5 1-7 1-2h2l1-4z" fill="#0C3859"/>
<path transform="translate(1181,918)" d="m0 0 3 1 1 5-5 14-4 3-1-1v-5l2-7-1-5 2-3h3z" fill="#0D3B5B"/>
<path transform="translate(836,840)" d="m0 0 6 1 2 4-3 2 2 3-2 6-5-1-3-6 1-7z" fill="#1DABD9"/>
<path transform="translate(547,595)" d="m0 0v3l-5 10-4 1-2 9-4 6-3 5-4 5h-2l2-6 17-28z" fill="#0F4465"/>
<path transform="translate(581,1754)" d="m0 0h9v5h-43l3-3 15 1h12z" fill="#0C3655"/>
<path transform="translate(1081,1054)" d="m0 0 1 2-8 16-4 9-3 7h-3l3-9 9-20z" fill="#28A3CB"/>
<path transform="translate(1289,1244)" d="m0 0m-3 1h3v2l-2 2-2 4-13 7-1 2h-5l2-4z" fill="#239EC6"/>
<path transform="translate(675,809)" d="m0 0h11l4 2-17 3-10 3-6 2 3-5 10-4z" fill="#0E4162"/>
<path transform="translate(821,703)" d="m0 0h9l10 2 2 4-4-1h-25l-7 1 1-2z" fill="#0C4974"/>
<path transform="translate(632,1108)" d="m0 0 3 3 9 17 4 8-1 4h-2l-11-24z" fill="#156F99"/>
<path transform="translate(1198,1057)" d="m0 0 7 6 10 10 10 15 6 12-1 3-3-5-6-12-8-11-9-10-6-6z" fill="#0C4974"/>
<path transform="translate(842,1544)" d="m0 0h13l7 1v2l-26 1-6-1 1-2z" fill="#0F4263"/>
<path transform="translate(1046,895)" d="m0 0 3 1 2 7 3 8h-3l-6-1-1-13h2z" fill="#0D3655"/>
<path transform="translate(615,1186)" d="m0 0 3 1 10 19v2l-3 1-2-5-2-1-3-5-2-6-1-1z" fill="#0E3F5F"/>
<path transform="translate(636,490)" d="m0 0 3 1-4 5h-2l-2 5h-2l-2 4-6 5-4 4-1-3 14-14z" fill="#0D3959"/>
<path transform="translate(1183,1019)" d="m0 0h3v2h2v2h2v2h2v2l4 2v2l4 2v2l4 2-1 2-8-5-9-9z" fill="#0C3A5C"/>
<path transform="translate(791,511)" d="m0 0h4l-1 3-11 7-6 4h-2v-2h2l1-4 1-2 9-2 1-3z" fill="#0E4062"/>
<path transform="translate(752,708)" d="m0 0 3 1-1 3h-2l-1 2-1-1-3 1 1 4-2 2-7 2-1 3-1-4 7-8z" fill="#0D3B5C"/>
<path transform="translate(1188,1390)" d="m0 0m-2 0 2 1-1 3-20 5h-5l2-3 20-5z" fill="#22A0C8"/>
<path transform="translate(848,841)" d="m0 0 8 2 3 7-2 5-3 1-2-1v-7z" fill="#0C3859"/>
<path transform="translate(954,1677)" d="m0 0h1l-1 9-5 13-2 2-2-5 5-9z" fill="#0F4364"/>
<path transform="translate(1158,747)" d="m0 0h11v1h-7v2h-2v3h2v2l-6 2-3-1 2-5-5-1 4-2z" fill="#0C3655"/>
<path transform="translate(1062,1096)" d="m0 0h2l-1 7-3 9-2 8h-3l1-9 2-7h2z" fill="#29A2C9"/>
<path transform="translate(831,738)" d="m0 0 1 3-1 2v6l5 9 9 11 3 5-1 2-10-13-7-10-2-5 1-6z" fill="#249EC5"/>
<path transform="translate(770,524)" d="m0 0h4l-1 4-12 9-4-1 5-6 4-2z" fill="#0E3E5F"/>
<path transform="translate(813,707)" d="m0 0h25l5 3 1 1v10l-2 2v-10l-2-3-3-1h-12l-7 1-9-1z" fill="#249EC5"/>
<path transform="translate(1315,819)" d="m0 0 2 1-3 4h-2l-1 4-4 2-1 2-5 1 2-5 8-7z" fill="#0F4263"/>
<path transform="translate(522,1182)" d="m0 0 4 2v2l2 1 5 5 2 5-1 2h-3l-9-15z" fill="#0D3B5B"/>
<path transform="translate(847,844)" d="m0 0 4 1 2 3-1 7-8 1 2-4z" fill="#1DACDA"/>
<path transform="translate(801,1748)" d="m0 0 7 2 6 4v2h3v2l-5-1-12-6z" fill="#0E3C5D"/>
<path transform="translate(1425,1038)" d="m0 0 2 4-2 7-3 8v2h-2l-2 4 1-8z" fill="#26A1C9"/>
<path transform="translate(910,912)" d="m0 0 24 1 9 1-1 2h-9l-10-1-14-1z" fill="#0C4B76"/>
<path transform="translate(620,696)" d="m0 0h1v5l-8 15-2-1 1-5 4-8z" fill="#0D3D5E"/>
<path transform="translate(1295,428)" d="m0 0 8 4 13 8-1 2-6-2-9-6-3-1v-2h-2z" fill="#0E3F60"/>
<path transform="translate(826,491)" d="m0 0 1 3-12 7-4-1 1-2 5-3 1-2z" fill="#0E4061"/>
<path transform="translate(613,514)" d="m0 0 2 2-4 5h-2v2h-2v2h-2v2l-5 3v-4l11-10h2z" fill="#0C3757"/>
<path transform="translate(939,1712)" d="m0 0 1 3-8 10-2 3h-2l-1 2 1-5 7-9z" fill="#0E4263"/>
<path transform="translate(1100,748)" d="m0 0h6v2l-15 8h-2l2-4 2-2 5-2z" fill="#0C3B5E"/>
<path transform="translate(631,674)" d="m0 0h4l-1 4-7 12h-2l3-10 2-5z" fill="#0E4061"/>
<path transform="translate(1366,661)" d="m0 0 5 1 5 5v2h-2l-1 4-7-10z" fill="#21A3CD"/>
<path transform="translate(1344,816)" d="m0 0h7l10 5 1 2-4 1-14-7z" fill="#0E3D5D"/>
<path transform="translate(846,768)" d="m0 0h5v3h2l3 4-1 2-2-1-3 1-3-3z" fill="#0C3757"/>
<path transform="translate(793,1559)" d="m0 0 2 1-2 5-7 2-4 5-5 2 6-8z" fill="#0D3C5D"/>
<path transform="translate(908,1329)" d="m0 0 10 1 14 3-1 2-16-2-7-3z" fill="#22A0C9"/>
<path transform="translate(1417,1064)" d="m0 0 2 1-6 15-4 3 3-9 4-9z" fill="#2CA3C9"/>
<path transform="translate(1137,972)" d="m0 0h4l1 7-1 5h-4z" fill="#0C3655"/>
<path transform="translate(835,834)" d="m0 0 5 1 3 3-9 3h-2l-1-3z" fill="#0C3758"/>
<path transform="translate(1176,875)" d="m0 0 1 4-6 14h-2v-7l1-3h3l2-7z" fill="#0C395A"/>
<path transform="translate(1529,880)" d="m0 0 2 3 1 8v10h-2l-1-6-1-14z" fill="#22A0C8"/>
<path transform="translate(1298,836)" d="m0 0 2 2-4 9-2 7-2 1v-7l5-11z" fill="#0E3D5D"/>
<path transform="translate(579,792)" d="m0 0h1v7l-4 12h-2l1-9 1-5 2-1z" fill="#0E4162"/>
<path transform="translate(780,1569)" d="m0 0m-2 1 2 1-8 9-3 3-2 3-2-1 2-4 5-6z" fill="#0F4869"/>
<path transform="translate(496,688)" d="m0 0 1 2-3 10h-2l-2 5h-1l1-7 4-8z" fill="#0E4162"/>
<path transform="translate(867,366)" d="m0 0h5v2l-16 5-1-2 1-2z" fill="#0E4163"/>
<path transform="translate(888,1597)" d="m0 0 7 2 4 5v5l-7-6-4-3z" fill="#0D3C5C"/>
<path transform="translate(742,546)" d="m0 0 2 1-1 4-8 7-3-1 2-1-1-3 4-2 3-3h2z" fill="#0E4163"/>
<path transform="translate(709,576)" d="m0 0h4l-2 4-6 6h-2l1-4 3-5z" fill="#0C395B"/>
<path transform="translate(721,565)" d="m0 0h4l-2 4-6 5h-2l1-5 2-3z" fill="#0E4263"/>
<path transform="translate(476,743)" d="m0 0 2 4-3 8h-2l-1 2v-7l3-6z" fill="#0D395A"/>
<path transform="translate(532,620)" d="m0 0 1 3-4 6-4 5h-2l2-6 3-5z" fill="#0E3F5F"/>
<path transform="translate(572,560)" d="m0 0 1 3-2 4h-3l-1 4-4 2 2-6 4-5z" fill="#0E3F60"/>
<path transform="translate(578,1263)" d="m0 0 3 1v2h2l7 8v3l-4-2-8-10z" fill="#0E3D5E"/>
<path transform="translate(994,849)" d="m0 0h5v4l-1 2-5 1v-2l-2-1z" fill="#1CB0E0"/>
<path transform="translate(759,737)" d="m0 0 3 2-3 3-8 1-2-3z" fill="#0C3655"/>
<path transform="translate(1238,398)" d="m0 0 9 3 10 5v2l-4-1-12-6h-3z" fill="#0F4264"/>
<path transform="translate(595,1147)" d="m0 0h4l3 7-1 5-2-1-2-6z" fill="#0E3F60"/>
<path transform="translate(503,673)" d="m0 0 1 3-3 5v3h-2v2l-3 1 1-5 3-7z" fill="#0E3D5E"/>
<path transform="translate(820,1589)" d="m0 0h6v2l-10 5-3-1 1-2h2v-2z" fill="#0E4466"/>
<path transform="translate(462,796)" d="m0 0h2v7h-2v4h-3l1-10z" fill="#0E4061"/>
<path transform="translate(1077,762)" d="m0 0m-1 1m-1 1m-1 1m-1 1v3l-8 6-3-1 6-6z" fill="#0C395A"/>
<path transform="translate(479,732)" d="m0 0h1v8l-5 5-1-2 4-10z" fill="#0F4566"/>
<path transform="translate(1438,984)" d="m0 0h2l-1 8 1 3-2 5h-2l1-13z" fill="#239FC7"/>
<path transform="translate(1443,968)" d="m0 0h1v5l-2 5-1 4h-2l1-13z" fill="#22A1CA"/>
<path transform="translate(599,740)" d="m0 0 1 4-4 8-3-3 3-6z" fill="#0E4264"/>
<path transform="translate(1154,1317)" d="m0 0 2 1-5 4-12 2 3-3z" fill="#22A2CB"/>
<path transform="translate(588,541)" d="m0 0 2 2-2 1-1 3-6 5-3 1 2-4 4-5z" fill="#0E4162"/>
<path transform="translate(1526,696)" d="m0 0 2 3 6 14-1 3-8-16z" fill="#12638D"/>
<path transform="translate(536,611)" d="m0 0h1l-1 7-7 5 2-5z" fill="#0E476A"/>
<path transform="translate(781,772)" d="m0 0 5 1 1 3-5 1-5-1z" fill="#0D3655"/>
<path transform="translate(1412,744)" d="m0 0h2l2 5 3 9-2 1-5-12z" fill="#22A0C9"/>
<path transform="translate(466,776)" d="m0 0 2 2-2 9-3 1 1-9z" fill="#0F4263"/>
<path transform="translate(749,962)" d="m0 0h6l-2 4 4 1-8 1-2-2h2z" fill="#0C3656"/>
<path transform="translate(836,746)" d="m0 0h2l1 3v7h-3v-3l-2-1 1-3h2z" fill="#0D3655"/>
<path transform="translate(837,731)" d="m0 0h2l-1 8h-2l-2 3-1-5z" fill="#0C3A5C"/>
<path transform="translate(1328,450)" d="m0 0 4 1 7 5v2l-6-2z" fill="#0F4263"/>
<path transform="translate(693,1678)" d="m0 0 1 4-6 8-1-3 3-5z" fill="#0F4668"/>
<path transform="translate(1145,731)" d="m0 0m-1 1m-2 1h2v2h-3v2l-9 1 1-2z" fill="#0C3A5C"/>
<path transform="translate(810,1709)" d="m0 0 4 1 8 5-1 2-5-2-6-5z" fill="#0F4466"/>
<path transform="translate(795,1613)" d="m0 0 1 3-5 8-2-4z" fill="#0E3F60"/>
<path transform="translate(1081,1054)" d="m0 0 1 2-4 7-4 2 2-6z" fill="#39ABCF"/>
<path transform="translate(507,664)" d="m0 0 1 3-3 6-4 2 2-6 2-4z" fill="#104B6D"/>
<path transform="translate(558,580)" d="m0 0 1 2-3 4h-2l-2 4-3 1 2-4 5-5z" fill="#0D3B5B"/>
<path transform="translate(635,1744)" d="m0 0 4 1 3 6h-3l-4-4z" fill="#0C3859"/>
<path transform="translate(775,807)" d="m0 0 2 1-7 7-2 8h-1v-7l5-7z" fill="#22A2CB"/>
<path transform="translate(1180,867)" d="m0 0h2l-2 6-3 4-1-3 2-5z" fill="#0C3C5F"/>
<path transform="translate(813,780)" d="m0 0h2l2 3v6l-4-3-1-4z" fill="#0D3655"/>
<path transform="translate(1089,774)" d="m0 0 2 1 1 6-5-1-2-3z" fill="#0C4670"/>
<path transform="translate(1534,716)" d="m0 0" fill="#1CB0E0"/>
<path transform="translate(631,1107)" d="m0 0" fill="#249EC5"/>
</svg>
