<?xml version="1.0" encoding="UTF-8"?>
<svg version="1.1" xmlns="http://www.w3.org/2000/svg" width="120" height="120">
<path d="M0 0 C39.6 0 79.2 0 120 0 C120 39.6 120 79.2 120 120 C80.4 120 40.8 120 0 120 C0 80.4 0 40.8 0 0 Z " fill="#FEFEFE" transform="translate(0,0)"/>
<path d="M0 0 C2.26003559 1.90123432 4.07658914 3.74686157 6 6 C5.67 6.66 5.34 7.32 5 8 C2.525 6.02 2.525 6.02 0 4 C-0.66 4.33 -1.32 4.66 -2 5 C-1.113125 5.639375 -0.22625 6.27875 0.6875 6.9375 C6.25520525 11.55526502 9.54197073 18.29956844 10.23828125 25.4453125 C10.47475955 33.98342387 8.50840197 40.20156273 3.8125 47.3125 C-3.88994275 54.67261196 -11.8461021 56.48053858 -22.26171875 56.27734375 C-27.07702985 55.92009496 -30.15821548 54.85289693 -34 52 C-34.65871094 51.51789063 -35.31742188 51.03578125 -35.99609375 50.5390625 C-39.33459397 47.89244462 -41.26332845 46.32677975 -42 42 C-41.56429687 42.39832031 -41.12859375 42.79664063 -40.6796875 43.20703125 C-40.08414063 43.73683594 -39.48859375 44.26664063 -38.875 44.8125 C-38.29492188 45.33457031 -37.71484375 45.85664062 -37.1171875 46.39453125 C-29.82652438 51.92305993 -22.84167579 51.73119408 -14 51 C-11.16998856 50.30910519 -9.50076295 49.54809135 -7 48 C-6.505 47.01 -6.505 47.01 -6 46 C-6.66 46 -7.32 46 -8 46 C-9.4606285 43.35261084 -10 42.10551666 -10 39 C-11.65 39 -13.3 39 -15 39 C-15.495 39.99 -15.495 39.99 -16 41 C-16.33 40.67 -16.66 40.34 -17 40 C-18.51469448 39.76807135 -20.03754562 39.58784762 -21.5625 39.4375 C-22.38878906 39.35371094 -23.21507813 39.26992187 -24.06640625 39.18359375 C-25.02353516 39.09271484 -25.02353516 39.09271484 -26 39 C-26.04898438 39.63808594 -26.09796875 40.27617188 -26.1484375 40.93359375 C-26.22320312 41.75988281 -26.29796875 42.58617187 -26.375 43.4375 C-26.44460937 44.26121094 -26.51421875 45.08492187 -26.5859375 45.93359375 C-26.72257812 46.61550781 -26.85921875 47.29742187 -27 48 C-27.99 48.495 -27.99 48.495 -29 49 C-29.125 42.375 -29.125 42.375 -28 39 C-31.00259517 38.66781808 -31.00259517 38.66781808 -32.6875 40.5 C-33.120625 40.995 -33.55375 41.49 -34 42 C-34 38.66666667 -34 35.33333333 -34 32 C-34.63514826 29.65789079 -35.2986716 27.32315031 -36 25 C-36 26.65 -36 28.3 -36 30 C-36.66 29.34 -37.32 28.68 -38 28 C-38 27.01 -38 26.02 -38 25 C-38.66 25 -39.32 25 -40 25 C-40.33 23.35 -40.66 21.7 -41 20 C-39.39815374 19.8647597 -37.79303374 19.76789153 -36.1875 19.6875 C-35.29417969 19.62949219 -34.40085937 19.57148437 -33.48046875 19.51171875 C-32.66191406 19.67285156 -31.84335937 19.83398438 -31 20 C-30.5565625 20.825 -30.113125 21.65 -29.65625 22.5 C-29.1096875 23.325 -28.563125 24.15 -28 25 C-25.21400429 25.38060051 -23.06627249 25.47962905 -20.3125 25.3125 C-19.2596582 25.27866211 -19.2596582 25.27866211 -18.18554688 25.24414062 C-16.4561167 25.18531647 -14.72778562 25.09563389 -13 25 C-13.495 23.515 -13.495 23.515 -14 22 C-12.68 21.34 -11.36 20.68 -10 20 C-11.06201737 17.77260299 -11.06201737 17.77260299 -13 15 C-13.69313908 13.34416775 -14.36474424 11.67889021 -15 10 C-14.505 9.505 -14.505 9.505 -14 9 C-15.00160156 9.01160156 -16.00320312 9.02320312 -17.03515625 9.03515625 C-18.37760228 9.04454398 -19.72005036 9.05364312 -21.0625 9.0625 C-23.02896484 9.07990234 -23.02896484 9.07990234 -25.03515625 9.09765625 C-28.8163519 9.00452335 -32.27920707 8.61448726 -36 8 C-36.99 9.485 -36.99 9.485 -38 11 C-38.33 10.34 -38.66 9.68 -39 9 C-43.38885174 11.96544036 -45.45963946 15.0042529 -47 20 C-48.25058914 31.05250406 -46.82612472 39.78254732 -41 49.25 C-36.1370908 54.58400353 -28.01180699 57.90440516 -21 59 C-21 59.33 -21 59.66 -21 60 C-30.1491565 60.6653932 -37.02481475 57.40562496 -44.1484375 51.7578125 C-51.47660536 44.80069111 -55.07145882 35.97891642 -55.375 26 C-55.09373443 16.76511377 -52.32643627 9.76749501 -46 3 C-32.43743385 -9.74523637 -15.33186079 -10.84924047 0 0 Z " fill="#F6F9FA" transform="translate(82,28)"/>
<path d="M0 0 C2.26003559 1.90123432 4.07658914 3.74686157 6 6 C5.67 6.66 5.34 7.32 5 8 C4.5153125 7.60167969 4.030625 7.20335937 3.53125 6.79296875 C-5.61783569 -0.43832783 -13.24072253 -2.18807855 -25 -1 C-32.69493597 0.92660096 -38.85944936 5.87612161 -43.609375 12.11328125 C-48.43771189 20.18311397 -48.43240308 30.07228939 -46.265625 39.0390625 C-42.75850881 48.55427117 -37.87698987 52.45646283 -28.9375 56.80078125 C-26.26107645 57.89341693 -23.84702299 58.55515266 -21 59 C-21 59.33 -21 59.66 -21 60 C-30.1491565 60.6653932 -37.02481475 57.40562496 -44.1484375 51.7578125 C-51.47660536 44.80069111 -55.07145882 35.97891642 -55.375 26 C-55.09373443 16.76511377 -52.32643627 9.76749501 -46 3 C-32.43743385 -9.74523637 -15.33186079 -10.84924047 0 0 Z " fill="#1E5680" transform="translate(82,28)"/>
<path d="M0 0 C2.475 0.495 2.475 0.495 5 1 C4.75901188 7.77176629 4.54024969 12.77183369 0 18 C-0.99 18.495 -0.99 18.495 -2 19 C-1.505 22.96 -1.505 22.96 -1 27 C-1.66 27 -2.32 27 -3 27 C-4.4606285 24.35261084 -5 23.10551666 -5 20 C-6.65 20 -8.3 20 -10 20 C-10.33 20.66 -10.66 21.32 -11 22 C-11.33 21.67 -11.66 21.34 -12 21 C-13.51469448 20.76807135 -15.03754562 20.58784762 -16.5625 20.4375 C-17.38878906 20.35371094 -18.21507813 20.26992187 -19.06640625 20.18359375 C-20.02353516 20.09271484 -20.02353516 20.09271484 -21 20 C-21.04898438 20.63808594 -21.09796875 21.27617188 -21.1484375 21.93359375 C-21.22320312 22.75988281 -21.29796875 23.58617188 -21.375 24.4375 C-21.44460937 25.26121094 -21.51421875 26.08492187 -21.5859375 26.93359375 C-21.72257812 27.61550781 -21.85921875 28.29742187 -22 29 C-22.66 29.33 -23.32 29.66 -24 30 C-24.125 23.375 -24.125 23.375 -23 20 C-26.00259517 19.66781808 -26.00259517 19.66781808 -27.6875 21.5 C-28.120625 21.995 -28.55375 22.49 -29 23 C-29 19.66666667 -29 16.33333333 -29 13 C-29.63514826 10.65789079 -30.2986716 8.32315031 -31 6 C-31 7.65 -31 9.3 -31 11 C-31.66 10.34 -32.32 9.68 -33 9 C-33 8.01 -33 7.02 -33 6 C-33.66 6 -34.32 6 -35 6 C-35.33 4.35 -35.66 2.7 -36 1 C-32.62153287 0.71476356 -29.36718931 0.54306316 -26 1 C-24 3.4375 -24 3.4375 -23 6 C-19.70039859 7.6498007 -16.00872116 7.38258361 -12.375 7.5625 C-11.57320312 7.60568359 -10.77140625 7.64886719 -9.9453125 7.69335938 C-7.9637489 7.79951457 -5.98189729 7.90026855 -4 8 C-4 8.33 -4 8.66 -4 9 C-9.94 9 -15.88 9 -22 9 C-22 9.66 -22 10.32 -22 11 C-15.4 11 -8.8 11 -2 11 C-2.495 9.02 -2.495 9.02 -3 7 C-2.34 7 -1.68 7 -1 7 C-0.505 9.475 -0.505 9.475 0 12 C0.99 9.03 1.98 6.06 3 3 C2.01 2.01 1.02 1.02 0 0 Z " fill="#E3E3E3" transform="translate(77,47)"/>
<path d="M0 0 C6.71393813 0.29191035 11.74717807 2.84620342 17 7 C23.03955912 13.94487291 25.50317823 20.96926675 25.31640625 30.12109375 C24.50967798 37.46132506 21.33355559 43.90349133 16 49 C7.1310004 54.75624665 -0.56350648 55.77428531 -11 55 C-14.12040747 54.15337782 -16.41491103 52.91967882 -19 51 C-19.65871094 50.51789063 -20.31742188 50.03578125 -20.99609375 49.5390625 C-24.33459397 46.89244462 -26.26332845 45.32677975 -27 41 C-26.56429687 41.39832031 -26.12859375 41.79664063 -25.6796875 42.20703125 C-25.08414063 42.73683594 -24.48859375 43.26664063 -23.875 43.8125 C-23.29492188 44.33457031 -22.71484375 44.85664062 -22.1171875 45.39453125 C-14.86527967 50.89367169 -7.81001745 50.88666128 1 50 C4.09591284 48.98629403 6.21993547 47.76427172 9 46 C9.99 45.67 10.98 45.34 12 45 C13.12047942 43.16610178 13.12047942 43.16610178 14 41 C14.34160156 40.34 14.68320313 39.68 15.03515625 39 C15.37417969 38.34 15.71320313 37.68 16.0625 37 C16.40410156 36.34 16.74570313 35.68 17.09765625 35 C19.63778523 29.36993056 20.09761504 23.27315694 18.12890625 17.40234375 C14.77878401 10.11994688 10.42733608 5.35362511 3.0625 2.125 C2.051875 1.75375 1.04125 1.3825 0 1 C0 0.67 0 0.34 0 0 Z " fill="#2CB4E1" transform="translate(67,29)"/>
<path d="M0 0 C0.556875 0.928125 0.556875 0.928125 1.125 1.875 C3.48622906 4.5510596 5.60131652 5.0936844 9 6 C8.01 9.63 7.02 13.26 6 17 C5.34 16.67 4.68 16.34 4 16 C4 14.35 4 12.7 4 11 C3.67 12.32 3.34 13.64 3 15 C-3.6 15 -10.2 15 -17 15 C-16.67 13.35 -16.34 11.7 -16 10 C-11.71 10 -7.42 10 -3 10 C-3.33 9.01 -3.66 8.02 -4 7 C-2.68 6.34 -1.36 5.68 0 5 C0 3.35 0 1.7 0 0 Z " fill="#EDEDED" transform="translate(72,43)"/>
<path d="M0 0 C2.475 0.495 2.475 0.495 5 1 C4.75901188 7.77176629 4.54024969 12.77183369 0 18 C-0.66 18.33 -1.32 18.66 -2 19 C-1.67 21.64 -1.34 24.28 -1 27 C-1.66 27 -2.32 27 -3 27 C-4.4606285 24.35261084 -5 23.10551666 -5 20 C-6.65 20 -8.3 20 -10 20 C-10.33 20.66 -10.66 21.32 -11 22 C-11.33 21.67 -11.66 21.34 -12 21 C-13.51469448 20.76807135 -15.03754562 20.58784762 -16.5625 20.4375 C-17.38878906 20.35371094 -18.21507812 20.26992187 -19.06640625 20.18359375 C-20.02353516 20.09271484 -20.02353516 20.09271484 -21 20 C-21.04898438 20.63808594 -21.09796875 21.27617188 -21.1484375 21.93359375 C-21.22320312 22.75988281 -21.29796875 23.58617188 -21.375 24.4375 C-21.44460937 25.26121094 -21.51421875 26.08492187 -21.5859375 26.93359375 C-21.72257812 27.61550781 -21.85921875 28.29742187 -22 29 C-22.66 29.33 -23.32 29.66 -24 30 C-24.125 23.375 -24.125 23.375 -23 20 C-26.00259517 19.66781808 -26.00259517 19.66781808 -27.6875 21.5 C-28.120625 21.995 -28.55375 22.49 -29 23 C-29 13 -29 13 -27 11 C-26.566875 11.969375 -26.13375 12.93875 -25.6875 13.9375 C-24.2985139 17.27731765 -24.2985139 17.27731765 -21 18 C-18.68980664 18.12070269 -16.3758126 18.175363 -14.0625 18.1875 C-12.22365234 18.20876953 -12.22365234 18.20876953 -10.34765625 18.23046875 C-7.16995261 18.01170035 -5.69507001 17.52539757 -3 16 C-2.01 16 -1.02 16 0 16 C-0.33 14.68 -0.66 13.36 -1 12 C-0.34 11.67 0.32 11.34 1 11 C1.68729254 8.88153715 1.68729254 8.88153715 2.125 6.4375 C2.29257813 5.61121094 2.46015625 4.78492188 2.6328125 3.93359375 C2.81457031 2.97646484 2.81457031 2.97646484 3 2 C2.01 1.34 1.02 0.68 0 0 Z " fill="#C5C5C5" transform="translate(77,47)"/>
<path d="M0 0 C0.33 1.32 0.66 2.64 1 4 C0.01 4 -0.98 4 -2 4 C-2.33 4.66 -2.66 5.32 -3 6 C-6.74301594 7.47311766 -10.79243724 7.1111279 -14.75 7.0625 C-15.44738281 7.05798828 -16.14476562 7.05347656 -16.86328125 7.04882812 C-18.57555803 7.0371002 -20.28779033 7.01916653 -22 7 C-23 5 -23 5 -22.5 2.9375 C-21 1 -21 1 -18.25 0.25 C-12.20044648 -0.3046499 -6.06728675 -0.0757359 0 0 Z " fill="#FBFBFB" transform="translate(76,59)"/>
<path d="M0 0 C0.65355469 0.59748047 0.65355469 0.59748047 1.3203125 1.20703125 C1.91585937 1.73683594 2.51140625 2.26664062 3.125 2.8125 C3.99511719 3.59560547 3.99511719 3.59560547 4.8828125 4.39453125 C11.02646884 9.05328172 15.92166009 9.39483257 23.375 9.1875 C24.30183594 9.17396484 25.22867188 9.16042969 26.18359375 9.14648438 C28.45633998 9.11133881 30.72785847 9.06214132 33 9 C32.34 10.65 31.68 12.3 31 14 C14.43230693 14.77661061 14.43230693 14.77661061 8 10 C7.34128906 9.51789063 6.68257812 9.03578125 6.00390625 8.5390625 C2.66540603 5.89244462 0.73667155 4.32677975 0 0 Z " fill="#27B2E1" transform="translate(40,70)"/>
<path d="M0 0 C0.66 0.33 1.32 0.66 2 1 C2.33 2.03125 2.66 3.0625 3 4.125 C5.13790842 9.51431081 10.17016287 12.18789088 15 15 C18.31544299 16.10514766 21.20410111 16.32107631 24.6875 16.5625 C25.86699219 16.64628906 27.04648438 16.73007813 28.26171875 16.81640625 C29.61716797 16.90728516 29.61716797 16.90728516 31 17 C31 17.33 31 17.66 31 18 C27.7 18 24.4 18 21 18 C21 18.66 21 19.32 21 20 C14.03906627 19.63363507 7.65712138 15.92493401 3.0234375 10.82421875 C1.59869978 8.92344307 0.25771824 7.01439425 -1 5 C-0.34 4.67 0.32 4.34 1 4 C0.67 2.68 0.34 1.36 0 0 Z " fill="#E5EDF0" transform="translate(38,67)"/>
<path d="M0 0 C0.47953125 0.48082031 0.9590625 0.96164063 1.453125 1.45703125 C5.1275833 3.68312178 8.5266376 3.56493144 12.75 3.6875 C13.93916016 3.73874023 13.93916016 3.73874023 15.15234375 3.79101562 C17.10107504 3.87319104 19.05051362 3.93828045 21 4 C21 4.33 21 4.66 21 5 C15.06 5 9.12 5 3 5 C3 5.66 3 6.32 3 7 C9.6 7 16.2 7 23 7 C22.67 5.68 22.34 4.36 22 3 C22.66 3 23.32 3 24 3 C24 4.65 24 6.3 24 8 C21.23434618 8.92188461 19.61716298 9.11785222 16.76953125 9.09765625 C15.96708984 9.09443359 15.16464844 9.09121094 14.33789062 9.08789062 C13.50451172 9.07951172 12.67113281 9.07113281 11.8125 9.0625 C10.5450293 9.05573242 10.5450293 9.05573242 9.25195312 9.04882812 C7.16793845 9.03705403 5.08396023 9.0191189 3 9 C0 3.375 0 3.375 0 0 Z " fill="#ACACAC" transform="translate(52,51)"/>
<path d="M0 0 C8.92981438 -0.46321804 15.97331823 -0.1428035 24 4 C23.01 4.99 22.02 5.98 21 7 C20.195625 6.505 19.39125 6.01 18.5625 5.5 C14.17997546 3.65472651 10.67684769 3.71938914 6 4 C5.67 3.34 5.34 2.68 5 2 C2.47266765 1.34444881 2.47266765 1.34444881 0 1 C0 0.67 0 0.34 0 0 Z " fill="#DAE5EA" transform="translate(57,26)"/>
<path d="M0 0 C0.66 0.99 1.32 1.98 2 3 C2.886875 3.680625 3.77375 4.36125 4.6875 5.0625 C7.33357621 8.42373194 7.28741949 9.161774 6.9375 13.25 C6.58984375 15.890625 6.58984375 15.890625 6 18 C5.34 18.33 4.68 18.66 4 19 C3.875 12.375 3.875 12.375 5 9 C1.99740483 8.66781808 1.99740483 8.66781808 0.3125 10.5 C-0.120625 10.995 -0.55375 11.49 -1 12 C-1 2 -1 2 0 0 Z " fill="#B8B8B8" transform="translate(49,58)"/>
<path d="M0 0 C1.32 0.33 2.64 0.66 4 1 C3.01 4.63 2.02 8.26 1 12 C0.34 11.67 -0.32 11.34 -1 11 C-1 9.35 -1 7.7 -1 6 C-3.97 5.505 -3.97 5.505 -7 5 C-6.67 4.01 -6.34 3.02 -6 2 C-4.02 1.67 -2.04 1.34 0 1 C0 0.67 0 0.34 0 0 Z " fill="#FDFDFD" transform="translate(77,48)"/>
<path d="M0 0 C0.65355469 0.59748047 0.65355469 0.59748047 1.3203125 1.20703125 C9.24597811 8.25778572 15.4737884 9.54709179 26 10 C26 10.33 26 10.66 26 11 C22.37 11 18.74 11 15 11 C15 11.66 15 12.32 15 13 C9.98008474 11.43127648 5.84464877 8.53362101 2 5 C0.5 2.125 0.5 2.125 0 0 Z " fill="#51BDE0" transform="translate(40,70)"/>
<path d="M0 0 C6.62842427 0.28819236 11.78452788 2.92868996 17 7 C18.29296875 9.19921875 18.29296875 9.19921875 19 11 C18.01 11.66 17.02 12.32 16 13 C15.59910156 12.46890625 15.19820312 11.9378125 14.78515625 11.390625 C10.46059795 6.01679746 6.51165043 3.24437838 0 1 C0 0.67 0 0.34 0 0 Z " fill="#4BBBDF" transform="translate(67,29)"/>
<path d="M0 0 C2.33333333 2.33333333 4.66666667 4.66666667 7 7 C3.92382812 7.29296875 3.92382812 7.29296875 0.84765625 7.5859375 C0.23792969 7.72257812 -0.37179688 7.85921875 -1 8 C-1.33 8.66 -1.66 9.32 -2 10 C-0.68 10.33 0.64 10.66 2 11 C-3.94 11 -9.88 11 -16 11 C-16 10.67 -16 10.34 -16 10 C-11.71 10 -7.42 10 -3 10 C-3.33 9.01 -3.66 8.02 -4 7 C-2.68 6.34 -1.36 5.68 0 5 C0 3.35 0 1.7 0 0 Z " fill="#BFBFBF" transform="translate(72,43)"/>
<path d="M0 0 C0.88751953 0.30744141 0.88751953 0.30744141 1.79296875 0.62109375 C5.83660816 1.9997571 9.76855249 3.31750847 14 4 C14 4.33 14 4.66 14 5 C7.79029227 5.33266291 3.71735105 4.45029331 -2 2 C-1.34 1.34 -0.68 0.68 0 0 Z " fill="#5F819B" transform="translate(47,83)"/>
<path d="M0 0 C2.3125 -0.3125 2.3125 -0.3125 5 0 C6.875 2.125 6.875 2.125 8 5 C7.6875 8.3125 7.6875 8.3125 7 11 C5.22293791 8.33440687 4.12451727 5.9719385 3 3 C3.33 2.67 3.66 2.34 4 2 C2.68 1.34 1.36 0.68 0 0 Z " fill="#D3D3D3" transform="translate(64,35)"/>
<path d="M0 0 C0.66 0.33 1.32 0.66 2 1 C1.67 1.33 1.34 1.66 1 2 C1.99 2.66 2.98 3.32 4 4 C3.38125 4.103125 2.7625 4.20625 2.125 4.3125 C-0.36526484 4.87525373 -0.36526484 4.87525373 -2 8 C-2.33 7.34 -2.66 6.68 -3 6 C-4.98 6.99 -4.98 6.99 -7 8 C-6.02133662 6.85373678 -5.04205413 5.70800212 -4.0625 4.5625 C-3.51722656 3.92441406 -2.97195312 3.28632812 -2.41015625 2.62890625 C-1.63204305 1.73008851 -0.84063472 0.84063472 0 0 Z " fill="#D2D6D9" transform="translate(46,31)"/>
<path d="M0 0 C5.75 0.75 5.75 0.75 8 3 C7.01 3.66 6.02 4.32 5 5 C3.02 4.01 1.04 3.02 -1 2 C-0.67 1.34 -0.34 0.68 0 0 Z " fill="#E4EEF2" transform="translate(73,28)"/>
<path d="M0 0 C2.125 -0.375 2.125 -0.375 5 0 C7.23913252 1.79340357 9.12454539 3.83452663 11 6 C10.67 6.66 10.34 7.32 10 8 C8.70684939 7.04367001 7.41553147 6.08486149 6.125 5.125 C5.40570313 4.59132813 4.68640625 4.05765625 3.9453125 3.5078125 C2 2 2 2 0 0 Z " fill="#416B8C" transform="translate(77,28)"/>
<path d="M0 0 C4.62 0 9.24 0 14 0 C14 0.33 14 0.66 14 1 C10.7 1 7.4 1 4 1 C4 1.66 4 2.32 4 3 C2.68 2.67 1.36 2.34 0 2 C0 1.34 0 0.68 0 0 Z " fill="#CEE7F0" transform="translate(55,84)"/>
<path d="M0 0 C2.31 0.66 4.62 1.32 7 2 C6.67 2.99 6.34 3.98 6 5 C4.02 4.34 2.04 3.68 0 3 C0 2.01 0 1.02 0 0 Z " fill="#EDF2F5" transform="translate(49,81)"/>
<path d="M0 0 C2.76223278 2.76223278 2.57856291 5.20706617 3 9 C2.01 8.67 1.02 8.34 0 8 C-0.38063221 5.6739143 -0.71269945 3.33944736 -1 1 C-0.67 0.67 -0.34 0.34 0 0 Z " fill="#F5F5F5" transform="translate(46,52)"/>
<path d="M0 0 C2.31 0.33 4.62 0.66 7 1 C7.33 1.99 7.66 2.98 8 4 C4.31245243 3.50168276 2.39509338 2.89932357 0 0 Z " fill="#295D83" transform="translate(39,80)"/>
<path d="M0 0 C2.31 1.98 4.62 3.96 7 6 C6.34 6.66 5.68 7.32 5 8 C0 2.25 0 2.25 0 0 Z " fill="#8DCDE2" transform="translate(40,70)"/>
</svg>
