<?xml version="1.0" encoding="UTF-8"?>
<svg version="1.1" xmlns="http://www.w3.org/2000/svg" width="120" height="120">
<path d="M0 0 C39.6 0 79.2 0 120 0 C120 39.6 120 79.2 120 120 C80.4 120 40.8 120 0 120 C0 80.4 0 40.8 0 0 Z " fill="#FEFEFE" transform="translate(0,0)"/>
<path d="M0 0 C2.26003559 1.90123432 4.07658914 3.74686157 6 6 C5.67 6.66 5.34 7.32 5 8 C2.525 6.02 2.525 6.02 0 4 C-0.66 4.33 -1.32 4.66 -2 5 C-1.113125 5.639375 -0.22625 6.27875 0.6875 6.9375 C6.25520525 11.55526502 9.54197073 18.29956844 10.23828125 25.4453125 C10.47475955 33.98342387 8.50840197 40.20156273 3.8125 47.3125 C0.22258512 50.74286311 -3.56364506 52.83492807 -8 55 C-8.804375 55.433125 -9.60875 55.86625 -10.4375 56.3125 C-14.57479704 57.42250652 -18.74310372 57.14878472 -23 57 C-23 57.66 -23 58.32 -23 59 C-22.01 59.495 -22.01 59.495 -21 60 C-30.1491565 60.6653932 -37.02481475 57.40562496 -44.1484375 51.7578125 C-51.47660536 44.80069111 -55.07145882 35.97891642 -55.375 26 C-55.09373443 16.76511377 -52.32643627 9.76749501 -46 3 C-32.43743385 -9.74523637 -15.33186079 -10.84924047 0 0 Z " fill="#F4F6F7" transform="translate(82,28)"/>
<path d="M0 0 C3.53057086 0.77316765 5.68260223 2.85124925 8.015625 5.44140625 C8.57765625 6.04597656 9.1396875 6.65054688 9.71875 7.2734375 C12.95588897 11.10808577 15.01492316 14.28778454 14.609375 19.41796875 C13.25978032 24.01724536 10.16695618 28.05519285 6.1484375 30.64453125 C1.90142663 32.23132652 -2.53474868 31.96451181 -6.984375 31.44140625 C-11.38015446 29.28347815 -14.41989161 26.62056437 -16.984375 22.44140625 C-18.60414392 17.66308794 -18.60414392 17.66308794 -17.984375 14.44140625 C-15.71240051 10.72921206 -12.97141557 7.59469145 -9.984375 4.44140625 C-9.31535156 3.69503906 -8.64632812 2.94867188 -7.95703125 2.1796875 C-5.41965947 -0.05621437 -3.32848058 -0.19107944 0 0 Z " fill="#FDFDFD" transform="translate(62.984375,41.55859375)"/>
<path d="M0 0 C2.26003559 1.90123432 4.07658914 3.74686157 6 6 C5.67 6.66 5.34 7.32 5 8 C4.5153125 7.60167969 4.030625 7.20335937 3.53125 6.79296875 C-5.61783569 -0.43832783 -13.24072253 -2.18807855 -25 -1 C-32.69493597 0.92660096 -38.85944936 5.87612161 -43.609375 12.11328125 C-48.43771189 20.18311397 -48.43240308 30.07228939 -46.265625 39.0390625 C-42.75850881 48.55427117 -37.87698987 52.45646283 -28.9375 56.80078125 C-26.26107645 57.89341693 -23.84702299 58.55515266 -21 59 C-21 59.33 -21 59.66 -21 60 C-30.1491565 60.6653932 -37.02481475 57.40562496 -44.1484375 51.7578125 C-51.47660536 44.80069111 -55.07145882 35.97891642 -55.375 26 C-55.09373443 16.76511377 -52.32643627 9.76749501 -46 3 C-32.43743385 -9.74523637 -15.33186079 -10.84924047 0 0 Z " fill="#1E5680" transform="translate(82,28)"/>
<path d="M0 0 C4.93986544 3.05081556 8.42347842 5.2311671 10.16796875 10.94921875 C10.04296875 14.26171875 10.04296875 14.26171875 8.73046875 16.19921875 C7.04296875 17.26171875 7.04296875 17.26171875 5.04296875 17.26171875 C4.71296875 19.24171875 4.38296875 21.22171875 4.04296875 23.26171875 C3.71296875 23.26171875 3.38296875 23.26171875 3.04296875 23.26171875 C3.06359375 22.16859375 3.08421875 21.07546875 3.10546875 19.94921875 C2.36065419 13.45536684 -2.60558634 8.80478692 -6.95703125 4.26171875 C-10.32134353 2.57956261 -13.38339403 2.27286642 -16.95703125 3.26171875 C-20.08555611 5.91790859 -22.50823258 8.98217463 -24.95703125 12.26171875 C-25.81361328 13.27878906 -25.81361328 13.27878906 -26.6875 14.31640625 C-28.42783674 16.98313763 -28.12187949 19.16574453 -27.6015625 22.23046875 C-26.31810705 26.27529804 -23.73083272 29.14122317 -20.1328125 31.4140625 C-17.45309457 32.45804597 -15.32701858 32.49258394 -12.45703125 32.44921875 C-11.51859375 32.44277344 -10.58015625 32.43632813 -9.61328125 32.4296875 C-7.2508254 32.28029691 -5.2198646 31.92882764 -2.95703125 31.26171875 C-5.96537276 34.55656897 -8.1458385 35.17922457 -12.64453125 35.63671875 C-17.69397315 35.57162466 -21.11872134 33.39364346 -24.95703125 30.26171875 C-29.06743655 25.72973342 -30.08919672 23.34133035 -29.95703125 17.26171875 C-30.59640625 17.11734375 -31.23578125 16.97296875 -31.89453125 16.82421875 C-33.95703125 16.26171875 -33.95703125 16.26171875 -34.95703125 15.26171875 C-35.5060607 11.83028471 -35.68528984 9.359814 -33.7109375 6.3828125 C-24.76873764 -3.17893932 -11.88106934 -6.16776824 0 0 Z " fill="#A2A2A2" transform="translate(73.95703125,39.73828125)"/>
<path d="M0 0 C6.71393813 0.29191035 11.74717807 2.84620342 17 7 C23.03955912 13.94487291 25.50317823 20.96926675 25.31640625 30.12109375 C24.50967798 37.46132506 21.33355559 43.90349133 16 49 C7.13987691 54.75048553 -0.57038143 55.79391257 -11 55 C-14.0668794 54.10722817 -16.42307576 52.86604859 -19 51 C-20.485 49.948125 -20.485 49.948125 -22 48.875 C-22.66 48.25625 -23.32 47.6375 -24 47 C-24 46.34 -24 45.68 -24 45 C-21.7240913 46.13795435 -19.49327125 47.28903925 -17.28125 48.55078125 C-10.66810519 51.47158687 -2.14829689 51.12042517 4.625 48.625 C5.73875 48.08875 6.8525 47.5525 8 47 C8.78375 46.690625 9.5675 46.38125 10.375 46.0625 C12.49087936 44.67904042 12.92919952 43.27595995 14 41 C14.34160156 40.34 14.68320313 39.68 15.03515625 39 C15.37417969 38.34 15.71320313 37.68 16.0625 37 C16.40410156 36.34 16.74570313 35.68 17.09765625 35 C19.63778523 29.36993056 20.09761504 23.27315694 18.12890625 17.40234375 C14.77878401 10.11994688 10.42733608 5.35362511 3.0625 2.125 C2.051875 1.75375 1.04125 1.3825 0 1 C0 0.67 0 0.34 0 0 Z " fill="#2CB4E1" transform="translate(67,29)"/>
<path d="M0 0 C7.05093453 -0.90396597 12.10486628 2.88160947 17.5625 6.875 C19.62426646 9.92282868 19.27571148 12.4157508 19 16 C15.44943486 15.73745821 14.21612646 15.22722885 11.71875 12.6015625 C10.9865625 11.61929688 10.254375 10.63703125 9.5 9.625 C6.60093873 5.75618232 4.24677867 3.31778413 0 1 C0 0.67 0 0.34 0 0 Z " fill="#F9F9F9" transform="translate(63,39)"/>
<path d="M0 0 C4.93986544 3.05081556 8.42347842 5.2311671 10.16796875 10.94921875 C10.04296875 14.26171875 10.04296875 14.26171875 8.73046875 16.19921875 C7.04296875 17.26171875 7.04296875 17.26171875 5.04296875 17.26171875 C4.71296875 19.24171875 4.38296875 21.22171875 4.04296875 23.26171875 C3.71296875 23.26171875 3.38296875 23.26171875 3.04296875 23.26171875 C2.91921875 22.02421875 2.79546875 20.78671875 2.66796875 19.51171875 C2.2855057 16.38549905 1.73747352 13.97292638 0.04296875 11.26171875 C0.62046875 11.73609375 1.19796875 12.21046875 1.79296875 12.69921875 C3.96878959 14.21020545 5.46899323 14.80208026 8.04296875 15.26171875 C7.86598496 10.74863219 7.5676257 8.79857702 4.35546875 5.51171875 C-2.32503162 0.65317302 -8.70149113 -1.41496487 -16.95703125 -0.73828125 C-21.93196733 0.79130336 -26.44860812 2.28626526 -29.95703125 6.26171875 C-30.61703125 5.93171875 -31.27703125 5.60171875 -31.95703125 5.26171875 C-22.6509145 -3.13648417 -11.68946186 -6.06829987 0 0 Z " fill="#3B3B3B" transform="translate(73.95703125,39.73828125)"/>
<path d="M0 0 C1.485 0.99 1.485 0.99 3 2 C3 2.66 3 3.32 3 4 C3.66 4.33 4.32 4.66 5 5 C5.33 5.99 5.66 6.98 6 8 C7.75376928 9.41693801 7.75376928 9.41693801 9.875 10.625 C10.57367188 11.05039063 11.27234375 11.47578125 11.9921875 11.9140625 C15.85839037 14.00512164 19.36003746 14.26257685 23.6875 14.5625 C24.86699219 14.64628906 26.04648438 14.73007813 27.26171875 14.81640625 C28.16535156 14.87699219 29.06898437 14.93757813 30 15 C30 15.33 30 15.66 30 16 C26.7 16 23.4 16 20 16 C20 16.66 20 17.32 20 18 C12.67873264 17.61467014 5.7333619 13.24323378 0.8125 7.9375 C-1 5 -1 5 -0.8125 2.125 C-0.544375 1.42375 -0.27625 0.7225 0 0 Z " fill="#DBE9EF" transform="translate(39,69)"/>
<path d="M0 0 C8.92981438 -0.46321804 15.97331823 -0.1428035 24 4 C23.01 4.99 22.02 5.98 21 7 C20.154375 6.505 19.30875 6.01 18.4375 5.5 C14.66203168 3.85252292 12.07182452 3.75569053 8 4 C7.67 3.34 7.34 2.68 7 2 C4.67843403 1.59270772 2.3431213 1.25561323 0 1 C0 0.67 0 0.34 0 0 Z " fill="#D9E4EA" transform="translate(57,26)"/>
<path d="M0 0 C6.62842427 0.28819236 11.78452788 2.92868996 17 7 C18.29296875 9.19921875 18.29296875 9.19921875 19 11 C18.01 11.66 17.02 12.32 16 13 C15.59910156 12.46890625 15.19820312 11.9378125 14.78515625 11.390625 C10.46059795 6.01679746 6.51165043 3.24437838 0 1 C0 0.67 0 0.34 0 0 Z " fill="#4BBBDF" transform="translate(67,29)"/>
<path d="M0 0 C2.22677693 1.11338847 4.33680545 2.21590093 6.4375 3.5625 C11.80544989 5.72851487 17.25946458 5.75300367 23 6 C23 6.33 23 6.66 23 7 C19.37 7 15.74 7 12 7 C12 7.66 12 8.32 12 9 C7.50985376 7.50328459 3.52151236 5.16631659 0 2 C0 1.34 0 0.68 0 0 Z " fill="#59BFE0" transform="translate(43,74)"/>
<path d="M0 0 C0.33 0 0.66 0 1 0 C0.67 2.31 0.34 4.62 0 7 C-1.32 7.33 -2.64 7.66 -4 8 C-4.33 9.98 -4.66 11.96 -5 14 C-5.33 14 -5.66 14 -6 14 C-6.185625 12.14375 -6.185625 12.14375 -6.375 10.25 C-6.75746305 7.1237803 -7.30549523 4.71120763 -9 2 C-8.13375 2.7115625 -8.13375 2.7115625 -7.25 3.4375 C-5.07417916 4.9484867 -3.57397552 5.54036151 -1 6 C-1.020625 5.195625 -1.04125 4.39125 -1.0625 3.5625 C-1 1 -1 1 0 0 Z " fill="#5F5F5F" transform="translate(83,49)"/>
<path d="M0 0 C0.88751953 0.30744141 0.88751953 0.30744141 1.79296875 0.62109375 C5.83660816 1.9997571 9.76855249 3.31750847 14 4 C14 4.33 14 4.66 14 5 C7.79029227 5.33266291 3.71735105 4.45029331 -2 2 C-1.34 1.34 -0.68 0.68 0 0 Z " fill="#5F819B" transform="translate(47,83)"/>
<path d="M0 0 C5.75 0.75 5.75 0.75 8 3 C7.01 3.66 6.02 4.32 5 5 C3.02 4.01 1.04 3.02 -1 2 C-0.67 1.34 -0.34 0.68 0 0 Z " fill="#E4EEF2" transform="translate(73,28)"/>
<path d="M0 0 C2.125 -0.375 2.125 -0.375 5 0 C7.23913252 1.79340357 9.12454539 3.83452663 11 6 C10.67 6.66 10.34 7.32 10 8 C8.70684939 7.04367001 7.41553147 6.08486149 6.125 5.125 C5.40570313 4.59132813 4.68640625 4.05765625 3.9453125 3.5078125 C2 2 2 2 0 0 Z " fill="#416B8C" transform="translate(77,28)"/>
<path d="M0 0 C4.62 0 9.24 0 14 0 C14 0.33 14 0.66 14 1 C10.7 1 7.4 1 4 1 C4 1.66 4 2.32 4 3 C2.68 2.67 1.36 2.34 0 2 C0 1.34 0 0.68 0 0 Z " fill="#CEE7F0" transform="translate(55,84)"/>
<path d="M0 0 C2.31 0.66 4.62 1.32 7 2 C6.67 2.99 6.34 3.98 6 5 C4.02 4.34 2.04 3.68 0 3 C0 2.01 0 1.02 0 0 Z " fill="#EDF2F5" transform="translate(49,81)"/>
<path d="M0 0 C2.31 0.33 4.62 0.66 7 1 C7.33 1.99 7.66 2.98 8 4 C4.31245243 3.50168276 2.39509338 2.89932357 0 0 Z " fill="#295D83" transform="translate(39,80)"/>
</svg>
