<?xml version="1.0" encoding="UTF-8"?>
<svg version="1.1" xmlns="http://www.w3.org/2000/svg" width="120" height="120">
<path d="M0 0 C39.6 0 79.2 0 120 0 C120 39.6 120 79.2 120 120 C80.4 120 40.8 120 0 120 C0 80.4 0 40.8 0 0 Z " fill="#FEFEFE" transform="translate(0,0)"/>
<path d="M0 0 C2.26003559 1.90123432 4.07658914 3.74686157 6 6 C5.67 6.66 5.34 7.32 5 8 C2.525 6.02 2.525 6.02 0 4 C-0.66 4.33 -1.32 4.66 -2 5 C-1.113125 5.639375 -0.22625 6.27875 0.6875 6.9375 C6.25520525 11.55526502 9.54197073 18.29956844 10.23828125 25.4453125 C10.47475955 33.98342387 8.50840197 40.20156273 3.8125 47.3125 C0.22258512 50.74286311 -3.56364506 52.83492807 -8 55 C-8.804375 55.433125 -9.60875 55.86625 -10.4375 56.3125 C-14.57479704 57.42250652 -18.74310372 57.14878472 -23 57 C-23 57.66 -23 58.32 -23 59 C-22.01 59.495 -22.01 59.495 -21 60 C-30.1491565 60.6653932 -37.02481475 57.40562496 -44.1484375 51.7578125 C-51.47660536 44.80069111 -55.07145882 35.97891642 -55.375 26 C-55.09373443 16.76511377 -52.32643627 9.76749501 -46 3 C-32.43743385 -9.74523637 -15.33186079 -10.84924047 0 0 Z " fill="#919191" transform="translate(82,28)"/>
<path d="M0 0 C2.26003559 1.90123432 4.07658914 3.74686157 6 6 C5.67 6.66 5.34 7.32 5 8 C4.2575 7.319375 3.515 6.63875 2.75 5.9375 C1.8425 5.298125 0.935 4.65875 0 4 C-1.34061543 4.30271961 -2.67405895 4.63837971 -4 5 C-6.03144641 4.06553465 -8.03533587 3.06775224 -10 2 C-10.66 2 -11.32 2 -12 2 C-11.23816406 2.41958984 -11.23816406 2.41958984 -10.4609375 2.84765625 C-4.24081412 6.47023747 1.36887249 11.07667964 4 18 C3.67 19.32 3.34 20.64 3 22 C-0.63 21.01 -4.26 20.02 -8 19 C-8 17.68 -8 16.36 -8 15 C-11.2926882 15.08064635 -14.58349221 15.19350279 -17.875 15.3125 C-19.28072266 15.34633789 -19.28072266 15.34633789 -20.71484375 15.38085938 C-22.05869141 15.4340332 -22.05869141 15.4340332 -23.4296875 15.48828125 C-24.25710449 15.51446533 -25.08452148 15.54064941 -25.93701172 15.56762695 C-28.39327932 15.83096637 -28.39327932 15.83096637 -30 19 C-30.66 18.67 -31.32 18.34 -32 18 C-32 17.34 -32 16.68 -32 16 C-36.95 16.495 -36.95 16.495 -42 17 C-42.90413673 20.83724172 -43.10576898 24.37502274 -43.0625 28.3125 C-43.04896484 29.91544922 -43.04896484 29.91544922 -43.03515625 31.55078125 C-43.02355469 32.35902344 -43.01195312 33.16726562 -43 34 C-41.68 34.33 -40.36 34.66 -39 35 C-39.99 35.99 -40.98 36.98 -42 38 C-40.87548273 40.9719385 -39.77706209 43.33440687 -38 46 C-37.67 46.99 -37.34 47.98 -37 49 C-35.24623072 50.41693801 -35.24623072 50.41693801 -33.125 51.625 C-32.07699219 52.26308594 -32.07699219 52.26308594 -31.0078125 52.9140625 C-27.14160963 55.00512164 -23.63996254 55.26257685 -19.3125 55.5625 C-18.13300781 55.64628906 -16.95351562 55.73007813 -15.73828125 55.81640625 C-14.38283203 55.90728516 -14.38283203 55.90728516 -13 56 C-13 56.33 -13 56.66 -13 57 C-16.3 57 -19.6 57 -23 57 C-23 57.66 -23 58.32 -23 59 C-22.01 59.495 -22.01 59.495 -21 60 C-30.1491565 60.6653932 -37.02481475 57.40562496 -44.1484375 51.7578125 C-51.47660536 44.80069111 -55.07145882 35.97891642 -55.375 26 C-55.09373443 16.76511377 -52.32643627 9.76749501 -46 3 C-32.43743385 -9.74523637 -15.33186079 -10.84924047 0 0 Z " fill="#F6F8F8" transform="translate(82,28)"/>
<path d="M0 0 C6.93359375 -0.09765625 6.93359375 -0.09765625 9 0 C10 1 10 1 10.09765625 3.94140625 C10.08605469 5.13636719 10.07445312 6.33132812 10.0625 7.5625 C10.05347656 8.76003906 10.04445313 9.95757812 10.03515625 11.19140625 C10.02355469 12.11824219 10.01195312 13.04507813 10 14 C11.07314453 13.81824219 11.07314453 13.81824219 12.16796875 13.6328125 C15.44422334 13.08182531 18.7220561 12.54084247 22 12 C23.12535156 11.80921875 24.25070313 11.6184375 25.41015625 11.421875 C31.357283 10.44807647 36.97377623 9.7636775 43 10 C43 10.66 43 11.32 43 12 C43.99 11.67 44.98 11.34 46 11 C45.54775862 15.97465513 43.3418094 19.42124079 40 23 C31.80248186 29.23203133 24.04197358 29.73712359 14 29 C8.14559058 27.43683286 3.10951582 22.07541033 0 17 C-0.19140625 14.24609375 -0.19140625 14.24609375 0 12 C0.99 12 1.98 12 3 12 C2.01 11.67 1.02 11.34 0 11 C0 7.37 0 3.74 0 0 Z " fill="#FBFCFC" transform="translate(39,51)"/>
<path d="M0 0 C2.26003559 1.90123432 4.07658914 3.74686157 6 6 C5.67 6.66 5.34 7.32 5 8 C4.5153125 7.60167969 4.030625 7.20335937 3.53125 6.79296875 C-5.61783569 -0.43832783 -13.24072253 -2.18807855 -25 -1 C-32.69493597 0.92660096 -38.85944936 5.87612161 -43.609375 12.11328125 C-48.43771189 20.18311397 -48.43240308 30.07228939 -46.265625 39.0390625 C-42.75850881 48.55427117 -37.87698987 52.45646283 -28.9375 56.80078125 C-26.26107645 57.89341693 -23.84702299 58.55515266 -21 59 C-21 59.33 -21 59.66 -21 60 C-30.1491565 60.6653932 -37.02481475 57.40562496 -44.1484375 51.7578125 C-51.47660536 44.80069111 -55.07145882 35.97891642 -55.375 26 C-55.09373443 16.76511377 -52.32643627 9.76749501 -46 3 C-32.43743385 -9.74523637 -15.33186079 -10.84924047 0 0 Z " fill="#1E5680" transform="translate(82,28)"/>
<path d="M0 0 C6.71393813 0.29191035 11.74717807 2.84620342 17 7 C23.03955912 13.94487291 25.50317823 20.96926675 25.31640625 30.12109375 C24.50967798 37.46132506 21.33355559 43.90349133 16 49 C7.13987691 54.75048553 -0.57038143 55.79391257 -11 55 C-14.0668794 54.10722817 -16.42307576 52.86604859 -19 51 C-20.485 49.948125 -20.485 49.948125 -22 48.875 C-22.66 48.25625 -23.32 47.6375 -24 47 C-24 46.34 -24 45.68 -24 45 C-21.73156035 46.13421982 -19.51253373 47.28057652 -17.3125 48.546875 C-11.00512541 51.31378932 -2.89810279 51.27636994 3.6484375 49.1328125 C5.989785 47.98197081 5.989785 47.98197081 9 46 C9.99 45.67 10.98 45.34 12 45 C13.12047942 43.16610178 13.12047942 43.16610178 14 41 C14.34160156 40.34 14.68320313 39.68 15.03515625 39 C15.37417969 38.34 15.71320313 37.68 16.0625 37 C16.40410156 36.34 16.74570313 35.68 17.09765625 35 C19.63778523 29.36993056 20.09761504 23.27315694 18.12890625 17.40234375 C14.77878401 10.11994688 10.42733608 5.35362511 3.0625 2.125 C2.051875 1.75375 1.04125 1.3825 0 1 C0 0.67 0 0.34 0 0 Z " fill="#2BB4E1" transform="translate(67,29)"/>
<path d="M0 0 C3.3 0 6.6 0 10 0 C10 0.66 10 1.32 10 2 C10.66 2 11.32 2 12 2 C12.33 1.34 12.66 0.68 13 0 C16.3 0 19.6 0 23 0 C24.25664978 2.90600261 25 4.79604584 25 8 C24.01 8 23.02 8 22 8 C21.67 6.68 21.34 5.36 21 4 C21 5.32 21 6.64 21 8 C16.25 9 16.25 9 14 9 C13.01 9.495 13.01 9.495 12 10 C11.53248212 12.35599235 11.53248212 12.35599235 11.375 15.0625 C11.30023438 15.98160156 11.22546875 16.90070312 11.1484375 17.84765625 C11.09945312 18.55792969 11.05046875 19.26820312 11 20 C8.7655402 15.96707255 8.45503257 12.55032566 8 8 C5.03 7.67 2.06 7.34 -1 7 C-1 9.31 -1 11.62 -1 14 C-1.33 14 -1.66 14 -2 14 C-2.1799928 8.78020872 -1.97094808 4.92737019 0 0 Z " fill="#9C9C9C" transform="translate(40,44)"/>
<path d="M0 0 C2.64 0 5.28 0 8 0 C8.33 0.99 8.66 1.98 9 3 C7.02 3.33 5.04 3.66 3 4 C5.97 4.495 5.97 4.495 9 5 C9 6.65 9 8.3 9 10 C4.959592 10.67444768 0.91749334 11.33817587 -3.125 12 C-4.26710938 12.19078125 -5.40921875 12.3815625 -6.5859375 12.578125 C-7.69453125 12.75859375 -8.803125 12.9390625 -9.9453125 13.125 C-10.96125488 13.29257812 -11.97719727 13.46015625 -13.02392578 13.6328125 C-16.0475586 14.00586777 -18.95672597 14.0634842 -22 14 C-22 13.34 -22 12.68 -22 12 C-18.04 11.01 -14.08 10.02 -10 9 C-10 8.01 -10 7.02 -10 6 C-5.545 5.505 -5.545 5.505 -1 5 C-1.66 4.34 -2.32 3.68 -3 3 C-1.68 3 -0.36 3 1 3 C0.67 2.01 0.34 1.02 0 0 Z " fill="#FAFAFA" transform="translate(74,49)"/>
<path d="M0 0 C4.875 4.625 4.875 4.625 6 8 C7.75376928 9.41693801 7.75376928 9.41693801 9.875 10.625 C10.57367188 11.05039063 11.27234375 11.47578125 11.9921875 11.9140625 C15.85839037 14.00512164 19.36003746 14.26257685 23.6875 14.5625 C24.86699219 14.64628906 26.04648438 14.73007813 27.26171875 14.81640625 C28.16535156 14.87699219 29.06898437 14.93757813 30 15 C30 15.33 30 15.66 30 16 C26.7 16 23.4 16 20 16 C20 16.66 20 17.32 20 18 C12.67873264 17.61467014 5.7333619 13.24323378 0.8125 7.9375 C-1 5 -1 5 -0.8125 2.125 C-0.544375 1.42375 -0.27625 0.7225 0 0 Z " fill="#DBE9EF" transform="translate(39,69)"/>
<path d="M0 0 C2.64 0 5.28 0 8 0 C8.33 0.99 8.66 1.98 9 3 C6.36 3.33 3.72 3.66 1 4 C1 5.32 1 6.64 1 8 C1.99 8.33 2.98 8.66 4 9 C-0.62 9 -5.24 9 -10 9 C-10 8.01 -10 7.02 -10 6 C-5.545 5.505 -5.545 5.505 -1 5 C-1.66 4.34 -2.32 3.68 -3 3 C-1.68 3 -0.36 3 1 3 C0.67 2.01 0.34 1.02 0 0 Z " fill="#D6D6D6" transform="translate(74,49)"/>
<path d="M0 0 C0.0272415 1.41655793 0.04650467 2.83327045 0.0625 4.25 C0.07410156 5.03890625 0.08570312 5.8278125 0.09765625 6.640625 C0.00385306 8.90691002 -0.36758937 10.8288895 -1 13 C-2.32 13.33 -3.64 13.66 -5 14 C-5 13.34 -5 12.68 -5 12 C-12.59 12.99 -20.18 13.98 -28 15 C-28.33 14.34 -28.66 13.68 -29 13 C-25.22957855 12.49686083 -21.45859978 11.99802745 -17.6875 11.5 C-16.61564453 11.35691406 -15.54378906 11.21382812 -14.43945312 11.06640625 C-13.41142578 10.93105469 -12.38339844 10.79570313 -11.32421875 10.65625 C-10.37635498 10.53056641 -9.42849121 10.40488281 -8.4519043 10.27539062 C-6 10 -6 10 -3 10 C-3 7.03 -3 4.06 -3 1 C-1 0 -1 0 0 0 Z " fill="#A5A5A5" transform="translate(87,49)"/>
<path d="M0 0 C2.64 0 5.28 0 8 0 C8 2.31 8 4.62 8 7 C5.69 7.33 3.38 7.66 1 8 C0.67 5.36 0.34 2.72 0 0 Z " fill="#FEFEFE" transform="translate(65,44)"/>
<path d="M0 0 C8.92981438 -0.46321804 15.97331823 -0.1428035 24 4 C23.01 4.99 22.02 5.98 21 7 C20.195625 6.505 19.39125 6.01 18.5625 5.5 C14.17997546 3.65472651 10.67684769 3.71938914 6 4 C5.67 3.34 5.34 2.68 5 2 C2.47266765 1.34444881 2.47266765 1.34444881 0 1 C0 0.67 0 0.34 0 0 Z " fill="#DAE5EA" transform="translate(57,26)"/>
<path d="M0 0 C6.62842427 0.28819236 11.78452788 2.92868996 17 7 C18.29296875 9.19921875 18.29296875 9.19921875 19 11 C18.01 11.66 17.02 12.32 16 13 C15.59910156 12.46890625 15.19820312 11.9378125 14.78515625 11.390625 C10.46059795 6.01679746 6.51165043 3.24437838 0 1 C0 0.67 0 0.34 0 0 Z " fill="#4BBBDF" transform="translate(67,29)"/>
<path d="M0 0 C2.97 0 5.94 0 9 0 C10.25664978 2.90600261 11 4.79604584 11 8 C10.01 8 9.02 8 8 8 C7.67 6.68 7.34 5.36 7 4 C4.69 3.67 2.38 3.34 0 3 C0 2.01 0 1.02 0 0 Z " fill="#FDFDFD" transform="translate(54,44)"/>
<path d="M0 0 C2.22677693 1.11338847 4.33680545 2.21590093 6.4375 3.5625 C11.80544989 5.72851487 17.25946458 5.75300367 23 6 C23 6.33 23 6.66 23 7 C19.37 7 15.74 7 12 7 C12 7.66 12 8.32 12 9 C7.50985376 7.50328459 3.52151236 5.16631659 0 2 C0 1.34 0 0.68 0 0 Z " fill="#59BFE0" transform="translate(43,74)"/>
<path d="M0 0 C1.2065625 0.0309375 1.2065625 0.0309375 2.4375 0.0625 C2.4375 0.3925 2.4375 0.7225 2.4375 1.0625 C4.0875 1.3925 5.7375 1.7225 7.4375 2.0625 C7.4375 2.7225 7.4375 3.3825 7.4375 4.0625 C5.79190244 4.39699533 4.14601502 4.73006499 2.5 5.0625 C1.58347656 5.248125 0.66695312 5.43375 -0.27734375 5.625 C-2.5625 6.0625 -2.5625 6.0625 -3.5625 6.0625 C-3.605221 4.39638095 -3.60313832 2.72867115 -3.5625 1.0625 C-2.5625 0.0625 -2.5625 0.0625 0 0 Z " fill="#F3F3F3" transform="translate(55.5625,53.9375)"/>
<path d="M0 0 C6.39559286 0.60335782 6.39559286 0.60335782 9 2.3125 C10 4 10 4 9.6875 6.1875 C9.3471875 7.0846875 9.3471875 7.0846875 9 8 C8.34 7.01 7.68 6.02 7 5 C3.44327821 3.7811879 3.44327821 3.7811879 0 3 C0 2.01 0 1.02 0 0 Z " fill="#FAFAFA" transform="translate(44,46)"/>
<path d="M0 0 C-0.66 1.65 -1.32 3.3 -2 5 C-3.60379341 5.05416188 -5.20811406 5.09286638 -6.8125 5.125 C-7.70582031 5.14820313 -8.59914063 5.17140625 -9.51953125 5.1953125 C-12 5 -12 5 -15 3 C-11.7 3 -8.4 3 -5 3 C-5 2.34 -5 1.68 -5 1 C-2 0 -2 0 0 0 Z " fill="#B2B2B2" transform="translate(75,50)"/>
<path d="M0 0 C2.31 0.33 4.62 0.66 7 1 C7 5.62 7 10.24 7 15 C4.8008587 10.60171741 4.48144941 7.81449408 4 3 C2.68 2.67 1.36 2.34 0 2 C0 1.34 0 0.68 0 0 Z " fill="#BCBCBC" transform="translate(44,49)"/>
<path d="M0 0 C0.05447047 1.41623216 0.09300508 2.83308191 0.125 4.25 C0.14820312 5.03890625 0.17140625 5.8278125 0.1953125 6.640625 C-0.0171622 9.20731941 -0.71345895 10.7916067 -2 13 C-2.96070434 10.11788698 -3.10581883 8.30149956 -3.0625 5.3125 C-3.05347656 4.50425781 -3.04445313 3.69601563 -3.03515625 2.86328125 C-3.02355469 2.24839844 -3.01195313 1.63351563 -3 1 C-1 0 -1 0 0 0 Z " fill="#BDCED3" transform="translate(87,49)"/>
<path d="M0 0 C1.32 0 2.64 0 4 0 C4.33 1.98 4.66 3.96 5 6 C3.35 6 1.7 6 0 6 C0 8.31 0 10.62 0 13 C-0.33 13 -0.66 13 -1 13 C-1.07654536 8.48382401 -1.10228696 4.40914783 0 0 Z " fill="#B0B0B0" transform="translate(39,45)"/>
<path d="M0 0 C0.88751953 0.30744141 0.88751953 0.30744141 1.79296875 0.62109375 C5.83660816 1.9997571 9.76855249 3.31750847 14 4 C14 4.33 14 4.66 14 5 C7.79029227 5.33266291 3.71735105 4.45029331 -2 2 C-1.34 1.34 -0.68 0.68 0 0 Z " fill="#5F819B" transform="translate(47,83)"/>
<path d="M0 0 C0.33 0.99 0.66 1.98 1 3 C-2.3 3.33 -5.6 3.66 -9 4 C-9 3.01 -9 2.02 -9 1 C-4.545 0.505 -4.545 0.505 0 0 Z " fill="#FCFCFC" transform="translate(73,54)"/>
<path d="M0 0 C5.75 0.75 5.75 0.75 8 3 C7.01 3.66 6.02 4.32 5 5 C3.02 4.01 1.04 3.02 -1 2 C-0.67 1.34 -0.34 0.68 0 0 Z " fill="#E4EEF2" transform="translate(73,28)"/>
<path d="M0 0 C2.125 -0.375 2.125 -0.375 5 0 C7.23913252 1.79340357 9.12454539 3.83452663 11 6 C10.67 6.66 10.34 7.32 10 8 C8.70684939 7.04367001 7.41553147 6.08486149 6.125 5.125 C5.40570313 4.59132813 4.68640625 4.05765625 3.9453125 3.5078125 C2 2 2 2 0 0 Z " fill="#416B8C" transform="translate(77,28)"/>
<path d="M0 0 C4.62 0 9.24 0 14 0 C14 0.33 14 0.66 14 1 C10.7 1 7.4 1 4 1 C4 1.66 4 2.32 4 3 C2.68 2.67 1.36 2.34 0 2 C0 1.34 0 0.68 0 0 Z " fill="#CEE7F0" transform="translate(55,84)"/>
<path d="M0 0 C1.75 1.4375 1.75 1.4375 3 3 C2.34 3.66 1.68 4.32 1 5 C-1.0625 4.8125 -1.0625 4.8125 -3 4 C-3.33 3.01 -3.66 2.02 -4 1 C-2.1875 0.3125 -2.1875 0.3125 0 0 Z " fill="#FAFAFA" transform="translate(58,48)"/>
<path d="M0 0 C2.31 0.66 4.62 1.32 7 2 C6.67 2.99 6.34 3.98 6 5 C4.02 4.34 2.04 3.68 0 3 C0 2.01 0 1.02 0 0 Z " fill="#EDF2F5" transform="translate(49,81)"/>
<path d="M0 0 C2.31 0.33 4.62 0.66 7 1 C7.33 1.99 7.66 2.98 8 4 C4.31245243 3.50168276 2.39509338 2.89932357 0 0 Z " fill="#295D83" transform="translate(39,80)"/>
</svg>
