<?xml version="1.0" encoding="UTF-8"?>
<svg version="1.1" xmlns="http://www.w3.org/2000/svg" width="120" height="120">
<path d="M0 0 C39.6 0 79.2 0 120 0 C120 39.6 120 79.2 120 120 C80.4 120 40.8 120 0 120 C0 80.4 0 40.8 0 0 Z " fill="#FEFEFE" transform="translate(0,0)"/>
<path d="M0 0 C2.26003559 1.90123432 4.07658914 3.74686157 6 6 C5.67 6.66 5.34 7.32 5 8 C4.5153125 7.60167969 4.030625 7.20335937 3.53125 6.79296875 C-5.61783569 -0.43832783 -13.24072253 -2.18807855 -25 -1 C-33.39519233 1.10192595 -40.43727441 6.92046233 -45 14.1875 C-48.65803756 22.0296474 -47.39926434 31.56016608 -47 40 C-46.34 40 -45.68 40 -45 40 C-44.74186523 39.25000732 -44.48373047 38.50001465 -44.21777344 37.72729492 C-42.95231826 34.89321318 -41.76422097 33.46296165 -39.515625 31.36328125 C-38.82984375 30.70779297 -38.1440625 30.05230469 -37.4375 29.37695312 C-36.715625 28.69568359 -35.99375 28.01441406 -35.25 27.3125 C-29.39886785 21.65329328 -24.44619606 16.46675813 -21 9 C-20.195625 9.309375 -19.39125 9.61875 -18.5625 9.9375 C-15.70388178 10.79007035 -13.42479988 11.2278105 -10.5 11.5 C-6.76563857 11.84752941 -3.51908707 12.64650497 0 14 C-1.75877353 9.25131146 -5.54216114 6.24123325 -9.94921875 4.015625 C-11.61448387 3.29952722 -13.30551197 2.64390545 -15 2 C-15 1.67 -15 1.34 -15 1 C-8.28606187 1.29191035 -3.25282193 3.84620342 2 8 C8.03955912 14.94487291 10.50317823 21.96926675 10.31640625 31.12109375 C9.50967798 38.46132506 6.33355559 44.90349133 1 50 C-7.87309582 55.75890523 -15.5602182 56.76521961 -26 56 C-32.5690321 54.26083042 -37.85291141 49.24158226 -43 45 C-38.98073272 52.177263 -33.54817231 55.00883597 -26 58 C-24.3439293 58.38251633 -22.67882414 58.73459765 -21 59 C-21 59.33 -21 59.66 -21 60 C-30.1491565 60.6653932 -37.02481475 57.40562496 -44.1484375 51.7578125 C-51.47660536 44.80069111 -55.07145882 35.97891642 -55.375 26 C-55.09373443 16.76511377 -52.32643627 9.76749501 -46 3 C-32.43743385 -9.74523637 -15.33186079 -10.84924047 0 0 Z " fill="#2CB4E1" transform="translate(82,28)"/>
<path d="M0 0 C10.55808656 0.96355353 10.55808656 0.96355353 15 2 C13.52186692 6.92711025 10.70489112 9.74737272 7.125 13.25 C6.33029297 14.06210937 6.33029297 14.06210937 5.51953125 14.890625 C1.4888299 18.89132113 1.4888299 18.89132113 -1.12158203 19.47167969 C-1.74145996 19.64602539 -2.36133789 19.82037109 -3 20 C-3.33 20.99 -3.66 21.98 -4 23 C-4.66 23.33 -5.32 23.66 -6 24 C-4.68 24.66 -3.36 25.32 -2 26 C-3 27 -3 27 -5.5625 27.0625 C-6.366875 27.041875 -7.17125 27.02125 -8 27 C-6.35 27.33 -4.7 27.66 -3 28 C-2.63390625 27.47792969 -2.2678125 26.95585938 -1.890625 26.41796875 C2.15475334 20.91818058 6.61536451 16.51989428 11.71337891 12.04248047 C15.79088529 8.38477455 18.32315807 4.72908741 21 0 C21.66 0 22.32 0 23 0 C25.85229878 5.52632888 25.81349688 10.9389035 24.2421875 16.8515625 C21.18649733 25.77802749 17.30453283 30.56636851 9 35 C2.98231364 37.00589545 -5.27088116 37.11570385 -11.40234375 35.28125 C-15.10650012 33.271117 -17.62199883 30.42432168 -20 27 C-16.27147551 26.04123656 -13.73238306 26.17058154 -10 27 C-9.67 26.67 -9.34 26.34 -9 26 C-9.66386719 25.93941406 -10.32773437 25.87882812 -11.01171875 25.81640625 C-19.78207381 24.98418278 -19.78207381 24.98418278 -24 24 C-23.01 22.35 -22.02 20.7 -21 19 C-20.67 19.99 -20.34 20.98 -20 22 C-18.68 22 -17.36 22 -16 22 C-16.99 21.34 -17.98 20.68 -19 20 C-14.16396347 14.43631908 -9.3305649 9.16068669 -3.62890625 4.47265625 C-1.75725315 2.90151815 -1.75725315 2.90151815 0 0 Z " fill="#FBFCFD" transform="translate(62,44)"/>
<path d="M0 0 C2.26003559 1.90123432 4.07658914 3.74686157 6 6 C5.67 6.66 5.34 7.32 5 8 C4.5153125 7.60167969 4.030625 7.20335937 3.53125 6.79296875 C-5.61783569 -0.43832783 -13.24072253 -2.18807855 -25 -1 C-33.39519233 1.10192595 -40.43727441 6.92046233 -45 14.1875 C-48.65803756 22.0296474 -47.39926434 31.56016608 -47 40 C-46.34 40 -45.68 40 -45 40 C-44.67 39.01 -44.34 38.02 -44 37 C-43.01 37.99 -42.02 38.98 -41 40 C-41.33 40.99 -41.66 41.98 -42 43 C-42.66 42.67 -43.32 42.34 -44 42 C-42.22049315 47.19022832 -39.87805991 50.8323479 -35.16015625 53.765625 C-33.62681641 54.50039062 -33.62681641 54.50039062 -32.0625 55.25 C-31.04285156 55.75015625 -30.02320312 56.2503125 -28.97265625 56.765625 C-26.27844149 57.88437909 -23.87261372 58.55561777 -21 59 C-21 59.33 -21 59.66 -21 60 C-30.1491565 60.6653932 -37.02481475 57.40562496 -44.1484375 51.7578125 C-51.47660536 44.80069111 -55.07145882 35.97891642 -55.375 26 C-55.09373443 16.76511377 -52.32643627 9.76749501 -46 3 C-32.43743385 -9.74523637 -15.33186079 -10.84924047 0 0 Z " fill="#20567F" transform="translate(82,28)"/>
<path d="M0 0 C0.804375 0.309375 1.60875 0.61875 2.4375 0.9375 C5.29611822 1.79007035 7.57520012 2.2278105 10.5 2.5 C14.23436143 2.84752941 17.48091293 3.64650497 21 5 C21 11.35103856 18.53873811 14.27471742 14.25390625 18.8125 C12.19396806 20.81174677 10.0802368 22.66442717 7.875 24.5 C3.62767257 28.06741928 0.832183 32.26896703 -2 37 C-3.65 36.67 -5.3 36.34 -7 36 C-7 35.34 -7 34.68 -7 34 C-4.525 33.505 -4.525 33.505 -2 33 C-4.64 32.34 -7.28 31.68 -10 31 C-10 30.67 -10 30.34 -10 30 C-8.906875 29.896875 -7.81375 29.79375 -6.6875 29.6875 C-2.78343517 28.95962351 -2.46932154 28.7194606 0 26 C1.2446434 24.93123012 2.4950594 23.86915999 3.75 22.8125 C8.28307086 18.87434232 13.28196667 14.43606666 16 9 C13.58345672 8.69642926 11.1726572 8.43155696 8.75 8.1875 C8.06808594 8.09791016 7.38617188 8.00832031 6.68359375 7.91601562 C4.39664891 7.64946182 4.39664891 7.64946182 1 8 C-1.33222762 10.21474664 -1.33222762 10.21474664 -3 13 C-4.26118695 14.15906655 -5.5526071 15.28628296 -6.875 16.375 C-10.69228425 19.62755493 -13.83089266 23.11784351 -17 27 C-15.02 27.66 -13.04 28.32 -11 29 C-11 29.33 -11 29.66 -11 30 C-16.53846154 30.36923077 -16.53846154 30.36923077 -18.875 28.5 C-19.24625 28.005 -19.6175 27.51 -20 27 C-20.66 27.33 -21.32 27.66 -22 28 C-20.68473926 25.0656517 -19.29927342 23.08784802 -16.953125 20.8984375 C-16.35773926 20.33012207 -15.76235352 19.76180664 -15.14892578 19.17626953 C-14.52228027 18.58185059 -13.89563477 17.98743164 -13.25 17.375 C-7.78534332 12.07724553 -3.34760751 6.91838886 0 0 Z " fill="#A5A5A5" transform="translate(61,37)"/>
<path d="M0 0 C2.64 0.66 5.28 1.32 8 2 C8 2.33 8 2.66 8 3 C7.2575 3.061875 6.515 3.12375 5.75 3.1875 C2.08862244 4.26927064 1.30635453 5.96879119 -1 9 C-2.27114791 10.1481336 -3.56504117 11.27135347 -4.875 12.375 C-8.69228425 15.62755493 -11.83089266 19.11784351 -15 23 C-13.02 23.66 -11.04 24.32 -9 25 C-9 25.33 -9 25.66 -9 26 C-14.53846154 26.36923077 -14.53846154 26.36923077 -16.875 24.5 C-17.24625 24.005 -17.6175 23.51 -18 23 C-18.66 23.33 -19.32 23.66 -20 24 C-18.6689633 21.02877738 -17.22921678 19.00533408 -14.8828125 16.7578125 C-14.27566406 16.16613281 -13.66851562 15.57445312 -13.04296875 14.96484375 C-11.77229438 13.74592801 -10.50146303 12.5271759 -9.23046875 11.30859375 C-5.59315473 7.76355831 -2.64309132 4.34317015 0 0 Z " fill="#969696" transform="translate(59,41)"/>
<path d="M0 0 C0.804375 0.309375 1.60875 0.61875 2.4375 0.9375 C5.29611822 1.79007035 7.57520012 2.2278105 10.5 2.5 C14.23436143 2.84752941 17.48091293 3.64650497 21 5 C20.67 6.65 20.34 8.3 20 10 C19.01 10.33 18.02 10.66 17 11 C17 10.01 17 9.02 17 8 C15.77023438 8.03480469 15.77023438 8.03480469 14.515625 8.0703125 C12.89914063 8.09738281 12.89914063 8.09738281 11.25 8.125 C9.64898437 8.15980469 9.64898437 8.15980469 8.015625 8.1953125 C5.03672668 8.00237867 3.51075278 7.52680912 1 6 C0.34 5.67 -0.32 5.34 -1 5 C-0.67 3.35 -0.34 1.7 0 0 Z " fill="#F7F7F7" transform="translate(61,37)"/>
<path d="M0 0 C1.07765625 0.19464844 2.1553125 0.38929687 3.265625 0.58984375 C4.08546875 0.74582031 4.9053125 0.90179688 5.75 1.0625 C5.42 1.7225 5.09 2.3825 4.75 3.0625 C1.75 3.0625 -1.25 3.0625 -4.25 3.0625 C-3.15081184 4.04725214 -2.0454398 5.02510473 -0.9375 6 C-0.32261719 6.54527344 0.29226562 7.09054688 0.92578125 7.65234375 C4.44818341 10.37522851 8.13424778 10.3267548 12.4375 10.625 C13.61699219 10.70878906 14.79648437 10.79257813 16.01171875 10.87890625 C16.91535156 10.93949219 17.81898437 11.00007813 18.75 11.0625 C18.75 11.3925 18.75 11.7225 18.75 12.0625 C15.12 12.0625 11.49 12.0625 7.75 12.0625 C7.75 12.7225 7.75 13.3825 7.75 14.0625 C3.34628958 12.68634049 0.24729608 10.26328039 -3.28515625 7.40234375 C-5.30322198 6.02620747 -6.86431945 5.4928789 -9.25 5.0625 C-9.58 3.4125 -9.91 1.7625 -10.25 0.0625 C-6.59606463 -1.20573485 -3.75929974 -0.69465321 0 0 Z " fill="#5DC0E0" transform="translate(47.25,68.9375)"/>
<path d="M0 0 C4.26020411 1.9670084 7.87117944 4.70080799 11.66015625 7.44140625 C15.58277224 10.0543007 19.07321046 10.24269775 23.6875 10.5625 C24.86699219 10.64628906 26.04648438 10.73007813 27.26171875 10.81640625 C28.16535156 10.87699219 29.06898437 10.93757813 30 11 C30 11.33 30 11.66 30 12 C26.7 12 23.4 12 20 12 C20 12.66 20 13.32 20 14 C12.70676724 13.61614564 6.30827514 9.41819301 1.375 4.25 C0 2 0 2 0 0 Z " fill="#E8EFF3" transform="translate(39,73)"/>
<path d="M0 0 C-0.66 1.65 -1.32 3.3 -2 5 C-6.95 5 -11.9 5 -17 5 C-17.33 4.01 -17.66 3.02 -18 2 C-17.22914062 1.93941406 -16.45828125 1.87882812 -15.6640625 1.81640625 C-14.15972656 1.69072266 -14.15972656 1.69072266 -12.625 1.5625 C-11.62726562 1.48128906 -10.62953125 1.40007812 -9.6015625 1.31640625 C-6.12454261 0.89352545 -3.63101996 -0.09555316 0 0 Z " fill="#27B2E1" transform="translate(73,79)"/>
<path d="M0 0 C6.62842427 0.28819236 11.78452788 2.92868996 17 7 C18.56957673 9.45450129 19.10721957 10.35668255 18.625 13.25 C18.315625 14.11625 18.315625 14.11625 18 15 C17.34 15 16.68 15 16 15 C15.67 15.99 15.34 16.98 15 18 C13.66667905 15.3333581 14.32897967 13.83319697 15 11 C10.2733574 6.51889728 6.16943702 3.18500894 0 1 C0 0.67 0 0.34 0 0 Z " fill="#52BCDE" transform="translate(67,29)"/>
<path d="M0 0 C8.92981438 -0.46321804 15.97331823 -0.1428035 24 4 C23.01 4.99 22.02 5.98 21 7 C20.195625 6.505 19.39125 6.01 18.5625 5.5 C14.17997546 3.65472651 10.67684769 3.71938914 6 4 C5.67 3.34 5.34 2.68 5 2 C2.47266765 1.34444881 2.47266765 1.34444881 0 1 C0 0.67 0 0.34 0 0 Z " fill="#DAE5EA" transform="translate(57,26)"/>
<path d="M0 0 C0.66 0.99 1.32 1.98 2 3 C-0.97 7.455 -0.97 7.455 -4 12 C-5.65 11.67 -7.3 11.34 -9 11 C-9 10.34 -9 9.68 -9 9 C-7.35 8.67 -5.7 8.34 -4 8 C-6.64 7.34 -9.28 6.68 -12 6 C-12 5.67 -12 5.34 -12 5 C-10.906875 4.896875 -9.81375 4.79375 -8.6875 4.6875 C-5.0381552 4.00711368 -4.18832 3.76419369 -2 1 C-1.34 0.67 -0.68 0.34 0 0 Z " fill="#8D8D8D" transform="translate(63,62)"/>
<path d="M0 0 C-0.50522222 4.37859255 -3.17827222 6.81651224 -6 10 C-4.02 10.66 -2.04 11.32 0 12 C0 12.33 0 12.66 0 13 C-5.53846154 13.36923077 -5.53846154 13.36923077 -7.875 11.5 C-8.24625 11.005 -8.6175 10.51 -9 10 C-9.99 10.495 -9.99 10.495 -11 11 C-9.60249952 7.84164893 -7.94801766 5.67727175 -5.5 3.25 C-4.8915625 2.63640625 -4.283125 2.0228125 -3.65625 1.390625 C-2 0 -2 0 0 0 Z " fill="#959595" transform="translate(50,54)"/>
<path d="M0 0 C1.07765625 0.19464844 2.1553125 0.38929687 3.265625 0.58984375 C4.08546875 0.74582031 4.9053125 0.90179688 5.75 1.0625 C5.42 1.7225 5.09 2.3825 4.75 3.0625 C1.75 3.0625 -1.25 3.0625 -4.25 3.0625 C-4.91 3.7225 -5.57 4.3825 -6.25 5.0625 C-7.24 5.0625 -8.23 5.0625 -9.25 5.0625 C-9.58 3.4125 -9.91 1.7625 -10.25 0.0625 C-6.59606463 -1.20573485 -3.75929974 -0.69465321 0 0 Z " fill="#A8AFB2" transform="translate(47.25,68.9375)"/>
<path d="M0 0 C0.804375 0.309375 1.60875 0.61875 2.4375 0.9375 C5.29611822 1.79007035 7.57520012 2.2278105 10.5 2.5 C14.23436143 2.84752941 17.48091293 3.64650497 21 5 C21 5.33 21 5.66 21 6 C16.11706569 6.08786771 11.46185311 5.79535278 6.625 5.125 C5.40039062 4.96257813 4.17578125 4.80015625 2.9140625 4.6328125 C1.95242187 4.42398438 0.99078125 4.21515625 0 4 C-0.33 3.34 -0.66 2.68 -1 2 C-0.67 1.34 -0.34 0.68 0 0 Z " fill="#777777" transform="translate(61,37)"/>
<path d="M0 0 C0 3 0 3 -1.8984375 5.04296875 C-2.71570313 5.75066406 -3.53296875 6.45835938 -4.375 7.1875 C-5.59316406 8.26064453 -5.59316406 8.26064453 -6.8359375 9.35546875 C-9 11 -9 11 -11 11 C-10.45700313 7.19902189 -8.92723228 5.42542103 -6 3 C-3.875 2.375 -3.875 2.375 -2 2 C-1.34 1.34 -0.68 0.68 0 0 Z " fill="#9B9B9B" transform="translate(75,53)"/>
<path d="M0 0 C0.33 0.99 0.66 1.98 1 3 C4.3 3 7.6 3 11 3 C10.01 4.32 9.02 5.64 8 7 C4.37 6.34 0.74 5.68 -3 5 C-2.01 3.35 -1.02 1.7 0 0 Z " fill="#F4F4F4" transform="translate(41,63)"/>
<path d="M0 0 C0.88751953 0.30744141 0.88751953 0.30744141 1.79296875 0.62109375 C5.83660816 1.9997571 9.76855249 3.31750847 14 4 C14 4.33 14 4.66 14 5 C7.79029227 5.33266291 3.71735105 4.45029331 -2 2 C-1.34 1.34 -0.68 0.68 0 0 Z " fill="#5F819B" transform="translate(47,83)"/>
<path d="M0 0 C1.32 0.33 2.64 0.66 4 1 C4 3.33333333 4 5.66666667 4 8 C3.34 8 2.68 8 2 8 C1.67 8.99 1.34 9.98 1 11 C0 9 0 9 0.5 6.625 C1.0073242 3.96154796 0.84445568 2.53336705 0 0 Z " fill="#4FA5C2" transform="translate(81,36)"/>
<path d="M0 0 C1.52519276 0.08937803 3.04681929 0.24537146 4.5625 0.4375 C5.80193359 0.59025391 5.80193359 0.59025391 7.06640625 0.74609375 C7.70449219 0.82988281 8.34257813 0.91367187 9 1 C8.34 2.32 7.68 3.64 7 5 C1.25 3.25 1.25 3.25 -1 1 C-0.67 0.67 -0.34 0.34 0 0 Z " fill="#EFEFEF" transform="translate(61,40)"/>
<path d="M0 0 C5.75 0.75 5.75 0.75 8 3 C7.01 3.66 6.02 4.32 5 5 C3.02 4.01 1.04 3.02 -1 2 C-0.67 1.34 -0.34 0.68 0 0 Z " fill="#E4EEF2" transform="translate(73,28)"/>
<path d="M0 0 C-0.39803561 2.88575819 -0.79009069 3.82189513 -3.0625 5.75 C-3.701875 6.1625 -4.34125 6.575 -5 7 C-5.66 6.34 -6.32 5.68 -7 5 C-2.25 0 -2.25 0 0 0 Z " fill="#9B9B9B" transform="translate(50,54)"/>
<path d="M0 0 C2.125 -0.375 2.125 -0.375 5 0 C7.23913252 1.79340357 9.12454539 3.83452663 11 6 C10.67 6.66 10.34 7.32 10 8 C8.70684939 7.04367001 7.41553147 6.08486149 6.125 5.125 C5.40570313 4.59132813 4.68640625 4.05765625 3.9453125 3.5078125 C2 2 2 2 0 0 Z " fill="#416B8C" transform="translate(77,28)"/>
<path d="M0 0 C4.62 0 9.24 0 14 0 C14 0.33 14 0.66 14 1 C10.7 1 7.4 1 4 1 C4 1.66 4 2.32 4 3 C2.68 2.67 1.36 2.34 0 2 C0 1.34 0 0.68 0 0 Z " fill="#CEE7F0" transform="translate(55,84)"/>
<path d="M0 0 C2.31 0.33 4.62 0.66 7 1 C7.33 1.99 7.66 2.98 8 4 C4.31245243 3.50168276 2.39509338 2.89932357 0 0 Z " fill="#295D83" transform="translate(39,80)"/>
<path d="M0 0 C2.64 0.66 5.28 1.32 8 2 C8 2.33 8 2.66 8 3 C7.21625 3.12375 6.4325 3.2475 5.625 3.375 C2.85942178 3.79117993 2.85942178 3.79117993 1 6 C0.4465236 3.92446352 0 2.15634036 0 0 Z " fill="#878787" transform="translate(59,41)"/>
</svg>
