<svg xmlns="http://www.w3.org/2000/svg" viewBox="0 0 86.26 85.72"><defs><style>.cls-1{fill:#0f4974;}</style></defs><title>higienizacao</title><g id="Camada_2" data-name="Camada 2"><g id="Camada_1-2" data-name="Camada 1"><path class="cls-1" d="M76.17,58.86c-.15-.74-.73-2-2.94-2-2.41,0-6.39,1.46-11.82,4.34-.85.45-3.63.93-7.71.93-6,0-10.87-1-12.38-2.59a1.45,1.45,0,0,1-.47-1.07c0-.43,0-1.08,1.79-1.08a26.46,26.46,0,0,1,4.49.65,29.61,29.61,0,0,0,5.43.76c2.21,0,3.58-.7,4.19-2.15a3,3,0,0,0,0-2.78c-1.16-2-4.86-2.49-8.44-2.95A23.27,23.27,0,0,1,44,50.14a5.43,5.43,0,0,0-1.91-.3c-3.84,0-9.87,2.72-13.1,4.18l-1.13.51c-1.55.68-7.34,1.08-15.48,1.08H9.71V69.15l.83-.08c3.62-.35,14.59-1.49,16.45-1.68C31.91,70.55,42.3,71,48.12,71a84.69,84.69,0,0,0,9.17-.43c4-.52,15.35-5.38,18.2-9.36A3,3,0,0,0,76.17,58.86Zm-1.9,1.5c-2.51,3.5-13.49,8.26-17.17,8.74a81.45,81.45,0,0,1-9,.42c-5.74,0-16-.46-20.51-3.53l-.23-.15-.28,0C27,65.88,15.84,67,11.21,67.5V57.11h1.14c5,0,13.67-.16,16.08-1.21l1.14-.51c3.14-1.41,9-4,12.49-4a4,4,0,0,1,1.39.21,24.47,24.47,0,0,0,4.64.86c2.91.37,6.54.84,7.33,2.21a1.5,1.5,0,0,1-.05,1.45c-.23.52-.76,1.23-2.81,1.23a28.33,28.33,0,0,1-5.14-.73,26.7,26.7,0,0,0-4.78-.68c-2.64,0-3.25,1.37-3.29,2.52a2.89,2.89,0,0,0,.89,2.17c2.72,2.83,11,3.05,13.46,3.05,3,0,6.86-.29,8.41-1.11,6.5-3.44,9.63-4.16,11.12-4.16,1.31,0,1.42.54,1.47.8A1.74,1.74,0,0,1,74.27,60.36Z"/><path class="cls-1" d="M39.93,20.84v7h-7v8.84h7v7h8.85v-7h7V27.87h-7v-7ZM54.3,29.37v5.84h-7v7H41.43v-7h-7V29.37h7v-7h5.85v7Z"/><path class="cls-1" d="M60.31,34.47c-.09.61-.21,1.22-.36,1.82l1.45.37a16.66,16.66,0,0,0,.39-2Z"/><path class="cls-1" d="M37.47,48.48l.59-1.38a16.07,16.07,0,0,1-4.64-3l-1,1.11A17.37,17.37,0,0,0,37.47,48.48Z"/><path class="cls-1" d="M43.42,48.36l-.08,1.5c.33,0,.66,0,1,0a17.49,17.49,0,0,0,2.4-.17,17.67,17.67,0,0,0,2.6-.55l-.43-1.44a15.84,15.84,0,0,1-2.37.5A15.46,15.46,0,0,1,43.42,48.36Z"/><path class="cls-1" d="M30.07,39.72a16,16,0,0,1-1.66-5.25l-1.49.2a17.8,17.8,0,0,0,1.82,5.75Z"/><path class="cls-1" d="M54.73,46.5a17.63,17.63,0,0,0,4.19-4.34l-1.24-.84a16.24,16.24,0,0,1-3.83,4Z"/><path class="cls-1" d="M33,20.9a16,16,0,0,1,11.37-4.71h0A16.12,16.12,0,0,1,60.45,32.3H62A17.6,17.6,0,0,0,44.37,14.7h0A17.61,17.61,0,0,0,26.76,32.28h1.5A16,16,0,0,1,33,20.9Z"/><path class="cls-1" d="M25.56,83.35a2.37,2.37,0,1,0-2.37,2.37A2.37,2.37,0,0,0,25.56,83.35Zm-4,0A1.62,1.62,0,1,1,23.19,85,1.63,1.63,0,0,1,21.57,83.35Z"/><path class="cls-1" d="M1.33,29l2.14-1.13L5.62,29l-.41-2.39L7,24.91l-2.4-.35L3.47,22.39,2.4,24.56,0,24.91l1.74,1.7Zm.28-3.56,1.29-.19.57-1.17.58,1.17,1.29.19-.93.9.22,1.29L3.47,27l-1.15.61.22-1.28Z"/><path class="cls-1" d="M21.72,6.12l1.53-.81,1.54.81L24.5,4.41,25.74,3.2,24,3l-.77-1.56L22.49,3l-1.72.25L22,4.41ZM23,3.63l.26-.54.27.54.6.09-.43.43.1.6-.54-.29-.53.29.1-.6-.44-.43Z"/><path class="cls-1" d="M79.57,62.84l1.24,1.21-.3,1.7,1.54-.8,1.53.8-.29-1.7,1.24-1.21-1.71-.25L82.05,61l-.77,1.56Zm2.48-.11.27.54.6.09-.44.43.11.6-.54-.29-.54.29.1-.6-.43-.43.6-.09Z"/><path class="cls-1" d="M82.05,8.59l-1,3.05H77.84l2.6,1.89-1,3.06,2.6-1.89,2.6,1.89-1-3.06,2.6-1.89H83Zm.73,4.66.44,1.38-1.17-.86-1.17.86.44-1.38-1.17-.86H81.6L82.05,11l.45,1.37H84Z"/><path class="cls-1" d="M74.09,0a2.37,2.37,0,1,0,2.37,2.37A2.37,2.37,0,0,0,74.09,0Zm0,4a1.62,1.62,0,0,1,0-3.23,1.62,1.62,0,1,1,0,3.23Z"/><path class="cls-1" d="M81.67,43.84a1.92,1.92,0,1,0,1.92-1.91A1.91,1.91,0,0,0,81.67,43.84Zm1.92-1.16a1.16,1.16,0,1,1-1.17,1.16A1.16,1.16,0,0,1,83.59,42.68Z"/><path class="cls-1" d="M9.92,14.5A2.49,2.49,0,1,0,7.43,12,2.5,2.5,0,0,0,9.92,14.5Zm0-4.22A1.74,1.74,0,1,1,8.18,12,1.74,1.74,0,0,1,9.92,10.28Z"/><path class="cls-1" d="M17.91,83.72l.15-.74c-.33-.06-.65-.14-1-.21l-.19.72C17.24,83.58,17.58,83.65,17.91,83.72Z"/><path class="cls-1" d="M8.18,78.81l.5-.56c-.47-.43-.93-.89-1.36-1.36l-.56.5C7.21,77.88,7.68,78.36,8.18,78.81Z"/><path class="cls-1" d="M4.12,72.09c-.27-.58-.52-1.18-.74-1.78l-.7.25a19.94,19.94,0,0,0,.76,1.85Z"/><path class="cls-1" d="M2.82,68.47c-.15-.63-.28-1.26-.37-1.89l-.75.1c.1.66.23,1.32.39,2Z"/><path class="cls-1" d="M1.48,63.71c0,.33,0,.66,0,1l.75,0c0-.32,0-.63,0-.95s0-.65,0-1l-.75,0Q1.48,63.2,1.48,63.71Z"/><path class="cls-1" d="M4.39,74.17A17.28,17.28,0,0,0,5.5,75.84l.6-.45c-.38-.51-.74-1-1.07-1.6Z"/><path class="cls-1" d="M15,82.91l.25-.71c-.6-.21-1.2-.46-1.78-.73l-.32.67A17.59,17.59,0,0,0,15,82.91Z"/><path class="cls-1" d="M11.77,80.55c-.55-.33-1.09-.69-1.6-1.07l-.45.6a19.44,19.44,0,0,0,1.67,1.12Z"/><path class="cls-1" d="M2.62,59.83l-.74-.15c-.06.34-.12.67-.17,1l.74.11C2.5,60.48,2.55,60.15,2.62,59.83Z"/><path class="cls-1" d="M84.82,70.87h-.75c0,.32,0,.65,0,1l.75.07C84.8,71.56,84.82,71.22,84.82,70.87Z"/><path class="cls-1" d="M77.41,82.19l.38.65a15.51,15.51,0,0,0,1.84-1.28L79.15,81A13.17,13.17,0,0,1,77.41,82.19Z"/><path class="cls-1" d="M80.69,79.51l.56.49a15.43,15.43,0,0,0,1.35-1.78L82,77.81A13.26,13.26,0,0,1,80.69,79.51Z"/><path class="cls-1" d="M73.62,84.45a13.6,13.6,0,0,0,2.15-.64l-.27-.7a13.28,13.28,0,0,1-2,.61Z"/><path class="cls-1" d="M83,75.94l.69.3a14.46,14.46,0,0,0,.73-2.13l-.73-.18A14.45,14.45,0,0,1,83,75.94Z"/><path class="cls-1" d="M71.35,84c-.32,0-.65,0-1,0v.75h.3l.73,0Z"/><rect class="cls-1" x="83.21" y="23.24" width="0.75" height="2"/><rect class="cls-1" x="83.21" y="27.23" width="0.75" height="2"/><rect class="cls-1" x="83.21" y="35.23" width="0.75" height="2"/><rect class="cls-1" x="83.21" y="31.23" width="0.75" height="2"/></g></g></svg>