<svg xmlns="http://www.w3.org/2000/svg" viewBox="0 0 6239.98 6032.34"><defs><style>.cls-1,.cls-2{fill:#0f4974;}.cls-2{isolation:isolate;font-size:0.66px;font-family:HelveticaNeue-Bold, Helvetica Neue;font-weight:700;}</style></defs><title>impermeabilizacao</title><g id="Camada_2" data-name="Camada 2"><g id="Camada_1-2" data-name="Camada 1"><path class="cls-1" d="M2513.28,4441.94a32.67,32.67,0,0,1-43.43,0L733.15,2918.79c-123.89,67.3-236.76,151.64-338.71,248.89l2097.44,1839.5c1096.73-928,2129.46-256.24,3260.16-800.32,142-68.32,276.71-151.26,403.45-244.75L5791,3642.44C4637.89,4243,3545.75,3541.39,2513.28,4441.94ZM1654.64,456.77c0-25.86,39.32-25.86,39.32,0a162,162,0,0,1-162,161.94c-25.86,0-25.86-39.32,0-39.32a122.62,122.62,0,0,0,122.63-122.62ZM3010.25,806.83c0-25.86,39.32-25.86,39.32,0,0,120.77-97.91,218.68-218.68,218.68-25.87,0-25.87-39.32,0-39.32A179.36,179.36,0,0,0,3010.25,806.83ZM2370,1933.19c0-25.86,39.32-25.86,39.32,0,0,169-137.05,306.11-306.1,306.11-25.87,0-25.87-39.32,0-39.32C2250.56,2200,2370,2080.53,2370,1933.19Zm2188.31,1053c3.34-25.56,42.2-20.49,38.86,5.07-14.52,109.57-208.11,135.13-294.23,135.13-25.87,0-25.87-39.32,0-39.32C4364.42,3087.09,4547.55,3067.41,4558.31,2986.21Zm-866.38-532.64c-8,99.89-201.32,117.43-276.27,111.7-25.76-2-22.69-41.19,3.07-39.17,48.64,3.82,228.55-8,234-75.36C3654.86,2424.51,3694,2427.91,3691.93,2453.57ZM1545.57,0c66.68,0,133.44,68.36,185.54,157.22,59.13,100.85,102.09,230.93,102.09,310.22,0,179.35-140.85,287.5-283.15,290.3C1404.76,760.59,1258,654.3,1258,467.44c0-79.29,43-209.37,102.09-310.22C1412.14,68.36,1478.9,0,1545.57,0Zm129.22,190.25c-41.33-70.49-89.15-124.71-129.22-124.71s-87.88,54.22-129.21,124.71c-53.79,91.74-92.87,208-92.87,277.19,0,142.16,112.16,227.21,223.75,225.81,110.48-1.38,220.42-87.83,220.42-225.81,0-69.21-39.08-185.45-92.87-277.19Zm1174.11,28.3c80.35,0,161.6,86.88,225.44,199.83,73.2,129.51,126.38,296.15,126.38,397.41,0,194.3-157.52,351.82-351.82,351.82s-351.82-157.52-351.82-351.82c0-101.26,53.19-267.9,126.39-397.41C2687.31,305.43,2768.56,218.55,2848.9,218.55Zm168.6,231.83c-53.12-94-115.31-166.3-168.6-166.3s-115.47,72.31-168.6,166.3C2612.14,571,2562.62,724.2,2562.62,815.79c0,158.11,128.17,286.28,286.28,286.28s286.29-128.17,286.29-286.28C3135.19,724.2,3085.66,571,3017.5,450.38Zm-884.14,803.2c93.71,0,189.3,102.81,264.84,236.44,87.34,154.53,150.79,353.15,150.79,473.7,0,229.54-186.09,415.62-415.63,415.62s-415.63-186.09-415.63-415.62c0-120.55,63.46-319.17,150.8-473.7,75.53-133.63,171.12-236.44,264.83-236.44Zm208,268.44c-64.82-114.68-141.35-202.9-208-202.9s-143.18,88.22-208,202.9c-82.3,145.61-142.09,330.82-142.09,441.7,0,193.35,156.74,350.09,350.09,350.09s350.09-156.74,350.09-350.09C2483.45,1852.84,2423.66,1667.63,2341.36,1522Zm1374.33,783.79c79.19,39.59,128.17,96.71,128.17,162s-49,122.37-128.17,162c-156.23,78.12-404.07,78.12-560.29,0-169.57-84.78-169.58-239.13,0-323.91C3311.62,2227.69,3559.46,2227.69,3715.69,2305.81Zm-29.19,58.36c-137.21-68.6-364.7-68.6-501.92,0-121.51,60.76-121.51,146.43,0,207.19,137.22,68.6,364.71,68.6,501.92,0,56.73-28.37,91.82-65.14,91.82-103.6S3743.23,2392.54,3686.5,2364.17Zm922.69,451c91.56,45.78,148.19,111.44,148.19,186.12,0,76.36-49.94,131.86-119.62,171.18-185.64,104.76-494.42,110.5-685.52,14.95-196-98-196-274.26,0-372.25,182.92-91.46,474-91.47,656.95,0ZM4580,2873.57c-163.91-82-434.66-82-598.57,0-148.11,74-148.11,181.46,0,255.51,169.59,84.8,446.89,78.69,614.44-7.22,56-28.71,96-68,96-120.54,0-47.89-42.74-93.2-111.84-127.75ZM2512.44,5697a32.73,32.73,0,0,1-44-2.09l-2170-1903.11C415.15,3676.1,529.52,3580.9,673.13,3499l-374.68-328.6c119-118,235.58-214.61,382.54-297.31l-382.54-335.5C705.62,2133.79,1107,2035.8,1594,2005.57c4.54,20.27,9.92,44.22,12.2,64.64C1168,2097.38,761.62,2184.72,394.46,2534.89L2491.8,4374.29c1159.9-988.56,2345.84-26.73,3664.27-1044.48L4060.24,1491.72c-473.6,348.12-928.77,476.78-1362.32,527.74,0-22.42,1.1-45.45-1-67.76,481.52-56.62,898.57-193.6,1366.69-543.84L6227.42,3305.51a32.73,32.73,0,0,1,.22,51.38c-127.35,101-252.35,184-375.29,252.49l376.44,330.14a32.73,32.73,0,0,1-3.36,51.74c-126.81,96.14-251.31,174.68-373.83,238.91L6228.79,4561a32.72,32.72,0,0,1-2.43,51.09c-1308.18,1019.55-2457,44.12-3713.92,1085Zm-20.16-68c1260-1023.4,2397.13-85,3663.6-1045.08L5788.79,4262C4642.36,4821,3596.41,4138.74,2513,5075.05a32.67,32.67,0,0,1-43.6-.76L725.18,3544.62c-120.88,66.6-230.95,149.31-330.74,244.51L2492.28,5629Z"/><text class="cls-2" transform="translate(0 6031.54)">Created by Oleksandr Panasovskyi</text><text class="cls-2" transform="translate(0 6032.2)">from the Noun Project</text></g></g></svg>