<svg xmlns="http://www.w3.org/2000/svg" viewBox="0 0 59.01 52.27"><defs><style>.cls-1{fill:#0f4974;}</style></defs><title>limpeza-profunda</title><g id="Camada_2" data-name="Camada 2"><g id="Camada_1-2" data-name="Camada 1"><path class="cls-1" d="M49.36,7.93,47.21,0,45.06,7.93A3,3,0,0,1,43,10l-7.58,2.16L43,14.36a3,3,0,0,1,2.07,2.1l2.15,7.93,2.15-7.93a3,3,0,0,1,2.07-2.1L59,12.19,51.43,10A3,3,0,0,1,49.36,7.93Zm1.52,4.51a5,5,0,0,0-3.45,3.49l-.22.82L47,15.93a5,5,0,0,0-3.45-3.49l-.85-.25.85-.24A5,5,0,0,0,47,8.45l.22-.81.22.81A5,5,0,0,0,50.88,12l.85.24Z"/><path class="cls-1" d="M38.55,43.33,41,52.27l2.49-8.94a3,3,0,0,1,2.09-2.08l8.93-2.49-8.93-2.49a3,3,0,0,1-2.09-2.08L41,25.25l-2.48,8.94a3,3,0,0,1-2.09,2.08l-8.94,2.49,8.94,2.49A3,3,0,0,1,38.55,43.33ZM37,38.2a5,5,0,0,0,3.47-3.48l.56-2,.57,2a5,5,0,0,0,3.47,3.48l2,.56-2,.56A5,5,0,0,0,41.6,42.8l-.57,2-.56-2A5,5,0,0,0,37,39.32l-2-.56Z"/><path class="cls-1" d="M14.15,24.66l3.36,12.06,3.35-12.07A3,3,0,0,1,23,22.57h0L35,19.21,23,15.85a3,3,0,0,1-2.09-2.08L17.51,1.71,14.15,13.77a3,3,0,0,1-2.09,2.08L0,19.21l12.06,3.36A3,3,0,0,1,14.15,24.66ZM12.6,17.78a5,5,0,0,0,3.47-3.48l1.44-5.14,1.43,5.14a5,5,0,0,0,3.47,3.48l5.14,1.43-5.14,1.43h0a5,5,0,0,0-3.47,3.48l-1.43,5.14-1.44-5.14a5,5,0,0,0-3.47-3.48L7.46,19.21Z"/></g></g></svg>